<?xml version="1.0" standalone="no"?>
<!DOCTYPE svg PUBLIC "-//W3C//DTD SVG 1.1//EN" "http://www.w3.org/Graphics/SVG/1.1/DTD/svg11.dtd" >
<svg>
<metadata>
Created by FontForge 20090622 at Wed Jan 27 09:30:18 2016
 By deploy user
Digitized data copyright The Monotype Corporation 1991-2001. All rights reserved. 
</metadata>
<defs>
<font id="GillSans-Light" horiz-adv-x="1004" >
  <font-face 
    font-family="Gill Sans"
    font-weight="300"
    font-stretch="normal"
    units-per-em="2048"
    panose-1="2 11 3 2 2 1 4 2 2 3"
    ascent="1638"
    descent="-410"
    x-height="920"
    cap-height="1397"
    bbox="-1087 -753 2767 2285"
    underline-thickness="102"
    underline-position="-103"
    unicode-range="U+0008-U+FE48"
  />
<missing-glyph horiz-adv-x="748" 
d="M68 0v1365h544v-1365h-544zM136 68h408v1229h-408v-1229z" />
    <glyph glyph-name="fi" unicode="fi" horiz-adv-x="981" 
d="M481 920v-80h-190v-840h-98v840h-168v80h168v114q0 185 84.5 283t244.5 98q298 0 316 -258h-99q-17 176 -213 176q-123 0 -179 -71.5t-56 -227.5v-114h190zM838 920v-920h-99v920h99z" />
    <glyph glyph-name="fl" unicode="fl" horiz-adv-x="981" 
d="M485 920v-80h-190v-840h-98v840h-170v80h170v159q0 158 87.5 247t221.5 89q69 0 137 -31v-96q-89 31 -145 31q-97 0 -150 -62.5t-53 -173.5v-163h190zM838 1397v-1397h-99v1397h99z" />
    <glyph glyph-name=".notdef" horiz-adv-x="748" 
d="M68 0v1365h544v-1365h-544zM136 68h408v1229h-408v-1229z" />
    <glyph glyph-name="uni0000" horiz-adv-x="0" 
 />
    <glyph glyph-name="uni0000" horiz-adv-x="0" 
 />
    <glyph glyph-name="uni0000" horiz-adv-x="0" 
 />
    <glyph glyph-name="nonmarkingreturn" unicode="&#x9;" horiz-adv-x="569" 
 />
    <glyph glyph-name="nonmarkingreturn" unicode="&#xd;" horiz-adv-x="569" 
 />
    <glyph glyph-name="nonmarkingreturn" unicode="&#xa;" horiz-adv-x="569" 
 />
    <glyph glyph-name="space" unicode=" " horiz-adv-x="569" 
 />
    <glyph glyph-name="exclam" unicode="!" horiz-adv-x="362" 
d="M248 1397l-35 -1004h-63l-35 1004h133zM248 199v-199h-133v199h133z" />
    <glyph glyph-name="quotedbl" unicode="&#x22;" horiz-adv-x="569" 
d="M358 1401h136v-223l-25 -256h-86l-25 256v223zM76 1401h135v-223l-25 -256h-86l-24 256v223z" />
    <glyph glyph-name="numbersign" unicode="#" horiz-adv-x="1352" 
d="M535 1397h94l-86 -420h389l88 420h94l-88 -420h168v-95h-186l-82 -391h268v-94h-289l-86 -416h-94l86 416h-389l-86 -416h-94l86 416h-170v94h190l80 391h-270v95h291zM522 882l-80 -391h389l82 391h-391z" />
    <glyph glyph-name="dollar" unicode="$" horiz-adv-x="1067" 
d="M932 1229v-115q-171 129 -350 143v-534q409 -109 409 -383q0 -126 -103 -234t-306 -124v-222h-99v222q-242 17 -411 163v113q213 -159 411 -180v567q-401 120 -401 369q0 127 101.5 227t299.5 113v61h99v-61q198 -12 350 -125zM483 754v503q-136 -4 -216.5 -76.5
t-80.5 -160.5q0 -185 297 -266zM582 612v-534q136 8 220.5 82t84.5 174q0 104 -74 167.5t-231 110.5z" />
    <glyph glyph-name="percent" unicode="%" horiz-adv-x="1430" 
d="M369 1415q135 0 232 -97t97 -233q0 -135 -97 -232t-232 -97q-136 0 -233 96.5t-97 232.5t97 233t233 97zM369 844q99 0 170 71t71 170q0 100 -71 171t-170 71t-170.5 -71.5t-71.5 -170.5q0 -100 71 -170.5t171 -70.5zM1321 1409l-1124 -1432h-103l1127 1432h100z
M1061 635q135 0 232.5 -97t97.5 -233q0 -135 -97.5 -232.5t-232.5 -97.5q-136 0 -233 97t-97 233t97 233t233 97zM1061 63q99 0 170.5 71.5t71.5 170.5t-71.5 170.5t-170.5 71.5t-170.5 -72t-71.5 -170q0 -100 71 -171t171 -71z" />
    <glyph glyph-name="ampersand" unicode="&#x26;" horiz-adv-x="1260" 
d="M1040 696h115q-65 -204 -192 -395l284 -301h-137l-211 219q-205 -237 -481 -237q-164 0 -264.5 91.5t-100.5 239.5q0 275 346 426q-174 181 -174 326q0 128 96 216.5t236 88.5q132 0 218.5 -82.5t86.5 -206.5q0 -222 -293 -370l318 -330q95 142 153 315zM500 786
q262 109 262 285q0 85 -60 142t-151 57q-94 0 -157.5 -57.5t-63.5 -141.5q0 -130 170 -285zM825 295l-354 369q-156 -67 -228.5 -145t-72.5 -191q0 -116 71.5 -181t198.5 -65q210 0 385 213z" />
    <glyph glyph-name="quotesingle" unicode="'" horiz-adv-x="455" 
d="M160 1401h135v-223l-25 -256h-86l-24 256v223z" />
    <glyph glyph-name="parenleft" unicode="(" horiz-adv-x="682" 
d="M666 1415q-192 -175 -295 -427.5t-103 -514.5q0 -261 104 -514.5t296 -429.5h-103q-401 404 -401 944t399 942h103z" />
    <glyph glyph-name="parenright" unicode=")" horiz-adv-x="682" 
d="M14 -471q192 176 296 429.5t104 514.5t-104 513.5t-296 428.5h103q401 -404 401 -942q0 -540 -401 -944h-103z" />
    <glyph glyph-name="asterisk" unicode="*" horiz-adv-x="961" 
d="M809 1255l-287 -231l4 -10l369 33v-97l-369 41l-6 -12l289 -234l-70 -69l-237 289l-10 -2l34 -379h-94l37 379l-8 2l-236 -289l-71 69l290 234l-4 10l-374 -35v95l372 -37l2 12l-286 231l71 72l234 -285l10 5l-37 368h94l-34 -366l10 -7l237 285z" />
    <glyph glyph-name="plus" unicode="+" horiz-adv-x="1352" 
d="M139 764h492v491h90v-491h491v-90h-491v-492h-90v492h-492v90z" />
    <glyph glyph-name="comma" unicode="," horiz-adv-x="362" 
d="M248 199v-156q0 -182 -133 -283v72q43 60 43 168h-43v199h133z" />
    <glyph glyph-name="hyphen" unicode="-" horiz-adv-x="641" 
d="M563 510v-96h-485v96h485z" />
    <glyph glyph-name="period" unicode="." horiz-adv-x="362" 
d="M248 199v-199h-133v199h133z" />
    <glyph glyph-name="slash" unicode="/" horiz-adv-x="575" 
d="M457 1415h94l-449 -1433h-96z" />
    <glyph glyph-name="zero" unicode="0" horiz-adv-x="1024" 
d="M512 1415q188 0 317 -188.5t129 -534.5q0 -322 -126.5 -516t-315.5 -194q-198 0 -324 190.5t-126 501.5q0 387 135.5 564t310.5 177zM508 80q156 0 251 176t95 446q0 264 -92.5 439.5t-249.5 175.5q-148 0 -245 -172.5t-97 -446.5q0 -277 94.5 -447.5t243.5 -170.5z" />
    <glyph glyph-name="one" unicode="1" horiz-adv-x="1024" 
d="M563 1397v-1397h-104v1397h104z" />
    <glyph glyph-name="two" unicode="2" horiz-adv-x="1024" 
d="M92 1165v123q155 127 326 127t290 -116.5t119 -284.5q0 -333 -514 -918h650v-96h-887q647 623 647 1012q0 129 -90 217t-223 88q-88 0 -158 -36t-160 -116z" />
    <glyph glyph-name="three" unicode="3" horiz-adv-x="1024" 
d="M152 1225v100q122 90 294 90q183 0 299.5 -99t116.5 -253q0 -110 -65 -196t-189 -124v-4q271 -91 271 -356q0 -185 -123.5 -293t-294.5 -108q-174 0 -322 69v96q144 -67 310 -67q145 0 235 82t90 215q0 143 -95.5 227.5t-264.5 81.5v98q154 0 249 79.5t95 191.5
q0 111 -91.5 186.5t-228.5 75.5q-150 0 -286 -92z" />
    <glyph glyph-name="four" unicode="4" horiz-adv-x="1024" 
d="M770 1415v-792h195v-84h-195v-539h-104v539h-637v34l702 842h39zM666 623v589l-492 -589h492z" />
    <glyph glyph-name="five" unicode="5" horiz-adv-x="1024" 
d="M791 1397v-97h-494v-442q57 9 112 9q209 0 336 -117.5t127 -315.5q0 -194 -129 -323t-323 -129q-162 0 -336 92v119q195 -113 340 -113q150 0 247 98t97 248q0 164 -103 256.5t-274 92.5q-93 0 -192 -30v652h592z" />
    <glyph glyph-name="six" unicode="6" horiz-adv-x="1024" 
d="M707 1415l61 -74q-448 -317 -520 -694q147 109 309 109q167 0 279 -109.5t112 -271.5q0 -171 -112 -282t-285 -111q-194 0 -310 133.5t-116 357.5q0 512 582 942zM229 526q-4 -36 -4 -71q0 -170 90 -272.5t230 -102.5q127 0 213 80.5t86 199.5q0 126 -87 211.5t-214 85.5
q-164 0 -314 -131z" />
    <glyph glyph-name="seven" unicode="7" horiz-adv-x="1024" 
d="M973 1397l-639 -1415l-90 38l577 1280h-762v97h914z" />
    <glyph glyph-name="eight" unicode="8" horiz-adv-x="1024" 
d="M324 727q-183 124 -183 315q0 151 110 262t259 111q153 0 263 -109.5t110 -261.5q0 -197 -178 -317q206 -124 206 -346q0 -168 -114.5 -283.5t-280.5 -115.5q-168 0 -284.5 114t-116.5 277q0 228 209 354zM246 1044q0 -114 77.5 -193t190.5 -79q114 0 189 79t75 198
q0 111 -78 189.5t-190 78.5q-110 0 -187 -79.5t-77 -193.5zM807 387q0 119 -86.5 203t-210.5 84q-121 0 -206 -87.5t-85 -209.5q0 -123 86 -210t211 -87q127 0 209 87t82 220z" />
    <glyph glyph-name="nine" unicode="9" horiz-adv-x="1024" 
d="M295 -18l-57 75q462 333 524 691q-163 -105 -307 -105q-165 0 -277 110.5t-112 272.5q0 170 110.5 279.5t282.5 109.5q199 0 314.5 -131t115.5 -358q0 -521 -594 -944zM780 872q3 32 3 62q0 180 -83.5 281.5t-234.5 101.5q-124 0 -209.5 -81.5t-85.5 -203.5
q0 -124 82.5 -207.5t206.5 -83.5q176 0 321 131z" />
    <glyph glyph-name="colon" unicode=":" horiz-adv-x="362" 
d="M248 920v-199h-133v199h133zM248 199v-199h-133v199h133z" />
    <glyph glyph-name="semicolon" unicode=";" horiz-adv-x="362" 
d="M248 920v-199h-133v199h133zM248 199v-156q0 -182 -133 -283v72q43 60 43 168h-43v199h133z" />
    <glyph glyph-name="less" unicode="&#x3c;" horiz-adv-x="1352" 
d="M139 674v86l1073 450v-100l-950 -393l950 -393v-101z" />
    <glyph glyph-name="equal" unicode="=" horiz-adv-x="1352" 
d="M139 1010h1073v-90h-1073v90zM139 516h1073v-90h-1073v90z" />
    <glyph glyph-name="greater" unicode="&#x3e;" horiz-adv-x="1352" 
d="M1212 674l-1073 -451v101l951 393l-951 393v100l1073 -450v-86z" />
    <glyph glyph-name="question" unicode="?" horiz-adv-x="575" 
d="M51 1219l47 159q72 37 140 37q114 0 185 -80t71 -211q0 -72 -26.5 -153.5t-113.5 -205.5t-106 -175t-19 -94q0 -63 39 -129l-37 -29q-79 91 -79 188q0 47 18.5 103t96.5 181.5t100 195t22 129.5q0 80 -45 136t-108 56q-99 0 -164 -108h-21zM307 199v-199h-133v199h133z
" />
    <glyph glyph-name="at" unicode="@" horiz-adv-x="1638" 
d="M1143 1034h125l-170 -803q-12 -52 -12 -75q0 -45 49 -45q120 0 255.5 164.5t135.5 412.5q0 276 -171 460.5t-497 184.5q-340 0 -559 -225t-219 -576q0 -346 218 -561t570 -215q439 0 672 312h102q-113 -191 -320 -292.5t-456 -101.5q-389 0 -629.5 238t-240.5 623
q0 373 233.5 626.5t640.5 253.5q348 0 544 -209.5t196 -517.5q0 -281 -167.5 -474.5t-348.5 -193.5q-121 0 -121 112q0 30 8 69l-4 4q-154 -185 -338 -185q-148 0 -247 120t-99 302q0 245 151 431t363 186q207 0 299 -193h4zM676 117q156 0 270.5 189.5t114.5 381.5
q0 123 -72.5 203t-183.5 80q-170 0 -277.5 -172t-107.5 -363q0 -138 73 -228.5t183 -90.5z" />
    <glyph glyph-name="A" unicode="A" horiz-adv-x="1366" 
d="M713 1407l645 -1407h-113l-221 483h-682l-221 -483h-113l645 1407h60zM983 573l-301 658l-299 -658h600z" />
    <glyph glyph-name="B" unicode="B" horiz-adv-x="1087" 
d="M164 1397h291q229 0 347 -96t118 -265q0 -202 -201 -311q323 -70 323 -354q0 -170 -126.5 -270.5t-342.5 -100.5h-409v1397zM272 1307v-557h150q381 0 381 278q0 279 -385 279h-146zM272 659v-569h289q179 0 272 77t93 206q0 286 -412 286h-242z" />
    <glyph glyph-name="C" unicode="C" horiz-adv-x="1386" 
d="M1325 1298v-118q-254 135 -498 135q-260 0 -435 -177t-175 -442q0 -268 176 -441t449 -173q228 0 497 143v-112q-248 -131 -495 -131q-319 0 -531.5 204.5t-212.5 509.5q0 307 217 513t517 206q236 0 491 -117z" />
    <glyph glyph-name="D" unicode="D" horiz-adv-x="1516" 
d="M162 1397h489q371 0 566.5 -195t195.5 -504q0 -303 -193.5 -500.5t-549.5 -197.5h-508v1397zM270 1307v-1217h394q271 0 451.5 166.5t180.5 441.5q0 269 -178 439t-461 170h-387z" />
    <glyph glyph-name="E" unicode="E" 
d="M926 1397v-90h-654v-559h637v-91h-637v-567h670v-90h-778v1397h762z" />
    <glyph glyph-name="F" unicode="F" horiz-adv-x="897" 
d="M879 1397v-90h-611v-531h551v-90h-551v-686h-108v1397h719z" />
    <glyph glyph-name="G" unicode="G" horiz-adv-x="1473" 
d="M1331 1296v-122q-248 141 -495 141q-265 0 -441 -176t-176 -441t174 -440.5t473 -175.5q216 0 383 86v377h-295v90h404v-535q-247 -118 -496 -118q-325 0 -542.5 206t-217.5 514q0 306 213.5 509.5t536.5 203.5q220 0 479 -119z" />
    <glyph glyph-name="H" unicode="H" horiz-adv-x="1473" 
d="M1311 1397v-1397h-109v662h-932v-662h-108v1397h108v-645h932v645h109z" />
    <glyph glyph-name="I" unicode="I" horiz-adv-x="426" 
d="M268 1397v-1397h-108v1397h108z" />
    <glyph glyph-name="J" unicode="J" horiz-adv-x="426" 
d="M276 1397v-1397q0 -231 -87 -319t-206 -88q-28 0 -65 4l-10 102q34 -8 64 -8q196 0 196 280v1426h108z" />
    <glyph glyph-name="K" unicode="K" horiz-adv-x="1087" 
d="M1069 1397l-668 -697l732 -700h-138l-731 698v-698h-108v1397h108v-695l670 695h135z" />
    <glyph glyph-name="L" unicode="L" horiz-adv-x="961" 
d="M270 1397v-1307h691v-90h-799v1397h108z" />
    <glyph glyph-name="M" unicode="M" horiz-adv-x="1599" 
d="M799 748l532 649h109v-1397h-109v1239l-532 -653l-533 653v-1239h-108v1397h108z" />
    <glyph glyph-name="N" unicode="N" horiz-adv-x="1579" 
d="M1419 1397v-1397h-90l-1061 1221v-1221h-108v1397h92l1059 -1221v1221h108z" />
    <glyph glyph-name="O" unicode="O" horiz-adv-x="1686" 
d="M842 1415q310 0 525.5 -208.5t215.5 -508.5q0 -299 -215.5 -507.5t-525.5 -208.5q-309 0 -523.5 208.5t-214.5 507.5q0 300 214.5 508.5t523.5 208.5zM846 82q261 0 440.5 178.5t179.5 437.5q0 260 -179.5 438.5t-440.5 178.5q-262 0 -443.5 -178.5t-181.5 -438.5
q0 -259 181.5 -437.5t443.5 -178.5z" />
    <glyph glyph-name="P" unicode="P" horiz-adv-x="1044" 
d="M160 1397h385q221 0 338.5 -99t117.5 -270q0 -173 -118.5 -274t-347.5 -101h-267v-653h-108v1397zM268 1307v-564h260q175 0 266 74t91 209q0 129 -89 205t-255 76h-273z" />
    <glyph glyph-name="Q" unicode="Q" horiz-adv-x="1686" 
d="M1522 -152l-121 -141q-365 45 -635 275q-298 27 -480 237t-182 477q0 305 212.5 512t525.5 207q315 0 528 -205.5t213 -509.5q0 -250 -164.5 -460t-494.5 -258q241 -164 438 -164q68 0 137 51zM838 82q259 0 443.5 180.5t184.5 435.5q0 259 -180.5 438t-441.5 179
q-259 0 -441 -180.5t-182 -436.5q0 -255 180 -435.5t437 -180.5z" />
    <glyph glyph-name="R" unicode="R" horiz-adv-x="1174" 
d="M162 1397h358q225 0 344 -97.5t119 -263.5q0 -242 -266 -340q69 -33 186 -213l316 -483h-127l-244 383q-122 192 -190 239.5t-199 47.5h-189v-670h-108v1397zM270 1307v-547h232q177 0 270.5 71.5t93.5 202.5q0 129 -95 201t-273 72h-228z" />
    <glyph glyph-name="S" unicode="S" horiz-adv-x="961" 
d="M819 1327v-119q-182 107 -313 107q-126 0 -210.5 -76.5t-84.5 -189.5q0 -81 50 -146t209 -125t232 -100t124 -116t51 -197q0 -161 -118 -272t-288 -111q-174 0 -358 122v127q203 -149 352 -149q124 0 209.5 80.5t85.5 197.5q0 89 -53 160.5t-215 133.5t-231.5 100
t-118 108.5t-48.5 181.5q0 154 118 262.5t284 108.5q163 0 323 -88z" />
    <glyph glyph-name="T" unicode="T" horiz-adv-x="1174" 
d="M1165 1397v-90h-524v-1307h-109v1307h-524v90h1157z" />
    <glyph glyph-name="U" unicode="U" horiz-adv-x="1430" 
d="M1192 1397h108v-762q0 -313 -163 -483t-422 -170q-258 0 -421 168t-163 460v787h109v-783q0 -250 132.5 -391t342.5 -141q212 0 344.5 142.5t132.5 404.5v768z" />
    <glyph glyph-name="V" unicode="V" horiz-adv-x="1217" 
d="M1210 1397l-585 -1411h-31l-588 1411h109l495 -1182l492 1182h108z" />
    <glyph glyph-name="W" unicode="W" horiz-adv-x="2111" 
d="M1057 1165l-469 -1179h-29l-561 1411h111l462 -1159l469 1159h33l467 -1159l463 1159h111l-562 -1411h-26z" />
    <glyph glyph-name="X" unicode="X" horiz-adv-x="1409" 
d="M705 795l530 602h139l-600 -682l635 -715h-139l-565 639l-566 -639h-139l633 715l-600 682h139z" />
    <glyph glyph-name="Y" unicode="Y" horiz-adv-x="1194" 
d="M1194 1397l-543 -647v-750h-108v750l-543 647h131l467 -553l465 553h131z" />
    <glyph glyph-name="Z" unicode="Z" horiz-adv-x="1300" 
d="M1233 1397l10 -39l-1046 -1268h1054v-90h-1222l-11 31l1047 1276h-999v90h1167z" />
    <glyph glyph-name="bracketleft" unicode="[" horiz-adv-x="618" 
d="M240 1300v-1654h364v-97h-463v1848h463v-97h-364z" />
    <glyph glyph-name="backslash" unicode="\" horiz-adv-x="575" 
d="M475 -18l-450 1433h96l448 -1433h-94z" />
    <glyph glyph-name="bracketright" unicode="]" horiz-adv-x="618" 
d="M379 -354v1654h-365v97h463v-1848h-463v97h365z" />
    <glyph glyph-name="asciicircum" unicode="^" horiz-adv-x="1352" 
d="M676 1415l448 -536l-65 -54l-383 461l-385 -461l-64 54z" />
    <glyph glyph-name="underscore" unicode="_" horiz-adv-x="1024" 
d="M-12 -154h1048v-102h-1048v102z" />
    <glyph glyph-name="grave" unicode="`" horiz-adv-x="682" 
d="M158 1386h166l213 -319h-68z" />
    <glyph glyph-name="a" unicode="a" horiz-adv-x="874" 
d="M862 160v-82q-127 -96 -186 -96q-34 0 -47 22.5t-19 91.5q-145 -114 -288 -114q-104 0 -176 68t-72 165q0 150 139 236.5t397 99.5v117q0 188 -204 188q-130 0 -281 -117v101q156 98 297 98q125 0 206 -61.5t81 -178.5v-573q0 -47 22 -47q28 0 131 82zM610 182v287
q-189 7 -313.5 -66.5t-124.5 -187.5q0 -64 52 -108t130 -44q126 0 256 119z" />
    <glyph glyph-name="b" unicode="b" horiz-adv-x="1044" 
d="M127 51v1346h98v-609q147 150 332 150q180 0 295 -125.5t115 -323.5q0 -230 -140.5 -368.5t-373.5 -138.5q-153 0 -326 69zM225 678v-557q114 -43 226 -43q178 0 294.5 114.5t116.5 290.5q0 163 -90 268t-227 105q-164 0 -320 -178z" />
    <glyph glyph-name="c" unicode="c" horiz-adv-x="854" 
d="M776 893v-109q-132 58 -239 58q-154 0 -250.5 -107t-96.5 -278q0 -174 96.5 -276.5t258.5 -102.5q118 0 248 53v-102q-138 -47 -256 -47q-202 0 -326.5 128t-124.5 336q0 217 125.5 354.5t320.5 137.5q107 0 244 -45z" />
    <glyph glyph-name="d" unicode="d" horiz-adv-x="1044" 
d="M920 1397v-1397h-99v72q-126 -90 -272 -90q-196 0 -330.5 138.5t-134.5 340.5q0 205 132.5 341t332.5 136q127 0 272 -74v533h99zM821 162v594q-132 86 -268 86q-159 0 -262 -105.5t-103 -269.5q0 -167 110 -278t275 -111q128 0 248 84z" />
    <glyph glyph-name="e" unicode="e" horiz-adv-x="981" 
d="M911 494h-725q-3 -24 -3 -48q0 -154 110 -261t260 -107q175 0 342 137v-111q-158 -122 -354 -122q-199 0 -329 138t-130 351q0 202 120 334.5t302 132.5q171 0 289 -119.5t118 -324.5zM199 573h596q-52 269 -291 269q-113 0 -195.5 -70.5t-109.5 -198.5z" />
    <glyph glyph-name="f" unicode="f" horiz-adv-x="492" 
d="M680 1376v-92q-99 35 -166 35q-223 0 -223 -285v-114h178v-80h-178v-840h-98v840h-170v80h170v151q0 159 92.5 251.5t226.5 92.5q73 0 168 -39z" />
    <glyph glyph-name="g" unicode="g" horiz-adv-x="874" 
d="M854 920v-80h-209q127 -116 127 -244q0 -115 -49.5 -182t-118 -97.5t-182.5 -60t-143 -55.5t-29 -60q0 -40 37.5 -64t233 -35t263.5 -75t68 -170q0 -125 -109 -196.5t-303 -71.5q-193 0 -298 67.5t-105 178.5q0 180 268 223v4q-149 35 -149 131q0 97 184 150v4
q-121 36 -183.5 119.5t-62.5 185.5q0 145 101 236.5t290 91.5h369zM432 348q101 0 173.5 72.5t72.5 173.5t-72.5 172.5t-175.5 71.5q-102 0 -172 -70t-70 -170q0 -104 71 -177t173 -73zM446 -389q143 0 227.5 49t84.5 129q0 162 -293 162q-334 0 -334 -170t315 -170z" />
    <glyph glyph-name="h" unicode="h" 
d="M225 1397v-637h4q115 178 303 178q156 0 249 -100t93 -275v-563h-98v524q0 318 -250 318q-179 0 -301 -197v-645h-98v1397h98z" />
    <glyph glyph-name="i" unicode="i" horiz-adv-x="385" 
d="M242 1397v-168h-99v168h99zM242 920v-920h-99v920h99z" />
    <glyph glyph-name="j" unicode="j" horiz-adv-x="385" 
d="M238 1397v-168h-99v168h99zM238 920v-1022q0 -173 -73 -271t-200 -98l-22 84q105 2 150.5 69t45.5 218v1020h99z" />
    <glyph glyph-name="k" unicode="k" horiz-adv-x="874" 
d="M219 1397v-1397h-98v1397h98zM870 920l-503 -437l581 -483h-135l-580 483l508 437h129z" />
    <glyph glyph-name="l" unicode="l" horiz-adv-x="385" 
d="M242 1397v-1397h-99v1397h99z" />
    <glyph glyph-name="m" unicode="m" horiz-adv-x="1579" 
d="M221 920v-162h4q112 180 293 180q211 0 297 -221q130 221 320 221q143 0 231 -102t88 -271v-565h-98v522q0 149 -63 234.5t-177 85.5q-85 0 -148 -51t-130 -164v-627h-99v524q0 153 -65.5 235.5t-175.5 82.5q-160 0 -277 -197v-645h-98v920h98z" />
    <glyph glyph-name="n" unicode="n" 
d="M225 920v-160h4q115 178 303 178q156 0 249 -100t93 -277v-561h-98v524q0 318 -250 318q-183 0 -301 -197v-645h-98v920h98z" />
    <glyph glyph-name="o" unicode="o" horiz-adv-x="1110" 
d="M555 938q200 0 333.5 -137t133.5 -342q0 -204 -133.5 -340.5t-333.5 -136.5t-334.5 136.5t-134.5 340.5q0 205 134.5 342t334.5 137zM555 78q155 0 259 108.5t104 272.5q0 163 -104.5 273t-258.5 110q-156 0 -260.5 -109t-104.5 -274q0 -164 104.5 -272.5t260.5 -108.5z
" />
    <glyph glyph-name="p" unicode="p" horiz-adv-x="1044" 
d="M227 920v-52q139 70 277 70q196 0 325 -135t129 -340q0 -202 -133 -341.5t-325 -139.5q-133 0 -273 69v-522h-98v1391h98zM227 774v-627q125 -69 254 -69q165 0 267 104t102 273q0 168 -108 277.5t-273 109.5q-118 0 -242 -68z" />
    <glyph glyph-name="q" unicode="q" horiz-adv-x="1044" 
d="M915 920v-1391h-98v524q-154 -71 -301 -71q-193 0 -316.5 129t-123.5 331q0 213 130 354.5t324 141.5q141 0 287 -82v64h98zM817 152v608q-132 82 -266 82q-158 0 -264.5 -117t-106.5 -291q0 -164 98 -263t259 -99q141 0 280 80z" />
    <glyph glyph-name="r" unicode="r" horiz-adv-x="682" 
d="M764 829l-57 -92q-115 105 -185 105q-138 0 -295 -264v-578h-98v920h98v-242h4q165 260 322 260q90 0 211 -109z" />
    <glyph glyph-name="s" unicode="s" horiz-adv-x="725" 
d="M633 860v-106q-140 94 -252 94q-83 0 -140 -45t-57 -111q0 -47 34.5 -86.5t191 -99.5t204.5 -125t48 -145q0 -107 -87 -180.5t-215 -73.5q-139 0 -276 84v96q163 -84 289 -84q85 0 139.5 45t54.5 115q0 48 -35.5 88.5t-192 102.5t-203 122.5t-46.5 134.5
q0 105 86.5 178.5t210.5 73.5q113 0 246 -78z" />
    <glyph glyph-name="t" unicode="t" horiz-adv-x="618" 
d="M307 1225v-305h258v-80h-258v-547q0 -132 21.5 -173.5t115.5 -41.5q72 0 168 45v-94q-97 -47 -190 -47q-91 0 -152 52t-61 144v662h-248v80h248v219l67 86h31z" />
    <glyph glyph-name="u" unicode="u" 
d="M776 0v152h-4q-64 -92 -131.5 -131t-171.5 -39q-148 0 -245 96t-97 272v570h98v-568q0 -128 70 -201t182 -73q96 0 163.5 44t135.5 152v646h98v-920h-98z" />
    <glyph glyph-name="v" unicode="v" horiz-adv-x="874" 
d="M874 920l-395 -938h-61l-418 938h100l346 -775l332 775h96z" />
    <glyph glyph-name="w" unicode="w" horiz-adv-x="1450" 
d="M1450 920l-397 -938h-47l-283 747l-285 -747h-45l-393 938h96l314 -750l288 750h54l280 -750l320 750h98z" />
    <glyph glyph-name="x" unicode="x" horiz-adv-x="981" 
d="M500 403l-361 -403h-127l420 471l-420 449h127l361 -381l360 381h127l-422 -449l422 -471h-127z" />
    <glyph glyph-name="y" unicode="y" horiz-adv-x="854" 
d="M866 920l-688 -1391h-100l321 649l-387 742h103l334 -644l317 644h100z" />
    <glyph glyph-name="z" unicode="z" horiz-adv-x="811" 
d="M780 920l8 -31l-604 -799h604v-90h-757l-11 31l609 798h-570v91h721z" />
    <glyph glyph-name="braceleft" unicode="{" horiz-adv-x="682" 
d="M100 397v131q103 2 148 76t45 260v199q0 351 293 334v-111q-119 0 -149.5 -50.5t-30.5 -172.5v-199q0 -330 -199 -401q199 -71 199 -402v-198q0 -122 30.5 -172.5t149.5 -50.5v-111q-293 -17 -293 334v198q0 187 -45 261t-148 75z" />
    <glyph glyph-name="bar" unicode="|" horiz-adv-x="455" 
d="M176 1397h98v-1868h-98v1868z" />
    <glyph glyph-name="braceright" unicode="}" horiz-adv-x="682" 
d="M582 528v-131q-103 -1 -148 -75t-45 -261v-198q0 -351 -293 -334v111q119 0 149.5 50.5t30.5 172.5v198q0 331 199 402q-199 71 -199 401v199q0 122 -30.5 172.5t-149.5 50.5v111q293 17 293 -334v-199q0 -186 45 -260t148 -76z" />
    <glyph glyph-name="asciitilde" unicode="~" horiz-adv-x="1352" 
d="M137 596v111q166 120 287 120q79 0 261 -80.5t243 -80.5q63 0 126 33t158 102v-111q-165 -121 -280 -121q-82 0 -259 81t-247 81q-64 0 -121 -26.5t-168 -108.5z" />
    <glyph glyph-name="nonbreakingspace" unicode="&#xa0;" horiz-adv-x="569" 
 />
    <glyph glyph-name="exclamdown" unicode="&#xa1;" horiz-adv-x="362" 
d="M115 745v199h133v-199h-133zM115 -453l35 1004h63l35 -1004h-133z" />
    <glyph glyph-name="cent" unicode="&#xa2;" horiz-adv-x="854" 
d="M840 1307l-138 -389q44 -13 70 -25v-109q-56 29 -102 41l-256 -727q61 -20 133 -20q127 0 246 55v-96q-118 -56 -249 -56q-77 0 -163 19l-139 -387h-90l151 424q-217 126 -217 403q0 232 126.5 365t335.5 133q35 0 70 -4l134 373h88zM336 137l254 705h-49
q-156 0 -253.5 -104.5t-97.5 -282.5q0 -202 146 -318z" />
    <glyph glyph-name="sterling" unicode="&#xa3;" horiz-adv-x="1130" 
d="M1038 1397l49 -97q-63 17 -110 17q-163 0 -280 -142.5t-205 -449.5h217v-96h-246l-137 -520q149 14 213 14q90 0 203.5 -21.5t156.5 -21.5q103 0 203 55v-108q-90 -45 -197 -45q-38 0 -169.5 21.5t-221.5 21.5q-138 0 -321 -35l172 639h-172v96h198q190 690 549 690
q50 0 98 -18z" />
    <glyph glyph-name="currency" unicode="&#xa4;" horiz-adv-x="1139" 
d="M291 1042q127 99 276 99q150 0 279 -99l129 129l65 -65l-129 -129q99 -124 99 -277q0 -152 -99 -278l129 -129l-65 -66l-129 129q-124 -98 -279 -98q-154 0 -276 98l-129 -129l-66 66l129 129q-98 129 -98 278q0 154 98 277l-129 129l66 65zM911 700q0 142 -100.5 242
t-243.5 100q-142 0 -242 -99.5t-100 -242.5q0 -142 100 -243t242 -101t243 101t101 243z" />
    <glyph glyph-name="yen" unicode="&#xa5;" horiz-adv-x="1139" 
d="M4 1466h148l423 -725l418 725h142l-430 -725h366v-96h-434v-156h434v-96h-434v-393h-131v393h-438v96h438v156h-438v96h370z" />
    <glyph glyph-name="brokenbar" unicode="&#xa6;" horiz-adv-x="455" 
d="M176 1397h98v-684h-98v684zM176 346h98v-817h-98v817z" />
    <glyph glyph-name="section" unicode="&#xa7;" horiz-adv-x="811" 
d="M690 1190h-104q-31 135 -176 135q-78 0 -133.5 -51t-55.5 -123q0 -64 42.5 -136t218.5 -225t226 -243t50 -172q0 -90 -42 -165t-130 -167q100 -114 100 -244q0 -121 -80 -195.5t-211 -74.5q-108 0 -183.5 58.5t-88.5 162.5h102q29 -131 174 -131q83 0 138 51.5t55 128.5
q0 60 -41.5 128.5t-218 221t-228 245t-51.5 177.5q0 156 172 326q-102 129 -102 248t81 194.5t210 75.5q111 0 186.5 -60.5t89.5 -164.5zM524 109q140 129 140 258q0 73 -45 144t-330 323q-131 -126 -131 -261q0 -64 37 -132.5t162 -179t167 -152.5z" />
    <glyph glyph-name="dieresis" unicode="&#xa8;" horiz-adv-x="682" 
d="M432 1212q0 37 27 64t63 27q37 0 63.5 -27t26.5 -64q0 -36 -26.5 -63t-63.5 -27q-36 0 -63 27t-27 63zM70 1212q0 37 26.5 64t63.5 27q36 0 63 -27t27 -64q0 -36 -27 -63t-63 -27q-37 0 -63.5 27t-26.5 63z" />
    <glyph glyph-name="copyright" unicode="&#xa9;" horiz-adv-x="1638" 
d="M55 727q0 315 224.5 539.5t539.5 224.5t539.5 -224.5t224.5 -539.5t-224.5 -539.5t-539.5 -224.5t-539.5 224.5t-224.5 539.5zM1487 727q0 275 -196.5 471.5t-471.5 196.5t-471 -196.5t-196 -471.5t196 -471.5t471 -196.5t471.5 196.5t196.5 471.5zM1151 920l-96 -25
q-72 166 -228 166q-122 0 -202 -87t-80 -229q0 -164 75 -264t197 -100q183 0 252 205l90 -33q-33 -121 -124.5 -191.5t-211.5 -70.5q-165 0 -274 124.5t-109 313.5q0 178 108 297t281 119q211 0 322 -225z" />
    <glyph glyph-name="ordfeminine" unicode="&#xaa;" horiz-adv-x="575" 
d="M573 971v-74q-94 -59 -131 -59q-47 0 -55 59q-88 -59 -172 -59q-72 0 -122 42t-50 103q0 87 88.5 140.5t255.5 62.5v63q0 103 -119 103q-79 0 -192 -78v80q104 61 203 61q92 0 143 -42.5t51 -115.5v-303q0 -41 19 -41q3 0 81 58zM387 1126q-120 0 -188 -39t-68 -106
q0 -36 29 -59t76 -23q72 0 151 66v161z" />
    <glyph glyph-name="guillemotleft" unicode="&#xab;" horiz-adv-x="1024" 
d="M600 473l385 -459h-123l-387 459l387 459h123zM164 473l385 -459h-123l-387 459l387 459h123z" />
    <glyph glyph-name="logicalnot" unicode="&#xac;" horiz-adv-x="1352" 
d="M139 989h1073v-581h-90v491h-983v90z" />
    <glyph glyph-name="softhyphen" unicode="&#xad;" horiz-adv-x="641" 
d="M563 510v-96h-485v96h485z" />
    <glyph glyph-name="registered" unicode="&#xae;" horiz-adv-x="1638" 
d="M55 727q0 315 224.5 539.5t539.5 224.5t539.5 -224.5t224.5 -539.5t-224.5 -539.5t-539.5 -224.5t-539.5 224.5t-224.5 539.5zM1487 727q0 275 -196.5 471.5t-471.5 196.5t-471 -196.5t-196 -471.5t196 -471.5t471 -196.5t471.5 196.5t196.5 471.5zM512 1120h332
q127 0 199.5 -56.5t72.5 -156.5q0 -185 -219 -223q86 -52 124.5 -106t125.5 -261h-121q-107 235 -169 294t-200 59h-47v-353h-98v803zM610 750h133q139 0 197.5 33t58.5 116q0 81 -53.5 111t-187.5 30h-148v-290z" />
    <glyph glyph-name="macron" unicode="&#xaf;" horiz-adv-x="1024" 
d="M-11 1612h1047v-103h-1047v103z" />
    <glyph glyph-name="degree" unicode="&#xb0;" horiz-adv-x="819" 
d="M125 1130q0 118 83.5 201.5t201.5 83.5t202 -83.5t84 -201.5q0 -117 -84.5 -201.5t-201.5 -84.5q-118 0 -201.5 84.5t-83.5 201.5zM614 1128q0 85 -60 145t-144 60t-143.5 -60t-59.5 -145q0 -84 59.5 -143t143.5 -59t144 59.5t60 142.5z" />
    <glyph glyph-name="plusminus" unicode="&#xb1;" horiz-adv-x="1352" 
d="M139 764h492v491h90v-491h491v-90h-491v-492h-90v492h-492v90zM139 90h1073v-90h-1073v90z" />
    <glyph glyph-name="twosuperior" unicode="&#xb2;" horiz-adv-x="641" 
d="M78 1262v84q99 69 205 69q107 0 180.5 -61t73.5 -150q0 -166 -297 -461h376v-63h-555q188 158 289 296.5t101 229.5q0 63 -50.5 105.5t-124.5 42.5q-49 0 -87.5 -18t-110.5 -74z" />
    <glyph glyph-name="threesuperior" unicode="&#xb3;" horiz-adv-x="641" 
d="M98 1294v70q75 51 185 51q113 0 185.5 -52.5t72.5 -133.5q0 -119 -133 -162v-4q143 -42 143 -182q0 -90 -73.5 -150.5t-184.5 -60.5q-108 0 -203 39v65q94 -43 195 -43q83 0 132.5 40.5t49.5 107.5q0 151 -215 151v64q95 0 150 35.5t55 95.5q0 55 -50 92t-126 37
q-89 0 -183 -60z" />
    <glyph glyph-name="acute" unicode="&#xb4;" horiz-adv-x="682" 
d="M692 1386l-311 -319h-68l213 319h166z" />
    <glyph glyph-name="mu" unicode="&#xb5;" horiz-adv-x="1139" 
d="M207 920h98v-478q0 -370 270 -370q271 0 271 342v506h98v-920h-98v102q-105 -120 -273 -120q-160 0 -268 120v-464h-98v1282z" />
    <glyph glyph-name="paragraph" unicode="&#xb6;" horiz-adv-x="1331" 
d="M1272 1397v-139h-197v-1735h-127v1735h-266v-1735h-131v1033q-203 -8 -327 113t-124 309q0 194 132.5 306.5t347.5 112.5h692z" />
    <glyph glyph-name="periodcentered" unicode="&#xb7;" horiz-adv-x="683" 
d="M726 700q0 -36 -26.5 -62.5t-62.5 -26.5q-37 0 -63 26.5t-26 62.5q0 37 26 63t63 26q36 0 62.5 -26t26.5 -63z" />
    <glyph glyph-name="cedilla" unicode="&#xb8;" horiz-adv-x="682" 
d="M406 16l-25 -88q127 -22 127 -129q0 -73 -55.5 -115.5t-146.5 -42.5q-43 0 -89 11l10 65q39 -3 68 -3q133 0 133 79q0 77 -127 80l43 143h62z" />
    <glyph glyph-name="onesuperior" unicode="&#xb9;" horiz-adv-x="641" 
d="M362 1407v-727h-86v727h86z" />
    <glyph glyph-name="ordmasculine" unicode="&#xba;" horiz-adv-x="725" 
d="M362 1415q131 0 221.5 -84.5t90.5 -204.5q0 -129 -86 -208.5t-226 -79.5q-134 0 -222.5 82t-88.5 206q0 126 87.5 207.5t223.5 81.5zM362 905q97 0 158.5 62.5t61.5 158.5q0 95 -63 158.5t-157 63.5q-95 0 -157 -62.5t-62 -159.5q0 -98 61 -159.5t158 -61.5z" />
    <glyph glyph-name="guillemotright" unicode="&#xbb;" horiz-adv-x="1024" 
d="M860 473l-385 459h123l387 -459l-387 -459h-123zM424 473l-385 459h123l387 -459l-387 -459h-123z" />
    <glyph glyph-name="onequarter" unicode="&#xbc;" horiz-adv-x="1706" 
d="M374 1407v-727h-86v727h86zM208 -55h-80l1077 1470h80zM1299 336h117v-58h-117v-274h-84v274h-376v25l419 436h41v-403zM1215 604l-260 -268h260v268z" />
    <glyph glyph-name="onehalf" unicode="&#xbd;" horiz-adv-x="1706" 
d="M374 1407v-727h-86v727h86zM208 -55h-80l1077 1470h80zM990 586v84q99 69 205 69q107 0 180.5 -61t73.5 -150q0 -166 -297 -461h376v-63h-555q188 158 289 296.5t101 229.5q0 63 -50.5 105.5t-124.5 42.5q-49 0 -87.5 -18t-110.5 -74z" />
    <glyph glyph-name="threequarters" unicode="&#xbe;" horiz-adv-x="1706" 
d="M142 1294v70q75 51 185 51q113 0 185.5 -52.5t72.5 -133.5q0 -119 -133 -162v-4q143 -42 143 -182q0 -90 -73.5 -150.5t-184.5 -60.5q-108 0 -203 39v65q94 -43 195 -43q83 0 132.5 40.5t49.5 107.5q0 151 -215 151v64q95 0 150 35.5t55 95.5q0 55 -50 92t-126 37
q-89 0 -183 -60zM312 -55h-80l1077 1470h80zM1407 336h117v-58h-117v-274h-84v274h-376v25l419 436h41v-403zM1323 604l-260 -268h260v268z" />
    <glyph glyph-name="questiondown" unicode="&#xbf;" horiz-adv-x="575" 
d="M231 745v199h134v-199h-134zM487 -274l-47 -160q-71 -37 -139 -37q-114 0 -185 80t-71 211q0 72 26.5 153.5t113.5 205.5t105.5 175t18.5 95q0 62 -39 129l37 28q80 -91 80 -188q0 -46 -18.5 -102.5t-97 -182t-100 -195t-21.5 -128.5q0 -81 44.5 -137t108.5 -56
q98 0 164 109h20z" />
    <glyph glyph-name="Agrave" unicode="&#xc0;" horiz-adv-x="1366" 
d="M713 1407l645 -1407h-113l-221 483h-682l-221 -483h-113l645 1407h60zM983 573l-301 658l-299 -658h600zM400 1833h166l213 -319h-68z" />
    <glyph glyph-name="Aacute" unicode="&#xc1;" horiz-adv-x="1366" 
d="M713 1407l645 -1407h-113l-221 483h-682l-221 -483h-113l645 1407h60zM983 573l-301 658l-299 -658h600zM973 1833l-311 -319h-68l213 319h166z" />
    <glyph glyph-name="Acircumflex" unicode="&#xc2;" horiz-adv-x="1366" 
d="M713 1407l645 -1407h-113l-221 483h-682l-221 -483h-113l645 1407h60zM983 573l-301 658l-299 -658h600zM748 1831l217 -335h-78l-203 223l-205 -223h-78l222 335h125z" />
    <glyph glyph-name="Atilde" unicode="&#xc3;" horiz-adv-x="1366" 
d="M713 1407l645 -1407h-113l-221 483h-682l-221 -483h-113l645 1407h60zM983 573l-301 658l-299 -658h600zM1018 1764q5 -84 -44.5 -140.5t-123.5 -56.5q-50 0 -177.5 50.5t-172.5 50.5q-74 0 -86 -99h-66q0 87 44.5 141t123.5 54q66 0 185 -50t163 -50q79 0 92 100h62z
" />
    <glyph glyph-name="Adieresis" unicode="&#xc4;" horiz-adv-x="1366" 
d="M713 1407l645 -1407h-113l-221 483h-682l-221 -483h-113l645 1407h60zM983 573l-301 658l-299 -658h600zM774 1659q0 37 27 64t63 27q37 0 63.5 -27t26.5 -64q0 -36 -26.5 -63t-63.5 -27q-36 0 -63 27t-27 63zM412 1659q0 37 26.5 64t63.5 27q36 0 63 -27t27 -64
q0 -36 -27 -63t-63 -27q-37 0 -63.5 27t-26.5 63z" />
    <glyph glyph-name="Aring" unicode="&#xc5;" horiz-adv-x="1366" 
d="M713 1407l645 -1407h-113l-221 483h-682l-221 -483h-113l645 1407h60zM983 573l-301 658l-299 -658h600zM504 1662q0 74 52 125.5t126 51.5q73 0 124.5 -51.5t51.5 -125.5q0 -73 -51.5 -125.5t-124.5 -52.5t-125.5 52.5t-52.5 125.5zM803 1662q0 51 -35.5 86t-85.5 35
q-51 0 -87 -35t-36 -86q0 -50 36.5 -86t86.5 -36t85.5 36t35.5 86z" />
    <glyph glyph-name="AE" unicode="&#xc6;" horiz-adv-x="1772" 
d="M1675 1397v-90h-657v-557h643v-91h-643v-569h676v-90h-785v659h-409l-410 -659h-119l873 1397h831zM559 750h350v571z" />
    <glyph glyph-name="Ccedilla" unicode="&#xc7;" horiz-adv-x="1386" 
d="M1339 225v-112q-248 -131 -495 -131q-34 0 -47 4l-17 -58q127 -22 127 -129q0 -73 -55.5 -115.5t-145.5 -42.5q-44 0 -90 11l11 65q38 -3 67 -3q133 0 133 79q0 77 -127 80l35 117q-290 40 -462.5 238t-172.5 468q0 307 217 513t517 206q236 0 491 -117v-118
q-254 135 -498 135q-260 0 -435 -177t-175 -442q0 -268 176 -441t449 -173q228 0 497 143z" />
    <glyph glyph-name="Egrave" unicode="&#xc8;" 
d="M926 1397v-90h-654v-559h637v-91h-637v-567h670v-90h-778v1397h762zM319 1833h166l213 -319h-68z" />
    <glyph glyph-name="Eacute" unicode="&#xc9;" 
d="M926 1397v-90h-654v-559h637v-91h-637v-567h670v-90h-778v1397h762zM854 1833l-311 -319h-68l213 319h166z" />
    <glyph glyph-name="Ecircumflex" unicode="&#xca;" 
d="M926 1397v-90h-654v-559h637v-91h-637v-567h670v-90h-778v1397h762zM568 1831l217 -335h-78l-203 223l-205 -223h-78l222 335h125z" />
    <glyph glyph-name="Edieresis" unicode="&#xcb;" 
d="M926 1397v-90h-654v-559h637v-91h-637v-567h670v-90h-778v1397h762zM594 1659q0 37 27 64t63 27q37 0 63.5 -27t26.5 -64q0 -36 -26.5 -63t-63.5 -27q-36 0 -63 27t-27 63zM232 1659q0 37 26.5 64t63.5 27q36 0 63 -27t27 -64q0 -36 -27 -63t-63 -27q-37 0 -63.5 27
t-26.5 63z" />
    <glyph glyph-name="Igrave" unicode="&#xcc;" horiz-adv-x="426" 
d="M268 1397v-1397h-108v1397h108zM-46 1833h166l213 -319h-68z" />
    <glyph glyph-name="Iacute" unicode="&#xcd;" horiz-adv-x="426" 
d="M268 1397v-1397h-108v1397h108zM570 1833l-311 -319h-68l213 319h166z" />
    <glyph glyph-name="Icircumflex" unicode="&#xce;" horiz-adv-x="426" 
d="M268 1397v-1397h-108v1397h108zM284 1831l217 -335h-78l-203 223l-205 -223h-78l222 335h125z" />
    <glyph glyph-name="Idieresis" unicode="&#xcf;" horiz-adv-x="426" 
d="M268 1397v-1397h-108v1397h108zM310 1659q0 37 27 64t63 27q37 0 63.5 -27t26.5 -64q0 -36 -26.5 -63t-63.5 -27q-36 0 -63 27t-27 63zM-52 1659q0 37 26.5 64t63.5 27q36 0 63 -27t27 -64q0 -36 -27 -63t-63 -27q-37 0 -63.5 27t-26.5 63z" />
    <glyph glyph-name="Eth" unicode="&#xd0;" horiz-adv-x="1516" 
d="M162 1397h489q371 0 566.5 -195t195.5 -504q0 -303 -193.5 -500.5t-549.5 -197.5h-508v655h-209v90h209v652zM270 1307v-562h453v-90h-453v-565h394q271 0 451.5 166.5t180.5 441.5q0 269 -178 439t-461 170h-387z" />
    <glyph glyph-name="Ntilde" unicode="&#xd1;" horiz-adv-x="1579" 
d="M1419 1397v-1397h-90l-1061 1221v-1221h-108v1397h92l1059 -1221v1221h108zM1125 1764q5 -84 -44.5 -140.5t-123.5 -56.5q-50 0 -177.5 50.5t-172.5 50.5q-74 0 -86 -99h-66q0 87 44.5 141t123.5 54q66 0 185 -50t163 -50q79 0 92 100h62z" />
    <glyph glyph-name="Ograve" unicode="&#xd2;" horiz-adv-x="1686" 
d="M842 1415q310 0 525.5 -208.5t215.5 -508.5q0 -299 -215.5 -507.5t-525.5 -208.5q-309 0 -523.5 208.5t-214.5 507.5q0 300 214.5 508.5t523.5 208.5zM846 82q261 0 440.5 178.5t179.5 437.5q0 260 -179.5 438.5t-440.5 178.5q-262 0 -443.5 -178.5t-181.5 -438.5
q0 -259 181.5 -437.5t443.5 -178.5zM659 1833h166l213 -319h-68z" />
    <glyph glyph-name="Oacute" unicode="&#xd3;" horiz-adv-x="1686" 
d="M842 1415q310 0 525.5 -208.5t215.5 -508.5q0 -299 -215.5 -507.5t-525.5 -208.5q-309 0 -523.5 208.5t-214.5 507.5q0 300 214.5 508.5t523.5 208.5zM846 82q261 0 440.5 178.5t179.5 437.5q0 260 -179.5 438.5t-440.5 178.5q-262 0 -443.5 -178.5t-181.5 -438.5
q0 -259 181.5 -437.5t443.5 -178.5zM1194 1833l-311 -319h-68l213 319h166z" />
    <glyph glyph-name="Ocircumflex" unicode="&#xd4;" horiz-adv-x="1686" 
d="M842 1415q310 0 525.5 -208.5t215.5 -508.5q0 -299 -215.5 -507.5t-525.5 -208.5q-309 0 -523.5 208.5t-214.5 507.5q0 300 214.5 508.5t523.5 208.5zM846 82q261 0 440.5 178.5t179.5 437.5q0 260 -179.5 438.5t-440.5 178.5q-262 0 -443.5 -178.5t-181.5 -438.5
q0 -259 181.5 -437.5t443.5 -178.5zM908 1831l217 -335h-78l-203 223l-205 -223h-78l222 335h125z" />
    <glyph glyph-name="Otilde" unicode="&#xd5;" horiz-adv-x="1686" 
d="M842 1415q310 0 525.5 -208.5t215.5 -508.5q0 -299 -215.5 -507.5t-525.5 -208.5q-309 0 -523.5 208.5t-214.5 507.5q0 300 214.5 508.5t523.5 208.5zM846 82q261 0 440.5 178.5t179.5 437.5q0 260 -179.5 438.5t-440.5 178.5q-262 0 -443.5 -178.5t-181.5 -438.5
q0 -259 181.5 -437.5t443.5 -178.5zM1178 1764q5 -84 -44.5 -140.5t-123.5 -56.5q-50 0 -177.5 50.5t-172.5 50.5q-74 0 -86 -99h-66q0 87 44.5 141t123.5 54q66 0 185 -50t163 -50q79 0 92 100h62z" />
    <glyph glyph-name="Odieresis" unicode="&#xd6;" horiz-adv-x="1686" 
d="M842 1415q310 0 525.5 -208.5t215.5 -508.5q0 -299 -215.5 -507.5t-525.5 -208.5q-309 0 -523.5 208.5t-214.5 507.5q0 300 214.5 508.5t523.5 208.5zM846 82q261 0 440.5 178.5t179.5 437.5q0 260 -179.5 438.5t-440.5 178.5q-262 0 -443.5 -178.5t-181.5 -438.5
q0 -259 181.5 -437.5t443.5 -178.5zM934 1659q0 37 27 64t63 27q37 0 63.5 -27t26.5 -64q0 -36 -26.5 -63t-63.5 -27q-36 0 -63 27t-27 63zM572 1659q0 37 26.5 64t63.5 27q36 0 63 -27t27 -64q0 -36 -27 -63t-63 -27q-37 0 -63.5 27t-26.5 63z" />
    <glyph glyph-name="multiply" unicode="&#xd7;" horiz-adv-x="1352" 
d="M264 1067l66 66l346 -347l346 347l65 -66l-346 -346l346 -346l-65 -66l-346 346l-346 -346l-66 66l346 346z" />
    <glyph glyph-name="Oslash" unicode="&#xd8;" horiz-adv-x="1686" 
d="M399 121l-129 -144l-77 60l131 145q-220 218 -220 516q0 300 214.5 508.5t523.5 208.5q255 0 461 -151l129 143l75 -51l-137 -152q213 -209 213 -506q0 -299 -215.5 -507.5t-525.5 -208.5q-237 0 -443 139zM399 264l832 922q-160 129 -385 129q-262 0 -443.5 -178.5
t-181.5 -438.5q0 -253 178 -434zM1300 1124l-829 -923q165 -119 375 -119q261 0 440.5 178.5t179.5 437.5q0 237 -166 426z" />
    <glyph glyph-name="Ugrave" unicode="&#xd9;" horiz-adv-x="1430" 
d="M1192 1397h108v-762q0 -313 -163 -483t-422 -170q-258 0 -421 168t-163 460v787h109v-783q0 -250 132.5 -391t342.5 -141q212 0 344.5 142.5t132.5 404.5v768zM532 1833h166l213 -319h-68z" />
    <glyph glyph-name="Uacute" unicode="&#xda;" horiz-adv-x="1430" 
d="M1192 1397h108v-762q0 -313 -163 -483t-422 -170q-258 0 -421 168t-163 460v787h109v-783q0 -250 132.5 -391t342.5 -141q212 0 344.5 142.5t132.5 404.5v768zM1067 1833l-311 -319h-68l213 319h166z" />
    <glyph glyph-name="Ucircumflex" unicode="&#xdb;" horiz-adv-x="1430" 
d="M1192 1397h108v-762q0 -313 -163 -483t-422 -170q-258 0 -421 168t-163 460v787h109v-783q0 -250 132.5 -391t342.5 -141q212 0 344.5 142.5t132.5 404.5v768zM781 1831l217 -335h-78l-203 223l-205 -223h-78l222 335h125z" />
    <glyph glyph-name="Udieresis" unicode="&#xdc;" horiz-adv-x="1430" 
d="M1192 1397h108v-762q0 -313 -163 -483t-422 -170q-258 0 -421 168t-163 460v787h109v-783q0 -250 132.5 -391t342.5 -141q212 0 344.5 142.5t132.5 404.5v768zM807 1659q0 37 27 64t63 27q37 0 63.5 -27t26.5 -64q0 -36 -26.5 -63t-63.5 -27q-36 0 -63 27t-27 63z
M445 1659q0 37 26.5 64t63.5 27q36 0 63 -27t27 -64q0 -36 -27 -63t-63 -27q-37 0 -63.5 27t-26.5 63z" />
    <glyph glyph-name="Yacute" unicode="&#xdd;" horiz-adv-x="1194" 
d="M1194 1397l-543 -647v-750h-108v750l-543 647h131l467 -553l465 553h131zM948 1833l-311 -319h-68l213 319h166z" />
    <glyph glyph-name="Thorn" unicode="&#xde;" horiz-adv-x="1044" 
d="M160 1397h108v-326h277q221 0 338.5 -98.5t117.5 -270.5q0 -173 -118.5 -273.5t-347.5 -100.5h-267v-328h-108v1397zM268 981v-563h260q175 0 266 73.5t91 208.5q0 130 -89 205.5t-255 75.5h-273z" />
    <glyph glyph-name="germandbls" unicode="&#xdf;" horiz-adv-x="1024" 
d="M127 0v997q0 199 99.5 308.5t279.5 109.5q162 0 267.5 -95.5t105.5 -242.5q0 -89 -47 -176.5t-138 -124.5q246 -95 246 -370q0 -186 -104 -305t-263 -119q-60 0 -127 18v102q68 -24 123 -24q121 0 194 89t73 236q0 144 -72 230t-205 96v92q98 -6 156.5 68t58.5 182
q0 120 -73 191t-195 71q-281 0 -281 -354v-979h-98z" />
    <glyph glyph-name="agrave" unicode="&#xe0;" horiz-adv-x="874" 
d="M862 160v-82q-127 -96 -186 -96q-34 0 -47 22.5t-19 91.5q-145 -114 -288 -114q-104 0 -176 68t-72 165q0 150 139 236.5t397 99.5v117q0 188 -204 188q-130 0 -281 -117v101q156 98 297 98q125 0 206 -61.5t81 -178.5v-573q0 -47 22 -47q28 0 131 82zM610 182v287
q-189 7 -313.5 -66.5t-124.5 -187.5q0 -64 52 -108t130 -44q126 0 256 119zM178 1386h166l213 -319h-68z" />
    <glyph glyph-name="aacute" unicode="&#xe1;" horiz-adv-x="874" 
d="M862 160v-82q-127 -96 -186 -96q-34 0 -47 22.5t-19 91.5q-145 -114 -288 -114q-104 0 -176 68t-72 165q0 150 139 236.5t397 99.5v117q0 188 -204 188q-130 0 -281 -117v101q156 98 297 98q125 0 206 -61.5t81 -178.5v-573q0 -47 22 -47q28 0 131 82zM610 182v287
q-189 7 -313.5 -66.5t-124.5 -187.5q0 -64 52 -108t130 -44q126 0 256 119zM776 1386l-311 -319h-68l213 319h166z" />
    <glyph glyph-name="acircumflex" unicode="&#xe2;" horiz-adv-x="874" 
d="M862 160v-82q-127 -96 -186 -96q-34 0 -47 22.5t-19 91.5q-145 -114 -288 -114q-104 0 -176 68t-72 165q0 150 139 236.5t397 99.5v117q0 188 -204 188q-130 0 -281 -117v101q156 98 297 98q125 0 206 -61.5t81 -178.5v-573q0 -47 22 -47q28 0 131 82zM610 182v287
q-189 7 -313.5 -66.5t-124.5 -187.5q0 -64 52 -108t130 -44q126 0 256 119zM503 1384l217 -335h-78l-203 223l-205 -223h-78l222 335h125z" />
    <glyph glyph-name="atilde" unicode="&#xe3;" horiz-adv-x="874" 
d="M862 160v-82q-127 -96 -186 -96q-34 0 -47 22.5t-19 91.5q-145 -114 -288 -114q-104 0 -176 68t-72 165q0 150 139 236.5t397 99.5v117q0 188 -204 188q-130 0 -281 -117v101q156 98 297 98q125 0 206 -61.5t81 -178.5v-573q0 -47 22 -47q28 0 131 82zM610 182v287
q-189 7 -313.5 -66.5t-124.5 -187.5q0 -64 52 -108t130 -44q126 0 256 119zM772 1317q5 -84 -44.5 -140.5t-123.5 -56.5q-50 0 -177.5 50.5t-172.5 50.5q-74 0 -86 -99h-66q0 87 44.5 141t123.5 54q66 0 185 -50t163 -50q79 0 92 100h62z" />
    <glyph glyph-name="adieresis" unicode="&#xe4;" horiz-adv-x="874" 
d="M862 160v-82q-127 -96 -186 -96q-34 0 -47 22.5t-19 91.5q-145 -114 -288 -114q-104 0 -176 68t-72 165q0 150 139 236.5t397 99.5v117q0 188 -204 188q-130 0 -281 -117v101q156 98 297 98q125 0 206 -61.5t81 -178.5v-573q0 -47 22 -47q28 0 131 82zM610 182v287
q-189 7 -313.5 -66.5t-124.5 -187.5q0 -64 52 -108t130 -44q126 0 256 119zM529 1212q0 37 27 64t63 27q37 0 63.5 -27t26.5 -64q0 -36 -26.5 -63t-63.5 -27q-36 0 -63 27t-27 63zM167 1212q0 37 26.5 64t63.5 27q36 0 63 -27t27 -64q0 -36 -27 -63t-63 -27q-37 0 -63.5 27
t-26.5 63z" />
    <glyph glyph-name="aring" unicode="&#xe5;" horiz-adv-x="874" 
d="M862 160v-82q-127 -96 -186 -96q-34 0 -47 22.5t-19 91.5q-145 -114 -288 -114q-104 0 -176 68t-72 165q0 150 139 236.5t397 99.5v117q0 188 -204 188q-130 0 -281 -117v101q156 98 297 98q125 0 206 -61.5t81 -178.5v-573q0 -47 22 -47q28 0 131 82zM610 182v287
q-189 7 -313.5 -66.5t-124.5 -187.5q0 -64 52 -108t130 -44q126 0 256 119zM260 1214q0 74 52 125.5t126 51.5q73 0 124.5 -51.5t51.5 -125.5q0 -73 -51.5 -125.5t-124.5 -52.5t-125.5 52.5t-52.5 125.5zM559 1214q0 51 -35.5 86t-85.5 35q-51 0 -87 -35t-36 -86
q0 -50 36.5 -86t86.5 -36t85.5 36t35.5 86z" />
    <glyph glyph-name="ae" unicode="&#xe6;" horiz-adv-x="1366" 
d="M1290 498h-592v-121q0 -143 74.5 -221t190.5 -78q162 0 327 121v-113q-168 -104 -338 -104q-172 0 -293 143q-196 -143 -346 -143q-105 0 -175 67.5t-70 169.5q0 129 113.5 206.5t418.5 152.5v67q0 203 -184 203q-145 0 -305 -115v103q149 102 319 102q169 0 250 -141
q106 141 256 141q160 0 257 -122.5t97 -317.5zM698 578h484q-6 122 -78 193t-170 71q-97 0 -164 -72t-72 -192zM600 182v316q-438 -106 -438 -283q0 -64 49 -108t123 -44q110 0 266 119z" />
    <glyph glyph-name="ccedilla" unicode="&#xe7;" horiz-adv-x="854" 
d="M793 131v-102q-138 -47 -256 -47q-26 0 -37 4l-17 -58q127 -22 127 -129q0 -73 -55.5 -115.5t-145.5 -42.5q-44 0 -90 11l11 65q38 -3 67 -3q133 0 133 79q0 77 -127 80l35 117q-166 31 -259 154.5t-93 301.5q0 217 125.5 354.5t320.5 137.5q107 0 244 -45v-109
q-132 58 -239 58q-154 0 -250.5 -107t-96.5 -278q0 -174 96.5 -276.5t258.5 -102.5q118 0 248 53z" />
    <glyph glyph-name="egrave" unicode="&#xe8;" horiz-adv-x="981" 
d="M911 494h-725q-3 -24 -3 -48q0 -154 110 -261t260 -107q175 0 342 137v-111q-158 -122 -354 -122q-199 0 -329 138t-130 351q0 202 120 334.5t302 132.5q171 0 289 -119.5t118 -324.5zM199 573h596q-52 269 -291 269q-113 0 -195.5 -70.5t-109.5 -198.5zM307 1386h166
l213 -319h-68z" />
    <glyph glyph-name="eacute" unicode="&#xe9;" horiz-adv-x="981" 
d="M911 494h-725q-3 -24 -3 -48q0 -154 110 -261t260 -107q175 0 342 137v-111q-158 -122 -354 -122q-199 0 -329 138t-130 351q0 202 120 334.5t302 132.5q171 0 289 -119.5t118 -324.5zM199 573h596q-52 269 -291 269q-113 0 -195.5 -70.5t-109.5 -198.5zM842 1386
l-311 -319h-68l213 319h166z" />
    <glyph glyph-name="ecircumflex" unicode="&#xea;" horiz-adv-x="981" 
d="M911 494h-725q-3 -24 -3 -48q0 -154 110 -261t260 -107q175 0 342 137v-111q-158 -122 -354 -122q-199 0 -329 138t-130 351q0 202 120 334.5t302 132.5q171 0 289 -119.5t118 -324.5zM199 573h596q-52 269 -291 269q-113 0 -195.5 -70.5t-109.5 -198.5zM556 1384
l217 -335h-78l-203 223l-205 -223h-78l222 335h125z" />
    <glyph glyph-name="edieresis" unicode="&#xeb;" horiz-adv-x="981" 
d="M911 494h-725q-3 -24 -3 -48q0 -154 110 -261t260 -107q175 0 342 137v-111q-158 -122 -354 -122q-199 0 -329 138t-130 351q0 202 120 334.5t302 132.5q171 0 289 -119.5t118 -324.5zM199 573h596q-52 269 -291 269q-113 0 -195.5 -70.5t-109.5 -198.5zM582 1212
q0 37 27 64t63 27q37 0 63.5 -27t26.5 -64q0 -36 -26.5 -63t-63.5 -27q-36 0 -63 27t-27 63zM220 1212q0 37 26.5 64t63.5 27q36 0 63 -27t27 -64q0 -36 -27 -63t-63 -27q-37 0 -63.5 27t-26.5 63z" />
    <glyph glyph-name="igrave" unicode="&#xec;" horiz-adv-x="385" 
d="M242 920v-920h-99v920h99zM-68 1386h166l213 -319h-68z" />
    <glyph glyph-name="iacute" unicode="&#xed;" horiz-adv-x="385" 
d="M242 920v-920h-99v920h99zM549 1386l-311 -319h-68l213 319h166z" />
    <glyph glyph-name="icircumflex" unicode="&#xee;" horiz-adv-x="385" 
d="M242 920v-920h-99v920h99zM262 1384l217 -335h-78l-203 223l-205 -223h-78l222 335h125z" />
    <glyph glyph-name="idieresis" unicode="&#xef;" horiz-adv-x="385" 
d="M242 920v-920h-99v920h99zM288 1212q0 37 27 64t63 27q37 0 63.5 -27t26.5 -64q0 -36 -26.5 -63t-63.5 -27q-36 0 -63 27t-27 63zM-74 1212q0 37 26.5 64t63.5 27q36 0 63 -27t27 -64q0 -36 -27 -63t-63 -27q-37 0 -63.5 27t-26.5 63z" />
    <glyph glyph-name="eth" unicode="&#xf0;" horiz-adv-x="1145" 
d="M989 1329l-237 -108q321 -274 321 -709q0 -242 -138 -386t-370 -144q-206 0 -346.5 136t-140.5 335q0 206 143 345.5t354 139.5q228 0 367 -168l4 4q-76 235 -289 404l-292 -138l-31 68l256 119q-76 54 -184 96l38 74q134 -50 242 -125l272 125zM578 63
q176 0 283.5 110.5t107.5 291.5q0 173 -110 282t-286 109q-169 0 -285 -116.5t-116 -286.5q0 -168 115 -279t291 -111z" />
    <glyph glyph-name="ntilde" unicode="&#xf1;" 
d="M225 920v-160h4q115 178 303 178q156 0 249 -100t93 -277v-561h-98v524q0 318 -250 318q-183 0 -301 -197v-645h-98v920h98zM838 1317q5 -84 -44.5 -140.5t-123.5 -56.5q-50 0 -177.5 50.5t-172.5 50.5q-74 0 -86 -99h-66q0 87 44.5 141t123.5 54q66 0 185 -50t163 -50
q79 0 92 100h62z" />
    <glyph glyph-name="ograve" unicode="&#xf2;" horiz-adv-x="1110" 
d="M555 938q200 0 333.5 -137t133.5 -342q0 -204 -133.5 -340.5t-333.5 -136.5t-334.5 136.5t-134.5 340.5q0 205 134.5 342t334.5 137zM555 78q155 0 259 108.5t104 272.5q0 163 -104.5 273t-258.5 110q-156 0 -260.5 -109t-104.5 -274q0 -164 104.5 -272.5t260.5 -108.5z
M373 1386h166l213 -319h-68z" />
    <glyph glyph-name="oacute" unicode="&#xf3;" horiz-adv-x="1110" 
d="M555 938q200 0 333.5 -137t133.5 -342q0 -204 -133.5 -340.5t-333.5 -136.5t-334.5 136.5t-134.5 340.5q0 205 134.5 342t334.5 137zM555 78q155 0 259 108.5t104 272.5q0 163 -104.5 273t-258.5 110q-156 0 -260.5 -109t-104.5 -274q0 -164 104.5 -272.5t260.5 -108.5z
M907 1386l-311 -319h-68l213 319h166z" />
    <glyph glyph-name="ocircumflex" unicode="&#xf4;" horiz-adv-x="1110" 
d="M555 938q200 0 333.5 -137t133.5 -342q0 -204 -133.5 -340.5t-333.5 -136.5t-334.5 136.5t-134.5 340.5q0 205 134.5 342t334.5 137zM555 78q155 0 259 108.5t104 272.5q0 163 -104.5 273t-258.5 110q-156 0 -260.5 -109t-104.5 -274q0 -164 104.5 -272.5t260.5 -108.5z
M621 1384l217 -335h-78l-203 223l-205 -223h-78l222 335h125z" />
    <glyph glyph-name="otilde" unicode="&#xf5;" horiz-adv-x="1110" 
d="M555 938q200 0 333.5 -137t133.5 -342q0 -204 -133.5 -340.5t-333.5 -136.5t-334.5 136.5t-134.5 340.5q0 205 134.5 342t334.5 137zM555 78q155 0 259 108.5t104 272.5q0 163 -104.5 273t-258.5 110q-156 0 -260.5 -109t-104.5 -274q0 -164 104.5 -272.5t260.5 -108.5z
M891 1317q5 -84 -44.5 -140.5t-123.5 -56.5q-50 0 -177.5 50.5t-172.5 50.5q-74 0 -86 -99h-66q0 87 44.5 141t123.5 54q66 0 185 -50t163 -50q79 0 92 100h62z" />
    <glyph glyph-name="odieresis" unicode="&#xf6;" horiz-adv-x="1110" 
d="M555 938q200 0 333.5 -137t133.5 -342q0 -204 -133.5 -340.5t-333.5 -136.5t-334.5 136.5t-134.5 340.5q0 205 134.5 342t334.5 137zM555 78q155 0 259 108.5t104 272.5q0 163 -104.5 273t-258.5 110q-156 0 -260.5 -109t-104.5 -274q0 -164 104.5 -272.5t260.5 -108.5z
M647 1212q0 37 27 64t63 27q37 0 63.5 -27t26.5 -64q0 -36 -26.5 -63t-63.5 -27q-36 0 -63 27t-27 63zM285 1212q0 37 26.5 64t63.5 27q36 0 63 -27t27 -64q0 -36 -27 -63t-63 -27q-37 0 -63.5 27t-26.5 63z" />
    <glyph glyph-name="divide" unicode="&#xf7;" horiz-adv-x="1352" 
d="M756 1059q0 -34 -23.5 -57t-56.5 -23q-34 0 -57 23t-23 57q0 33 23 56.5t57 23.5q33 0 56.5 -23.5t23.5 -56.5zM139 764h1073v-90h-1073v90zM756 379q0 -34 -23.5 -57t-56.5 -23q-34 0 -57 23t-23 57t23 57t57 23q33 0 56.5 -23t23.5 -57z" />
    <glyph glyph-name="oslash" unicode="&#xf8;" horiz-adv-x="1110" 
d="M270 74l-116 -135l-68 61l119 135q-119 130 -119 324q0 205 134.5 342t334.5 137q160 0 281 -90l108 123l64 -51l-111 -127q125 -140 125 -334q0 -204 -133.5 -340.5t-333.5 -136.5q-159 0 -285 92zM272 211l496 561q-90 70 -213 70q-156 0 -260.5 -109t-104.5 -274
q0 -141 82 -248zM827 713l-489 -563q100 -72 217 -72q155 0 259 108.5t104 272.5q0 158 -91 254z" />
    <glyph glyph-name="ugrave" unicode="&#xf9;" 
d="M776 0v152h-4q-64 -92 -131.5 -131t-171.5 -39q-148 0 -245 96t-97 272v570h98v-568q0 -128 70 -201t182 -73q96 0 163.5 44t135.5 152v646h98v-920h-98zM319 1386h166l213 -319h-68z" />
    <glyph glyph-name="uacute" unicode="&#xfa;" 
d="M776 0v152h-4q-64 -92 -131.5 -131t-171.5 -39q-148 0 -245 96t-97 272v570h98v-568q0 -128 70 -201t182 -73q96 0 163.5 44t135.5 152v646h98v-920h-98zM854 1386l-311 -319h-68l213 319h166z" />
    <glyph glyph-name="ucircumflex" unicode="&#xfb;" 
d="M776 0v152h-4q-64 -92 -131.5 -131t-171.5 -39q-148 0 -245 96t-97 272v570h98v-568q0 -128 70 -201t182 -73q96 0 163.5 44t135.5 152v646h98v-920h-98zM568 1384l217 -335h-78l-203 223l-205 -223h-78l222 335h125z" />
    <glyph glyph-name="udieresis" unicode="&#xfc;" 
d="M776 0v152h-4q-64 -92 -131.5 -131t-171.5 -39q-148 0 -245 96t-97 272v570h98v-568q0 -128 70 -201t182 -73q96 0 163.5 44t135.5 152v646h98v-920h-98zM599 1212q0 37 27 64t63 27q37 0 63.5 -27t26.5 -64q0 -36 -26.5 -63t-63.5 -27q-36 0 -63 27t-27 63zM237 1212
q0 37 26.5 64t63.5 27q36 0 63 -27t27 -64q0 -36 -27 -63t-63 -27q-37 0 -63.5 27t-26.5 63z" />
    <glyph glyph-name="yacute" unicode="&#xfd;" horiz-adv-x="854" 
d="M866 920l-688 -1391h-100l321 649l-387 742h103l334 -644l317 644h100zM769 1386l-311 -319h-68l213 319h166z" />
    <glyph glyph-name="thorn" unicode="&#xfe;" horiz-adv-x="1044" 
d="M227 1397v-529q139 70 277 70q196 0 325 -135t129 -340q0 -202 -133 -341.5t-325 -139.5q-133 0 -273 69v-522h-98v1868h98zM227 774v-627q125 -69 254 -69q165 0 267 104t102 273q0 168 -108 277.5t-273 109.5q-118 0 -242 -68z" />
    <glyph glyph-name="ydieresis" unicode="&#xff;" horiz-adv-x="854" 
d="M866 920l-688 -1391h-100l321 649l-387 742h103l334 -644l317 644h100zM529 1212q0 37 27 64t63 27q37 0 63.5 -27t26.5 -64q0 -36 -26.5 -63t-63.5 -27q-36 0 -63 27t-27 63zM167 1212q0 37 26.5 64t63.5 27q36 0 63 -27t27 -64q0 -36 -27 -63t-63 -27q-37 0 -63.5 27
t-26.5 63z" />
    <glyph glyph-name="Amacron" unicode="&#x100;" horiz-adv-x="1366" 
d="M713 1407l645 -1407h-113l-221 483h-682l-221 -483h-113l645 1407h60zM983 573l-301 658l-299 -658h600zM168 1596h1029v-87h-1029v87z" />
    <glyph glyph-name="amacron" unicode="&#x101;" horiz-adv-x="874" 
d="M862 160v-82q-127 -96 -186 -96q-34 0 -47 22.5t-19 91.5q-145 -114 -288 -114q-104 0 -176 68t-72 165q0 150 139 236.5t397 99.5v117q0 188 -204 188q-130 0 -281 -117v101q156 98 297 98q125 0 206 -61.5t81 -178.5v-573q0 -47 22 -47q28 0 131 82zM610 182v287
q-189 7 -313.5 -66.5t-124.5 -187.5q0 -64 52 -108t130 -44q126 0 256 119zM-47 1128h1029v-87h-1029v87z" />
    <glyph glyph-name="Abreve" unicode="&#x102;" horiz-adv-x="1366" 
d="M713 1407l645 -1407h-113l-221 483h-682l-221 -483h-113l645 1407h60zM983 573l-301 658l-299 -658h600zM879 1693h79q-88 -184 -273 -184q-176 0 -278 184h83q65 -108 194 -108q124 0 195 108z" />
    <glyph glyph-name="abreve" unicode="&#x103;" horiz-adv-x="874" 
d="M862 160v-82q-127 -96 -186 -96q-34 0 -47 22.5t-19 91.5q-145 -114 -288 -114q-104 0 -176 68t-72 165q0 150 139 236.5t397 99.5v117q0 188 -204 188q-130 0 -281 -117v101q156 98 297 98q125 0 206 -61.5t81 -178.5v-573q0 -47 22 -47q28 0 131 82zM610 182v287
q-189 7 -313.5 -66.5t-124.5 -187.5q0 -64 52 -108t130 -44q126 0 256 119zM664 1225h79q-88 -184 -273 -184q-176 0 -278 184h83q65 -108 194 -108q124 0 195 108z" />
    <glyph glyph-name="Aogonek" unicode="&#x104;" horiz-adv-x="1366" 
d="M1399 -338q-23 -6 -44.5 -8t-39.5 -2q-46 0 -82 13.5t-60.5 36.5t-37.5 53.5t-13 64.5q0 32 9.5 61t26 53t38 43t45.5 31l-217 475h-682l-221 -483h-113l645 1407h60l645 -1407h-49q-47 -36 -63.5 -70.5t-16.5 -76.5q0 -54 33 -84.5t102 -30.5h16q9 0 19 2v-78zM682 1231
l-299 -658h600z" />
    <glyph glyph-name="aogonek" unicode="&#x105;" horiz-adv-x="874" 
d="M840 -338q-23 -6 -44.5 -8t-39.5 -2q-46 0 -82 13.5t-60.5 36.5t-37.5 53.5t-13 64.5q0 52 24.5 95t61.5 71q-18 8 -26 32t-13 78q-78 -60 -145.5 -87t-142.5 -27q-52 0 -97.5 18.5t-79 50t-52.5 74t-19 90.5q0 89 41.5 150.5t113.5 101t170 59.5t211 25v117
q0 188 -204 188q-37 0 -70.5 -6.5t-67 -21t-68.5 -36.5t-75 -53v101q42 26 80 44.5t73.5 30.5t71 17.5t72.5 5.5q44 0 94 -10.5t93 -37.5t71.5 -73.5t28.5 -118.5v-573q0 -28 5 -37.5t17 -9.5q8 0 23 7.5t33 19t37.5 26t37.5 29.5v-82l-16 -12l-48.5 -35.5t-37.5 -24.5
q-52 -38 -71 -73.5t-19 -79.5q0 -54 33 -84.5t102 -30.5h16q9 0 19 2v-78zM610 469q-94 0 -174 -16t-138.5 -47.5t-92 -79t-33.5 -111.5q0 -32 14 -60t38 -48.5t57.5 -32t72.5 -11.5q33 0 63.5 6.5t61 21t63 37t68.5 54.5v287z" />
    <glyph glyph-name="Cacute" unicode="&#x106;" horiz-adv-x="1386" 
d="M1325 1298v-118q-254 135 -498 135q-260 0 -435 -177t-175 -442q0 -268 176 -441t449 -173q228 0 497 143v-112q-248 -131 -495 -131q-319 0 -531.5 204.5t-212.5 509.5q0 307 217 513t517 206q236 0 491 -117zM1087 1832l-311 -319h-68l213 319h166z" />
    <glyph glyph-name="cacute" unicode="&#x107;" horiz-adv-x="854" 
d="M776 893v-109q-132 58 -239 58q-154 0 -250.5 -107t-96.5 -278q0 -174 96.5 -276.5t258.5 -102.5q118 0 248 53v-102q-138 -47 -256 -47q-202 0 -326.5 128t-124.5 336q0 217 125.5 354.5t320.5 137.5q107 0 244 -45zM780 1386l-311 -319h-68l213 319h166z" />
    <glyph glyph-name="Ccircumflex" unicode="&#x108;" horiz-adv-x="1386" 
d="M1325 1298v-118q-254 135 -498 135q-260 0 -435 -177t-175 -442q0 -268 176 -441t449 -173q228 0 497 143v-112q-248 -131 -495 -131q-319 0 -531.5 204.5t-212.5 509.5q0 307 217 513t517 206q236 0 491 -117zM776 1814l193 -297h-69l-181 198l-182 -198h-69l197 297
h111z" />
    <glyph glyph-name="ccircumflex" unicode="&#x109;" horiz-adv-x="854" 
d="M776 893v-109q-132 58 -239 58q-154 0 -250.5 -107t-96.5 -278q0 -174 96.5 -276.5t258.5 -102.5q118 0 248 53v-102q-138 -47 -256 -47q-202 0 -326.5 128t-124.5 336q0 217 125.5 354.5t320.5 137.5q107 0 244 -45zM496 1338l193 -297h-69l-181 198l-182 -198h-69
l197 297h111z" />
    <glyph glyph-name="Cdotaccent" unicode="&#x10a;" horiz-adv-x="1386" 
d="M1325 1298v-118q-254 135 -498 135q-260 0 -435 -177t-175 -442q0 -268 176 -441t449 -173q228 0 497 143v-112q-248 -131 -495 -131q-319 0 -531.5 204.5t-212.5 509.5q0 307 217 513t517 206q236 0 491 -117zM629 1607q0 37 26.5 64t63.5 27t63.5 -27t26.5 -64
q0 -36 -26.5 -63t-63.5 -27t-63.5 27t-26.5 63z" />
    <glyph glyph-name="cdotaccent" unicode="&#x10b;" horiz-adv-x="854" 
d="M776 893v-109q-132 58 -239 58q-154 0 -250.5 -107t-96.5 -278q0 -174 96.5 -276.5t258.5 -102.5q118 0 248 53v-102q-138 -47 -256 -47q-202 0 -326.5 128t-124.5 336q0 217 125.5 354.5t320.5 137.5q107 0 244 -45zM349 1131q0 37 26.5 64t63.5 27t63.5 -27t26.5 -64
q0 -36 -26.5 -63t-63.5 -27t-63.5 27t-26.5 63z" />
    <glyph glyph-name="Ccaron" unicode="&#x10c;" horiz-adv-x="1386" 
d="M1325 1298v-118q-254 135 -498 135q-260 0 -435 -177t-175 -442q0 -268 176 -441t449 -173q228 0 497 143v-112q-248 -131 -495 -131q-319 0 -531.5 204.5t-212.5 509.5q0 307 217 513t517 206q236 0 491 -117zM780 1517h-118l-209 282h73l194 -188l191 188h74z" />
    <glyph glyph-name="ccaron" unicode="&#x10d;" horiz-adv-x="854" 
d="M776 893v-109q-132 58 -239 58q-154 0 -250.5 -107t-96.5 -278q0 -174 96.5 -276.5t258.5 -102.5q118 0 248 53v-102q-138 -47 -256 -47q-202 0 -326.5 128t-124.5 336q0 217 125.5 354.5t320.5 137.5q107 0 244 -45zM500 1041h-118l-209 282h73l194 -188l191 188h74z
" />
    <glyph glyph-name="Dcaron" unicode="&#x10e;" horiz-adv-x="1516" 
d="M162 1397h489q371 0 566.5 -195t195.5 -504q0 -303 -193.5 -500.5t-549.5 -197.5h-508v1397zM270 1307v-1217h394q271 0 451.5 166.5t180.5 441.5q0 269 -178 439t-461 170h-387zM848 1499h-118l-209 282h73l194 -188l191 188h74z" />
    <glyph glyph-name="dcaron" unicode="&#x10f;" horiz-adv-x="1406" 
d="M920 1397v-1397h-99v72q-126 -90 -272 -90q-196 0 -330.5 138.5t-134.5 340.5q0 205 132.5 341t332.5 136q127 0 272 -74v533h99zM821 162v594q-132 86 -268 86q-159 0 -262 -105.5t-103 -269.5q0 -167 110 -278t275 -111q128 0 248 84zM1292 1401v-156q0 -182 -133 -282
v71q43 61 43 168h-43v199h133z" />
    <glyph glyph-name="Dcroat" unicode="&#x110;" horiz-adv-x="1516" 
d="M162 1397h489q371 0 566.5 -195t195.5 -504q0 -303 -193.5 -500.5t-549.5 -197.5h-508v655h-209v90h209v652zM270 1307v-562h453v-90h-453v-565h394q271 0 451.5 166.5t180.5 441.5q0 269 -178 439t-461 170h-387z" />
    <glyph glyph-name="Emacron" unicode="&#x112;" 
d="M926 1397v-90h-654v-559h637v-91h-637v-567h670v-90h-778v1397h762zM38 1586h1029v-87h-1029v87z" />
    <glyph glyph-name="emacron" unicode="&#x113;" horiz-adv-x="981" 
d="M911 494h-725q-3 -24 -3 -48q0 -154 110 -261t260 -107q175 0 342 137v-111q-158 -122 -354 -122q-199 0 -329 138t-130 351q0 202 120 334.5t302 132.5q171 0 289 -119.5t118 -324.5zM199 573h596q-52 269 -291 269q-113 0 -195.5 -70.5t-109.5 -198.5zM-19 1128h1029
v-87h-1029v87z" />
    <glyph glyph-name="Ebreve" unicode="&#x114;" 
d="M926 1397v-90h-654v-559h637v-91h-637v-567h670v-90h-778v1397h762zM749 1683h79q-88 -184 -273 -184q-176 0 -278 184h83q65 -108 194 -108q124 0 195 108z" />
    <glyph glyph-name="ebreve" unicode="&#x115;" horiz-adv-x="981" 
d="M911 494h-725q-3 -24 -3 -48q0 -154 110 -261t260 -107q175 0 342 137v-111q-158 -122 -354 -122q-199 0 -329 138t-130 351q0 202 120 334.5t302 132.5q171 0 289 -119.5t118 -324.5zM199 573h596q-52 269 -291 269q-113 0 -195.5 -70.5t-109.5 -198.5zM692 1225h79
q-88 -184 -273 -184q-176 0 -278 184h83q65 -108 194 -108q124 0 195 108z" />
    <glyph glyph-name="Edotaccent" unicode="&#x116;" 
d="M926 1397v-90h-654v-559h637v-91h-637v-567h670v-90h-778v1397h762zM463 1589q0 37 26.5 64t63.5 27t63.5 -27t26.5 -64q0 -36 -26.5 -63t-63.5 -27t-63.5 27t-26.5 63z" />
    <glyph glyph-name="edotaccent" unicode="&#x117;" horiz-adv-x="981" 
d="M911 494h-725q-3 -24 -3 -48q0 -154 110 -261t260 -107q175 0 342 137v-111q-158 -122 -354 -122q-199 0 -329 138t-130 351q0 202 120 334.5t302 132.5q171 0 289 -119.5t118 -324.5zM199 573h596q-52 269 -291 269q-113 0 -195.5 -70.5t-109.5 -198.5zM406 1131
q0 37 26.5 64t63.5 27t63.5 -27t26.5 -64q0 -36 -26.5 -63t-63.5 -27t-63.5 27t-26.5 63z" />
    <glyph glyph-name="Eogonek" unicode="&#x118;" 
d="M909 -338q-23 -6 -44 -8t-40 -2q-46 0 -82 13.5t-60.5 36.5t-37 53.5t-12.5 64.5q0 60 30.5 107t73.5 73h-573v1397h762v-90h-654v-559h637v-91h-637v-567h670v-90h-123q-46 -37 -63 -70.5t-17 -76.5q0 -54 33 -84.5t102 -30.5h17q9 0 18 2v-78z" />
    <glyph glyph-name="eogonek" unicode="&#x119;" horiz-adv-x="981" 
d="M799 -338q-23 -6 -44.5 -8t-39.5 -2q-46 0 -82 13.5t-60.5 36.5t-37.5 53.5t-13 64.5q0 52 24.5 95t61.5 71q-17 -2 -33.5 -3t-33.5 -1q-100 0 -184.5 36.5t-145.5 101.5t-95 155t-34 196q0 101 31.5 186.5t88 148t134 97.5t168.5 35q74 0 146.5 -26t130.5 -80.5t94 -138
t36 -199.5h-725q-2 -13 -2 -24v-24q0 -79 30 -146t81 -116.5t118 -77.5t140 -28q92 0 172.5 32.5t169.5 104.5v-111q-42 -32 -84.5 -55t-87.5 -39q-55 -40 -74.5 -76.5t-19.5 -80.5q0 -54 33 -84.5t102 -30.5h16q9 0 19 2v-78zM795 573q-53 269 -291 269q-57 0 -107 -18.5
t-89.5 -53t-67.5 -84.5t-41 -113h596z" />
    <glyph glyph-name="Ecaron" unicode="&#x11a;" 
d="M926 1397v-90h-654v-559h637v-91h-637v-567h670v-90h-778v1397h762zM614 1499h-118l-209 282h73l194 -188l191 188h74z" />
    <glyph glyph-name="ecaron" unicode="&#x11b;" horiz-adv-x="981" 
d="M911 494h-725q-3 -24 -3 -48q0 -154 110 -261t260 -107q175 0 342 137v-111q-158 -122 -354 -122q-199 0 -329 138t-130 351q0 202 120 334.5t302 132.5q171 0 289 -119.5t118 -324.5zM199 573h596q-52 269 -291 269q-113 0 -195.5 -70.5t-109.5 -198.5zM557 1041h-118
l-209 282h73l194 -188l191 188h74z" />
    <glyph glyph-name="Gcircumflex" unicode="&#x11c;" horiz-adv-x="1473" 
d="M1331 1296v-122q-248 141 -495 141q-265 0 -441 -176t-176 -441t174 -440.5t473 -175.5q216 0 383 86v377h-295v90h404v-535q-247 -118 -496 -118q-325 0 -542.5 206t-217.5 514q0 306 213.5 509.5t536.5 203.5q220 0 479 -119zM787 1814l193 -297h-69l-181 198
l-182 -198h-69l197 297h111z" />
    <glyph glyph-name="gcircumflex" unicode="&#x11d;" horiz-adv-x="874" 
d="M854 920v-80h-209q127 -116 127 -244q0 -115 -49.5 -182t-118 -97.5t-182.5 -60t-143 -55.5t-29 -60q0 -40 37.5 -64t233 -35t263.5 -75t68 -170q0 -125 -109 -196.5t-303 -71.5q-193 0 -298 67.5t-105 178.5q0 180 268 223v4q-149 35 -149 131q0 97 184 150v4
q-121 36 -183.5 119.5t-62.5 185.5q0 145 101 236.5t290 91.5h369zM432 348q101 0 173.5 72.5t72.5 173.5t-72.5 172.5t-175.5 71.5q-102 0 -172 -70t-70 -170q0 -104 71 -177t173 -73zM446 -389q143 0 227.5 49t84.5 129q0 162 -293 162q-334 0 -334 -170t315 -170z
M502 1320l193 -297h-69l-181 198l-182 -198h-69l197 297h111z" />
    <glyph glyph-name="Gbreve" unicode="&#x11e;" horiz-adv-x="1473" 
d="M1331 1296v-122q-248 141 -495 141q-265 0 -441 -176t-176 -441t174 -440.5t473 -175.5q216 0 383 86v377h-295v90h404v-535q-247 -118 -496 -118q-325 0 -542.5 206t-217.5 514q0 306 213.5 509.5t536.5 203.5q220 0 479 -119zM926 1701h79q-88 -184 -273 -184
q-176 0 -278 184h83q65 -108 194 -108q124 0 195 108z" />
    <glyph glyph-name="gbreve" unicode="&#x11f;" horiz-adv-x="874" 
d="M854 920v-80h-209q127 -116 127 -244q0 -115 -49.5 -182t-118 -97.5t-182.5 -60t-143 -55.5t-29 -60q0 -40 37.5 -64t233 -35t263.5 -75t68 -170q0 -125 -109 -196.5t-303 -71.5q-193 0 -298 67.5t-105 178.5q0 180 268 223v4q-149 35 -149 131q0 97 184 150v4
q-121 36 -183.5 119.5t-62.5 185.5q0 145 101 236.5t290 91.5h369zM432 348q101 0 173.5 72.5t72.5 173.5t-72.5 172.5t-175.5 71.5q-102 0 -172 -70t-70 -170q0 -104 71 -177t173 -73zM446 -389q143 0 227.5 49t84.5 129q0 162 -293 162q-334 0 -334 -170t315 -170z
M641 1207h79q-88 -184 -273 -184q-176 0 -278 184h83q65 -108 194 -108q124 0 195 108z" />
    <glyph glyph-name="Gdotaccent" unicode="&#x120;" horiz-adv-x="1473" 
d="M1331 1296v-122q-248 141 -495 141q-265 0 -441 -176t-176 -441t174 -440.5t473 -175.5q216 0 383 86v377h-295v90h404v-535q-247 -118 -496 -118q-325 0 -542.5 206t-217.5 514q0 306 213.5 509.5t536.5 203.5q220 0 479 -119zM640 1607q0 37 26.5 64t63.5 27t63.5 -27
t26.5 -64q0 -36 -26.5 -63t-63.5 -27t-63.5 27t-26.5 63z" />
    <glyph glyph-name="gdotaccent" unicode="&#x121;" horiz-adv-x="874" 
d="M854 920v-80h-209q127 -116 127 -244q0 -115 -49.5 -182t-118 -97.5t-182.5 -60t-143 -55.5t-29 -60q0 -40 37.5 -64t233 -35t263.5 -75t68 -170q0 -125 -109 -196.5t-303 -71.5q-193 0 -298 67.5t-105 178.5q0 180 268 223v4q-149 35 -149 131q0 97 184 150v4
q-121 36 -183.5 119.5t-62.5 185.5q0 145 101 236.5t290 91.5h369zM432 348q101 0 173.5 72.5t72.5 173.5t-72.5 172.5t-175.5 71.5q-102 0 -172 -70t-70 -170q0 -104 71 -177t173 -73zM446 -389q143 0 227.5 49t84.5 129q0 162 -293 162q-334 0 -334 -170t315 -170z
M355 1113q0 37 26.5 64t63.5 27t63.5 -27t26.5 -64q0 -36 -26.5 -63t-63.5 -27t-63.5 27t-26.5 63z" />
    <glyph glyph-name="Gcommaaccent" unicode="&#x122;" horiz-adv-x="1473" 
d="M1331 1296v-122q-248 141 -495 141q-265 0 -441 -176t-176 -441t174 -440.5t473 -175.5q216 0 383 86v377h-295v90h404v-535q-247 -118 -496 -118q-325 0 -542.5 206t-217.5 514q0 306 213.5 509.5t536.5 203.5q220 0 479 -119zM796 -18v-156q0 -182 -133 -283v72
q43 60 43 168h-43v199h133z" />
    <glyph glyph-name="Hcircumflex" unicode="&#x124;" horiz-adv-x="1473" 
d="M1311 1397v-1397h-109v662h-932v-662h-108v1397h108v-645h932v645h109zM793 1796l193 -297h-69l-181 198l-182 -198h-69l197 297h111z" />
    <glyph glyph-name="hcircumflex" unicode="&#x125;" 
d="M225 1397v-637h4q115 178 303 178q156 0 249 -100t93 -275v-563h-98v524q0 318 -250 318q-179 0 -301 -197v-645h-98v1397h98zM557 1796l193 -297h-69l-181 198l-182 -198h-69l197 297h111z" />
    <glyph glyph-name="Itilde" unicode="&#x128;" horiz-adv-x="426" 
d="M268 1397v-1397h-108v1397h108zM520 1651q5 -65 -41 -108.5t-114 -43.5q-46 0 -164 39t-159 39q-68 0 -80 -76h-60q0 67 41 108.5t114 41.5q61 0 170.5 -38.5t150.5 -38.5q73 0 85 77h57z" />
    <glyph glyph-name="itilde" unicode="&#x129;" horiz-adv-x="385" 
d="M242 920v-920h-99v920h99zM498 1175q5 -65 -41 -108.5t-114 -43.5q-46 0 -164 39t-159 39q-68 0 -80 -76h-60q0 67 41 108.5t114 41.5q61 0 170.5 -38.5t150.5 -38.5q73 0 85 77h57z" />
    <glyph glyph-name="Imacron" unicode="&#x12a;" horiz-adv-x="426" 
d="M268 1397v-1397h-108v1397h108zM-301 1586h1029v-87h-1029v87z" />
    <glyph glyph-name="imacron" unicode="&#x12b;" horiz-adv-x="385" 
d="M242 920v-920h-99v920h99zM-323 1110h1029v-87h-1029v87z" />
    <glyph glyph-name="Ibreve" unicode="&#x12c;" horiz-adv-x="426" 
d="M268 1397v-1397h-108v1397h108zM415 1732h80q-89 -233 -277 -233q-179 0 -283 233h84q66 -137 197 -137q127 0 199 137z" />
    <glyph glyph-name="ibreve" unicode="&#x12d;" horiz-adv-x="385" 
d="M242 920v-920h-99v920h99zM393 1256h80q-89 -233 -277 -233q-179 0 -283 233h84q66 -137 197 -137q127 0 199 137z" />
    <glyph glyph-name="Iogonek" unicode="&#x12e;" horiz-adv-x="426" 
d="M268 1397v-1397h-108v1397h108zM352 -279v-78q-44 -11 -83 -11q-87 0 -140 48.5t-53 120.5q0 94 62.5 147t86.5 53h66q-70 -66 -89.5 -98t-19.5 -69q0 -115 136 -115q16 0 34 2z" />
    <glyph glyph-name="iogonek" unicode="&#x12f;" horiz-adv-x="385" 
d="M242 1397v-168h-99v168h99zM242 920v-920h-99v920h99zM330 -279v-78q-44 -11 -83 -11q-87 0 -140 48.5t-53 120.5q0 94 62.5 147t86.5 53h66q-70 -66 -89.5 -98t-19.5 -69q0 -115 136 -115q16 0 34 2z" />
    <glyph glyph-name="Idotaccent" unicode="&#x130;" horiz-adv-x="426" 
d="M268 1397v-1397h-108v1397h108zM125 1589q0 37 26.5 64t63.5 27t63.5 -27t26.5 -64q0 -36 -26.5 -63t-63.5 -27t-63.5 27t-26.5 63z" />
    <glyph glyph-name="dotlessi" unicode="&#x131;" horiz-adv-x="385" 
d="M242 920v-920h-99v920h99z" />
    <glyph glyph-name="IJ" unicode="&#x132;" horiz-adv-x="852" 
d="M268 1397v-1397h-108v1397h108zM702 1397v-1397q0 -231 -87 -319t-206 -88q-28 0 -65 4l-10 102q34 -8 64 -8q196 0 196 280v1426h108z" />
    <glyph glyph-name="ij" unicode="&#x133;" horiz-adv-x="770" 
d="M242 1397v-168h-99v168h99zM242 920v-920h-99v920h99zM623 1397v-168h-99v168h99zM623 920v-1022q0 -173 -73 -271t-200 -98l-22 84q105 2 150.5 69t45.5 218v1020h99z" />
    <glyph glyph-name="Jcircumflex" unicode="&#x134;" horiz-adv-x="426" 
d="M276 1397v-1397q0 -231 -87 -319t-206 -88q-28 0 -65 4l-10 102q34 -8 64 -8q196 0 196 280v1426h108zM269 1824l217 -335h-78l-203 223l-205 -223h-78l222 335h125z" />
    <glyph glyph-name="Kcommaaccent" unicode="&#x136;" horiz-adv-x="1087" 
d="M1069 1397l-668 -697l732 -700h-138l-731 698v-698h-108v1397h108v-695l670 695h135zM710 0v-156q0 -182 -133 -283v72q43 60 43 168h-43v199h133z" />
    <glyph glyph-name="kcommaaccent" unicode="&#x137;" horiz-adv-x="874" 
d="M219 1397v-1397h-98v1397h98zM870 920l-503 -437l581 -483h-135l-580 483l508 437h129zM600 0v-156q0 -182 -133 -283v72q43 60 43 168h-43v199h133z" />
    <glyph glyph-name="Lacute" unicode="&#x139;" horiz-adv-x="961" 
d="M270 1397v-1307h691v-90h-799v1397h108zM750 1818l-311 -319h-68l213 319h166z" />
    <glyph glyph-name="lacute" unicode="&#x13a;" horiz-adv-x="385" 
d="M242 1397v-1397h-99v1397h99zM381 1818l-311 -319h-68l213 319h166z" />
    <glyph glyph-name="Lcommaaccent" unicode="&#x13b;" horiz-adv-x="961" 
d="M270 1397v-1307h691v-90h-799v1397h108zM627 0v-156q0 -182 -133 -283v72q43 60 43 168h-43v199h133z" />
    <glyph glyph-name="lcommaaccent" unicode="&#x13c;" horiz-adv-x="385" 
d="M242 1397v-1397h-99v1397h99zM258 0v-156q0 -182 -133 -283v72q43 60 43 168h-43v199h133z" />
    <glyph glyph-name="Lcaron" unicode="&#x13d;" horiz-adv-x="961" 
d="M270 1397v-1307h691v-90h-799v1397h108zM622 1499h-118l-209 282h73l194 -188l191 188h74z" />
    <glyph glyph-name="lcaron" unicode="&#x13e;" horiz-adv-x="385" 
d="M242 1397v-1397h-99v1397h99zM253 1499h-118l-209 282h73l194 -188l191 188h74z" />
    <glyph glyph-name="Lslash" unicode="&#x141;" horiz-adv-x="961" 
d="M270 719l342 280v-102l-342 -281v-526h691v-90h-799v537l-248 -205v102l248 205v758h108v-678z" />
    <glyph glyph-name="lslash" unicode="&#x142;" horiz-adv-x="385" 
d="M242 768l204 176v-102l-204 -172v-670h-99v596l-200 -174v102l200 170v703h99v-629z" />
    <glyph glyph-name="Nacute" unicode="&#x143;" horiz-adv-x="1579" 
d="M1419 1397v-1397h-90l-1061 1221v-1221h-108v1397h92l1059 -1221v1221h108zM1050 1832l-311 -319h-68l213 319h166z" />
    <glyph glyph-name="nacute" unicode="&#x144;" 
d="M225 920v-160h4q115 178 303 178q156 0 249 -100t93 -277v-561h-98v524q0 318 -250 318q-183 0 -301 -197v-645h-98v920h98zM766 1386l-311 -319h-68l213 319h166z" />
    <glyph glyph-name="Ncommaaccent" unicode="&#x145;" horiz-adv-x="1579" 
d="M1419 1397v-1397h-90l-1061 1221v-1221h-108v1397h92l1059 -1221v1221h108zM855 0v-156q0 -182 -133 -283v72q43 60 43 168h-43v199h133z" />
    <glyph glyph-name="ncedilla" unicode="&#x146;" 
d="M225 920v-160h4q115 178 303 178q156 0 249 -100t93 -277v-561h-98v524q0 318 -250 318q-183 0 -301 -197v-645h-98v920h98zM566 0v-156q0 -182 -133 -283v72q43 60 43 168h-43v199h133z" />
    <glyph glyph-name="Ncaron" unicode="&#x147;" horiz-adv-x="1579" 
d="M1419 1397v-1397h-90l-1061 1221v-1221h-108v1397h92l1059 -1221v1221h108zM850 1499h-118l-209 282h73l194 -188l191 188h74z" />
    <glyph glyph-name="ncaron" unicode="&#x148;" 
d="M225 920v-160h4q115 178 303 178q156 0 249 -100t93 -277v-561h-98v524q0 318 -250 318q-183 0 -301 -197v-645h-98v920h98zM561 1041h-118l-209 282h73l194 -188l191 188h74z" />
    <glyph glyph-name="napostrophe" unicode="&#x149;" horiz-adv-x="1366" 
d="M248 1401v-156q0 -182 -133 -282v71q43 61 43 168h-43v199h133zM587 920v-160h4q115 178 303 178q156 0 249 -100t93 -277v-561h-98v524q0 318 -250 318q-183 0 -301 -197v-645h-98v920h98z" />
    <glyph glyph-name="Omacron" unicode="&#x14c;" horiz-adv-x="1686" 
d="M842 1415q310 0 525.5 -208.5t215.5 -508.5q0 -299 -215.5 -507.5t-525.5 -208.5q-309 0 -523.5 208.5t-214.5 507.5q0 300 214.5 508.5t523.5 208.5zM846 82q261 0 440.5 178.5t179.5 437.5q0 260 -179.5 438.5t-440.5 178.5q-262 0 -443.5 -178.5t-181.5 -438.5
q0 -259 181.5 -437.5t443.5 -178.5zM328 1604h1029v-87h-1029v87z" />
    <glyph glyph-name="omacron" unicode="&#x14d;" horiz-adv-x="1110" 
d="M555 938q200 0 333.5 -137t133.5 -342q0 -204 -133.5 -340.5t-333.5 -136.5t-334.5 136.5t-134.5 340.5q0 205 134.5 342t334.5 137zM555 78q155 0 259 108.5t104 272.5q0 163 -104.5 273t-258.5 110q-156 0 -260.5 -109t-104.5 -274q0 -164 104.5 -272.5t260.5 -108.5z
M39 1128h1029v-87h-1029v87z" />
    <glyph glyph-name="Obreve" unicode="&#x14e;" horiz-adv-x="1686" 
d="M842 1415q310 0 525.5 -208.5t215.5 -508.5q0 -299 -215.5 -507.5t-525.5 -208.5q-309 0 -523.5 208.5t-214.5 507.5q0 300 214.5 508.5t523.5 208.5zM846 82q261 0 440.5 178.5t179.5 437.5q0 260 -179.5 438.5t-440.5 178.5q-262 0 -443.5 -178.5t-181.5 -438.5
q0 -259 181.5 -437.5t443.5 -178.5zM1039 1701h79q-88 -184 -273 -184q-176 0 -278 184h83q65 -108 194 -108q124 0 195 108z" />
    <glyph glyph-name="obreve" unicode="&#x14f;" horiz-adv-x="1110" 
d="M555 938q200 0 333.5 -137t133.5 -342q0 -204 -133.5 -340.5t-333.5 -136.5t-334.5 136.5t-134.5 340.5q0 205 134.5 342t334.5 137zM555 78q155 0 259 108.5t104 272.5q0 163 -104.5 273t-258.5 110q-156 0 -260.5 -109t-104.5 -274q0 -164 104.5 -272.5t260.5 -108.5z
M750 1225h79q-88 -184 -273 -184q-176 0 -278 184h83q65 -108 194 -108q124 0 195 108z" />
    <glyph glyph-name="Ohungarumlaut" unicode="&#x150;" horiz-adv-x="1686" 
d="M842 1415q310 0 525.5 -208.5t215.5 -508.5q0 -299 -215.5 -507.5t-525.5 -208.5q-309 0 -523.5 208.5t-214.5 507.5q0 300 214.5 508.5t523.5 208.5zM846 82q261 0 440.5 178.5t179.5 437.5q0 260 -179.5 438.5t-440.5 178.5q-262 0 -443.5 -178.5t-181.5 -438.5
q0 -259 181.5 -437.5t443.5 -178.5zM1133 1791l-277 -274h-60l190 274h147zM891 1791l-278 -274h-61l190 274h149z" />
    <glyph glyph-name="ohungarumlaut" unicode="&#x151;" horiz-adv-x="1110" 
d="M555 938q200 0 333.5 -137t133.5 -342q0 -204 -133.5 -340.5t-333.5 -136.5t-334.5 136.5t-134.5 340.5q0 205 134.5 342t334.5 137zM555 78q155 0 259 108.5t104 272.5q0 163 -104.5 273t-258.5 110q-156 0 -260.5 -109t-104.5 -274q0 -164 104.5 -272.5t260.5 -108.5z
M844 1315l-277 -274h-60l190 274h147zM602 1315l-278 -274h-61l190 274h149z" />
    <glyph glyph-name="OE" unicode="&#x152;" horiz-adv-x="1835" 
d="M1743 1397v-90h-660v-562h646v-90h-646v-565h674v-90h-921q-348 0 -550 205t-202 491q0 291 203 496t544 205h912zM975 1307h-121q-306 0 -479.5 -178.5t-173.5 -432.5t176.5 -430t480.5 -176h117v1217z" />
    <glyph glyph-name="oe" unicode="&#x153;" horiz-adv-x="1706" 
d="M1624 496h-639q-7 -204 70 -311t221 -107q174 0 328 137v-113q-151 -120 -340 -120q-238 0 -334 215q-162 -215 -393 -215q-197 0 -325 131t-128 346q0 211 129.5 345t333.5 134q238 0 383 -195q46 91 133.5 143t181.5 52q165 0 276 -123.5t103 -318.5zM989 573h520
q-10 129 -81.5 199t-180.5 70q-102 0 -178.5 -73t-79.5 -196zM543 78q151 0 244.5 110t93.5 289q0 170 -88.5 267.5t-243.5 97.5q-161 0 -261 -104.5t-100 -274.5q0 -167 101 -276t254 -109z" />
    <glyph glyph-name="Racute" unicode="&#x154;" horiz-adv-x="1174" 
d="M162 1397h358q225 0 344 -97.5t119 -263.5q0 -242 -266 -340q69 -33 186 -213l316 -483h-127l-244 383q-122 192 -190 239.5t-199 47.5h-189v-670h-108v1397zM270 1307v-547h232q177 0 270.5 71.5t93.5 202.5q0 129 -95 201t-273 72h-228zM879 1818l-311 -319h-68
l213 319h166z" />
    <glyph glyph-name="racute" unicode="&#x155;" horiz-adv-x="682" 
d="M764 829l-57 -92q-115 105 -185 105q-138 0 -295 -264v-578h-98v920h98v-242h4q165 260 322 260q90 0 211 -109zM635 1360l-311 -319h-68l213 319h166z" />
    <glyph glyph-name="Rcommaaccent" unicode="&#x156;" horiz-adv-x="1174" 
d="M162 1397h358q225 0 344 -97.5t119 -263.5q0 -242 -266 -340q69 -33 186 -213l316 -483h-127l-244 383q-122 192 -190 239.5t-199 47.5h-189v-670h-108v1397zM270 1307v-547h232q177 0 270.5 71.5t93.5 202.5q0 129 -95 201t-273 72h-228zM756 0v-156q0 -182 -133 -283
v72q43 60 43 168h-43v199h133z" />
    <glyph glyph-name="rcommaaccent" unicode="&#x157;" horiz-adv-x="682" 
d="M764 829l-57 -92q-115 105 -185 105q-138 0 -295 -264v-578h-98v920h98v-242h4q165 260 322 260q90 0 211 -109zM512 0v-156q0 -182 -133 -283v72q43 60 43 168h-43v199h133z" />
    <glyph glyph-name="Rcaron" unicode="&#x158;" horiz-adv-x="1174" 
d="M162 1397h358q225 0 344 -97.5t119 -263.5q0 -242 -266 -340q69 -33 186 -213l316 -483h-127l-244 383q-122 192 -190 239.5t-199 47.5h-189v-670h-108v1397zM270 1307v-547h232q177 0 270.5 71.5t93.5 202.5q0 129 -95 201t-273 72h-228zM751 1499h-118l-209 282h73
l194 -188l191 188h74z" />
    <glyph glyph-name="rcaron" unicode="&#x159;" horiz-adv-x="682" 
d="M764 829l-57 -92q-115 105 -185 105q-138 0 -295 -264v-578h-98v920h98v-242h4q165 260 322 260q90 0 211 -109zM507 1041h-118l-209 282h73l194 -188l191 188h74z" />
    <glyph glyph-name="Sacute" unicode="&#x15a;" horiz-adv-x="961" 
d="M819 1327v-119q-182 107 -313 107q-126 0 -210.5 -76.5t-84.5 -189.5q0 -81 50 -146t209 -125t232 -100t124 -116t51 -197q0 -161 -118 -272t-288 -111q-174 0 -358 122v127q203 -149 352 -149q124 0 209.5 80.5t85.5 197.5q0 89 -53 160.5t-215 133.5t-231.5 100
t-118 108.5t-48.5 181.5q0 154 118 262.5t284 108.5q163 0 323 -88zM741 1832l-311 -319h-68l213 319h166z" />
    <glyph glyph-name="sacute" unicode="&#x15b;" horiz-adv-x="725" 
d="M633 860v-106q-140 94 -252 94q-83 0 -140 -45t-57 -111q0 -47 34.5 -86.5t191 -99.5t204.5 -125t48 -145q0 -107 -87 -180.5t-215 -73.5q-139 0 -276 84v96q163 -84 289 -84q85 0 139.5 45t54.5 115q0 48 -35.5 88.5t-192 102.5t-203 122.5t-46.5 134.5
q0 105 86.5 178.5t210.5 73.5q113 0 246 -78zM627 1386l-311 -319h-68l213 319h166z" />
    <glyph glyph-name="Scircumflex" unicode="&#x15c;" horiz-adv-x="961" 
d="M819 1327v-119q-182 107 -313 107q-126 0 -210.5 -76.5t-84.5 -189.5q0 -81 50 -146t209 -125t232 -100t124 -116t51 -197q0 -161 -118 -272t-288 -111q-174 0 -358 122v127q203 -149 352 -149q124 0 209.5 80.5t85.5 197.5q0 89 -53 160.5t-215 133.5t-231.5 100
t-118 108.5t-48.5 181.5q0 154 118 262.5t284 108.5q163 0 323 -88zM542 1814l193 -297h-69l-181 198l-182 -198h-69l197 297h111z" />
    <glyph glyph-name="scircumflex" unicode="&#x15d;" horiz-adv-x="725" 
d="M633 860v-106q-140 94 -252 94q-83 0 -140 -45t-57 -111q0 -47 34.5 -86.5t191 -99.5t204.5 -125t48 -145q0 -107 -87 -180.5t-215 -73.5q-139 0 -276 84v96q163 -84 289 -84q85 0 139.5 45t54.5 115q0 48 -35.5 88.5t-192 102.5t-203 122.5t-46.5 134.5
q0 105 86.5 178.5t210.5 73.5q113 0 246 -78zM430 1338l193 -297h-69l-181 198l-182 -198h-69l197 297h111z" />
    <glyph glyph-name="Scedilla" unicode="&#x15e;" horiz-adv-x="961" 
d="M819 1327v-119q-182 107 -313 107q-126 0 -210.5 -76.5t-84.5 -189.5q0 -81 50 -146t209 -125t232 -100t124 -116t51 -197q0 -161 -118 -272t-288 -111q-174 0 -358 122v127q203 -149 352 -149q124 0 209.5 80.5t85.5 197.5q0 89 -53 160.5t-215 133.5t-231.5 100
t-118 108.5t-48.5 181.5q0 154 118 262.5t284 108.5q163 0 323 -88zM528 -17l-25 -88q127 -22 127 -129q0 -73 -55.5 -115.5t-146.5 -42.5q-43 0 -89 11l10 65q39 -3 68 -3q133 0 133 79q0 77 -127 80l43 143h62z" />
    <glyph glyph-name="scedilla" unicode="&#x15f;" horiz-adv-x="725" 
d="M633 860v-106q-140 94 -252 94q-83 0 -140 -45t-57 -111q0 -47 34.5 -86.5t191 -99.5t204.5 -125t48 -145q0 -107 -87 -180.5t-215 -73.5q-139 0 -276 84v96q163 -84 289 -84q85 0 139.5 45t54.5 115q0 48 -35.5 88.5t-192 102.5t-203 122.5t-46.5 134.5
q0 105 86.5 178.5t210.5 73.5q113 0 246 -78zM416 -17l-25 -88q127 -22 127 -129q0 -73 -55.5 -115.5t-146.5 -42.5q-43 0 -89 11l10 65q39 -3 68 -3q133 0 133 79q0 77 -127 80l43 143h62z" />
    <glyph glyph-name="Scaron" unicode="&#x160;" horiz-adv-x="961" 
d="M819 1327v-119q-182 107 -313 107q-126 0 -210.5 -76.5t-84.5 -189.5q0 -81 50 -146t209 -125t232 -100t124 -116t51 -197q0 -161 -118 -272t-288 -111q-174 0 -358 122v127q203 -149 352 -149q124 0 209.5 80.5t85.5 197.5q0 89 -53 160.5t-215 133.5t-231.5 100
t-118 108.5t-48.5 181.5q0 154 118 262.5t284 108.5q163 0 323 -88zM546 1496h-125l-222 335h78l205 -223l203 223h78z" />
    <glyph glyph-name="scaron" unicode="&#x161;" horiz-adv-x="725" 
d="M633 860v-106q-140 94 -252 94q-83 0 -140 -45t-57 -111q0 -47 34.5 -86.5t191 -99.5t204.5 -125t48 -145q0 -107 -87 -180.5t-215 -73.5q-139 0 -276 84v96q163 -84 289 -84q85 0 139.5 45t54.5 115q0 48 -35.5 88.5t-192 102.5t-203 122.5t-46.5 134.5
q0 105 86.5 178.5t210.5 73.5q113 0 246 -78zM429 1049h-125l-222 335h78l205 -223l203 223h78z" />
    <glyph glyph-name="Tcedilla" unicode="&#x162;" horiz-adv-x="1174" 
d="M1165 1397v-90h-524v-1307h-109v1307h-524v90h1157zM629 0l-25 -88q127 -22 127 -129q0 -73 -55.5 -115.5t-146.5 -42.5q-43 0 -89 11l10 65q39 -3 68 -3q133 0 133 79q0 77 -127 80l43 143h62z" />
    <glyph glyph-name="tcedilla" unicode="&#x163;" horiz-adv-x="618" 
d="M307 1225v-305h258v-80h-258v-547q0 -132 21.5 -173.5t115.5 -41.5q72 0 168 45v-94q-97 -47 -190 -47q-91 0 -152 52t-61 144v662h-248v80h248v219l67 86h31zM329 -17l-25 -88q127 -22 127 -129q0 -73 -55.5 -115.5t-146.5 -42.5q-43 0 -89 11l10 65q39 -3 68 -3
q133 0 133 79q0 77 -127 80l43 143h62z" />
    <glyph glyph-name="Tcaron" unicode="&#x164;" horiz-adv-x="1174" 
d="M1165 1397v-90h-524v-1307h-109v1307h-524v90h1157zM647 1499h-118l-209 282h73l194 -188l191 188h74z" />
    <glyph glyph-name="tcaron" unicode="&#x165;" horiz-adv-x="980" 
d="M307 1225v-305h258v-80h-258v-547q0 -132 21.5 -173.5t115.5 -41.5q72 0 168 45v-94q-97 -47 -190 -47q-91 0 -152 52t-61 144v662h-248v80h248v219l67 86h31zM866 1401v-156q0 -182 -133 -282v71q43 61 43 168h-43v199h133z" />
    <glyph glyph-name="Utilde" unicode="&#x168;" horiz-adv-x="1430" 
d="M1192 1397h108v-762q0 -313 -163 -483t-422 -170q-258 0 -421 168t-163 460v787h109v-783q0 -250 132.5 -391t342.5 -141q212 0 344.5 142.5t132.5 404.5v768zM1021 1651q5 -65 -41 -108.5t-114 -43.5q-46 0 -164 39t-159 39q-68 0 -80 -76h-60q0 67 41 108.5t114 41.5
q61 0 170.5 -38.5t150.5 -38.5q73 0 85 77h57z" />
    <glyph glyph-name="utilde" unicode="&#x169;" 
d="M776 0v152h-4q-64 -92 -131.5 -131t-171.5 -39q-148 0 -245 96t-97 272v570h98v-568q0 -128 70 -201t182 -73q96 0 163.5 44t135.5 152v646h98v-920h-98zM806 1175q5 -65 -41 -108.5t-114 -43.5q-46 0 -164 39t-159 39q-68 0 -80 -76h-60q0 67 41 108.5t114 41.5
q61 0 170.5 -38.5t150.5 -38.5q73 0 85 77h57z" />
    <glyph glyph-name="Umacron" unicode="&#x16a;" horiz-adv-x="1430" 
d="M1192 1397h108v-762q0 -313 -163 -483t-422 -170q-258 0 -421 168t-163 460v787h109v-783q0 -250 132.5 -391t342.5 -141q212 0 344.5 142.5t132.5 404.5v768zM200 1586h1029v-87h-1029v87z" />
    <glyph glyph-name="umacron" unicode="&#x16b;" 
d="M776 0v152h-4q-64 -92 -131.5 -131t-171.5 -39q-148 0 -245 96t-97 272v570h98v-568q0 -128 70 -201t182 -73q96 0 163.5 44t135.5 152v646h98v-920h-98zM-15 1110h1029v-87h-1029v87z" />
    <glyph glyph-name="Ubreve" unicode="&#x16c;" horiz-adv-x="1430" 
d="M1192 1397h108v-762q0 -313 -163 -483t-422 -170q-258 0 -421 168t-163 460v787h109v-783q0 -250 132.5 -391t342.5 -141q212 0 344.5 142.5t132.5 404.5v768zM911 1683h79q-88 -184 -273 -184q-176 0 -278 184h83q65 -108 194 -108q124 0 195 108z" />
    <glyph glyph-name="ubreve" unicode="&#x16d;" 
d="M776 0v152h-4q-64 -92 -131.5 -131t-171.5 -39q-148 0 -245 96t-97 272v570h98v-568q0 -128 70 -201t182 -73q96 0 163.5 44t135.5 152v646h98v-920h-98zM696 1207h79q-88 -184 -273 -184q-176 0 -278 184h83q65 -108 194 -108q124 0 195 108z" />
    <glyph glyph-name="Uring" unicode="&#x16e;" horiz-adv-x="1430" 
d="M1192 1397h108v-762q0 -313 -163 -483t-422 -170q-258 0 -421 168t-163 460v787h109v-783q0 -250 132.5 -391t342.5 -141q212 0 344.5 142.5t132.5 404.5v768zM565 1644q0 61 44 102.5t107 41.5q62 0 105.5 -41.5t43.5 -102.5q0 -59 -43.5 -102t-105.5 -43t-106.5 43
t-44.5 102zM818 1644q0 42 -30 70.5t-72 28.5q-43 0 -73.5 -28.5t-30.5 -70.5q0 -40 30.5 -69.5t73.5 -29.5q42 0 72 29.5t30 69.5z" />
    <glyph glyph-name="uring" unicode="&#x16f;" 
d="M776 0v152h-4q-64 -92 -131.5 -131t-171.5 -39q-148 0 -245 96t-97 272v570h98v-568q0 -128 70 -201t182 -73q96 0 163.5 44t135.5 152v646h98v-920h-98zM350 1168q0 61 44 102.5t107 41.5q62 0 105.5 -41.5t43.5 -102.5q0 -59 -43.5 -102t-105.5 -43t-106.5 43
t-44.5 102zM603 1168q0 42 -30 70.5t-72 28.5q-43 0 -73.5 -28.5t-30.5 -70.5q0 -40 30.5 -69.5t73.5 -29.5q42 0 72 29.5t30 69.5z" />
    <glyph glyph-name="Uhungarumlaut" unicode="&#x170;" horiz-adv-x="1430" 
d="M1192 1397h108v-762q0 -313 -163 -483t-422 -170q-258 0 -421 168t-163 460v787h109v-783q0 -250 132.5 -391t342.5 -141q212 0 344.5 142.5t132.5 404.5v768zM1005 1773l-277 -274h-60l190 274h147zM763 1773l-278 -274h-61l190 274h149z" />
    <glyph glyph-name="uhungarumlaut" unicode="&#x171;" 
d="M776 0v152h-4q-64 -92 -131.5 -131t-171.5 -39q-148 0 -245 96t-97 272v570h98v-568q0 -128 70 -201t182 -73q96 0 163.5 44t135.5 152v646h98v-920h-98zM790 1297l-277 -274h-60l190 274h147zM548 1297l-278 -274h-61l190 274h149z" />
    <glyph glyph-name="Uogonek" unicode="&#x172;" horiz-adv-x="1430" 
d="M1192 1397h108v-762q0 -313 -163 -483t-422 -170q-258 0 -421 168t-163 460v787h109v-783q0 -250 132.5 -391t342.5 -141q212 0 344.5 142.5t132.5 404.5v768zM853 -297v-78q-44 -11 -83 -11q-87 0 -140 48.5t-53 120.5q0 94 62.5 147t86.5 53h66q-70 -66 -89.5 -98
t-19.5 -69q0 -115 136 -115q16 0 34 2z" />
    <glyph glyph-name="uogonek" unicode="&#x173;" 
d="M776 0v152h-4q-64 -92 -131.5 -131t-171.5 -39q-148 0 -245 96t-97 272v570h98v-568q0 -128 70 -201t182 -73q96 0 163.5 44t135.5 152v646h98v-920h-98zM638 -297v-78q-44 -11 -83 -11q-87 0 -140 48.5t-53 120.5q0 94 62.5 147t86.5 53h66q-70 -66 -89.5 -98t-19.5 -69
q0 -115 136 -115q16 0 34 2z" />
    <glyph glyph-name="Wcircumflex" unicode="&#x174;" horiz-adv-x="2111" 
d="M1057 1165l-469 -1179h-29l-561 1411h111l462 -1159l469 1159h33l467 -1159l463 1159h111l-562 -1411h-26zM1113 1796l193 -297h-69l-181 198l-182 -198h-69l197 297h111z" />
    <glyph glyph-name="wcircumflex" unicode="&#x175;" horiz-adv-x="1450" 
d="M1450 920l-397 -938h-47l-283 747l-285 -747h-45l-393 938h96l314 -750l288 750h54l280 -750l320 750h98zM782 1320l193 -297h-69l-181 198l-182 -198h-69l197 297h111z" />
    <glyph glyph-name="Ycircumflex" unicode="&#x176;" horiz-adv-x="1194" 
d="M1194 1397l-543 -647v-750h-108v750l-543 647h131l467 -553l465 553h131zM654 1796l193 -297h-69l-181 198l-182 -198h-69l197 297h111z" />
    <glyph glyph-name="ycircumflex" unicode="&#x177;" horiz-adv-x="854" 
d="M866 920l-688 -1391h-100l321 649l-387 742h103l334 -644l317 644h100zM496 1320l193 -297h-69l-181 198l-182 -198h-69l197 297h111z" />
    <glyph glyph-name="Ydieresis" unicode="&#x178;" horiz-adv-x="1194" 
d="M1194 1397l-543 -647v-750h-108v750l-543 647h131l467 -553l465 553h131zM688 1659q0 37 27 64t63 27q37 0 63.5 -27t26.5 -64q0 -36 -26.5 -63t-63.5 -27q-36 0 -63 27t-27 63zM326 1659q0 37 26.5 64t63.5 27q36 0 63 -27t27 -64q0 -36 -27 -63t-63 -27q-37 0 -63.5 27
t-26.5 63z" />
    <glyph glyph-name="Zacute" unicode="&#x179;" horiz-adv-x="1300" 
d="M1233 1397l10 -39l-1046 -1268h1054v-90h-1222l-11 31l1047 1276h-999v90h1167zM911 1832l-311 -319h-68l213 319h166z" />
    <glyph glyph-name="zacute" unicode="&#x17a;" horiz-adv-x="811" 
d="M780 920l8 -31l-604 -799h604v-90h-757l-11 31l609 798h-570v91h721zM670 1386l-311 -319h-68l213 319h166z" />
    <glyph glyph-name="Zdotaccent" unicode="&#x17b;" horiz-adv-x="1300" 
d="M1233 1397l10 -39l-1046 -1268h1054v-90h-1222l-11 31l1047 1276h-999v90h1167zM559 1658q0 37 26.5 64t63.5 27t63.5 -27t26.5 -64q0 -36 -26.5 -63t-63.5 -27t-63.5 27t-26.5 63z" />
    <glyph glyph-name="zdotaccent" unicode="&#x17c;" horiz-adv-x="811" 
d="M780 920l8 -31l-604 -799h604v-90h-757l-11 31l609 798h-570v91h721zM316 1212q0 37 26.5 64t63.5 27t63.5 -27t26.5 -64q0 -36 -26.5 -63t-63.5 -27t-63.5 27t-26.5 63z" />
    <glyph glyph-name="Zcaron" unicode="&#x17d;" horiz-adv-x="1300" 
d="M1233 1397l10 -39l-1046 -1268h1054v-90h-1222l-11 31l1047 1276h-999v90h1167zM716 1496h-125l-222 335h78l205 -223l203 223h78z" />
    <glyph glyph-name="zcaron" unicode="&#x17e;" horiz-adv-x="811" 
d="M780 920l8 -31l-604 -799h604v-90h-757l-11 31l609 798h-570v91h721zM472 1049h-125l-222 335h78l205 -223l203 223h78z" />
    <glyph glyph-name="florin" unicode="&#x192;" horiz-adv-x="1139" 
d="M735 1067h223l-22 -96h-219l-248 -1141q-30 -142 -92.5 -201t-183.5 -59q-81 0 -179 31l23 100q88 -23 145 -23q74 0 109.5 35t52.5 115l246 1143h-168l18 96h168l49 213q51 215 265 215q61 0 182 -33l-21 -98q-81 20 -153 20q-60 0 -97 -28.5t-65 -149.5z" />
    <glyph glyph-name="clickdental" unicode="&#x1c0;" horiz-adv-x="455" 
d="M176 1397h98v-1868h-98v1868z" />
    <glyph glyph-name="clicklateral" unicode="&#x1c1;" horiz-adv-x="910" 
d="M176 1397h98v-1868h-98v1868zM631 1397h98v-1868h-98v1868z" />
    <glyph glyph-name="clickretroflex" unicode="&#x1c3;" horiz-adv-x="362" 
d="M248 1397l-35 -1004h-63l-35 1004h133zM248 199v-199h-133v199h133z" />
    <glyph glyph-name="DZcaron" unicode="&#x1c4;" horiz-adv-x="2816" 
d="M162 1397h489q371 0 566.5 -195t195.5 -504q0 -303 -193.5 -500.5t-549.5 -197.5h-508v1397zM270 1307v-1217h394q271 0 451.5 166.5t180.5 441.5q0 269 -178 439t-461 170h-387zM2749 1397l10 -39l-1046 -1268h1054v-90h-1222l-11 31l1047 1276h-999v90h1167zM2215 1499
h-125l-222 335h78l205 -223l203 223h78z" />
    <glyph glyph-name="Dzcaron" unicode="&#x1c5;" horiz-adv-x="2327" 
d="M162 1397h489q371 0 566.5 -195t195.5 -504q0 -303 -193.5 -500.5t-549.5 -197.5h-508v1397zM270 1307v-1217h394q271 0 451.5 166.5t180.5 441.5q0 269 -178 439t-461 170h-387zM2296 920l8 -31l-604 -799h604v-90h-757l-11 31l609 798h-570v91h721zM1985 1023h-125
l-222 335h78l205 -223l203 223h78z" />
    <glyph glyph-name="dzcaron" unicode="&#x1c6;" horiz-adv-x="1855" 
d="M920 1397v-1397h-99v72q-126 -90 -272 -90q-196 0 -330.5 138.5t-134.5 340.5q0 205 132.5 341t332.5 136q127 0 272 -74v533h99zM821 162v594q-132 86 -268 86q-159 0 -262 -105.5t-103 -269.5q0 -167 110 -278t275 -111q128 0 248 84zM1824 920l8 -31l-604 -799h604
v-90h-757l-11 31l609 798h-570v91h721zM1513 1023h-125l-222 335h78l205 -223l203 223h78z" />
    <glyph glyph-name="LJ" unicode="&#x1c7;" horiz-adv-x="1387" 
d="M270 1397v-1307h691v-90h-799v1397h108zM1237 1397v-1397q0 -231 -87 -319t-206 -88q-28 0 -65 4l-10 102q34 -8 64 -8q196 0 196 280v1426h108z" />
    <glyph glyph-name="Lj" unicode="&#x1c8;" horiz-adv-x="1346" 
d="M270 1397v-1307h691v-90h-799v1397h108zM1199 1397v-168h-99v168h99zM1199 920v-1022q0 -173 -73 -271t-200 -98l-22 84q105 2 150.5 69t45.5 218v1020h99z" />
    <glyph glyph-name="lj" unicode="&#x1c9;" horiz-adv-x="770" 
d="M242 1397v-1397h-99v1397h99zM623 1397v-168h-99v168h99zM623 920v-1022q0 -173 -73 -271t-200 -98l-22 84q105 2 150.5 69t45.5 218v1020h99z" />
    <glyph glyph-name="NJ" unicode="&#x1ca;" horiz-adv-x="2005" 
d="M1419 1397v-1397h-90l-1061 1221v-1221h-108v1397h92l1059 -1221v1221h108zM1855 1397v-1397q0 -231 -87 -319t-206 -88q-28 0 -65 4l-10 102q34 -8 64 -8q196 0 196 280v1426h108z" />
    <glyph glyph-name="Nj" unicode="&#x1cb;" horiz-adv-x="1964" 
d="M1419 1397v-1397h-90l-1061 1221v-1221h-108v1397h92l1059 -1221v1221h108zM1817 1397v-168h-99v168h99zM1817 920v-1022q0 -173 -73 -271t-200 -98l-22 84q105 2 150.5 69t45.5 218v1020h99z" />
    <glyph glyph-name="nj" unicode="&#x1cc;" horiz-adv-x="1389" 
d="M225 920v-160h4q115 178 303 178q156 0 249 -100t93 -277v-561h-98v524q0 318 -250 318q-183 0 -301 -197v-645h-98v920h98zM1242 1397v-168h-99v168h99zM1242 920v-1022q0 -173 -73 -271t-200 -98l-22 84q105 2 150.5 69t45.5 218v1020h99z" />
    <glyph glyph-name="Acaron" unicode="&#x1cd;" horiz-adv-x="1366" 
d="M713 1407l645 -1407h-113l-221 483h-682l-221 -483h-113l645 1407h60zM983 573l-301 658l-299 -658h600zM748 1509h-125l-222 335h78l205 -223l203 223h78z" />
    <glyph glyph-name="acaron" unicode="&#x1ce;" horiz-adv-x="874" 
d="M862 160v-82q-127 -96 -186 -96q-34 0 -47 22.5t-19 91.5q-145 -114 -288 -114q-104 0 -176 68t-72 165q0 150 139 236.5t397 99.5v117q0 188 -204 188q-130 0 -281 -117v101q156 98 297 98q125 0 206 -61.5t81 -178.5v-573q0 -47 22 -47q28 0 131 82zM610 182v287
q-189 7 -313.5 -66.5t-124.5 -187.5q0 -64 52 -108t130 -44q126 0 256 119zM533 1041h-125l-222 335h78l205 -223l203 223h78z" />
    <glyph glyph-name="Icaron" unicode="&#x1cf;" horiz-adv-x="426" 
d="M268 1397v-1397h-108v1397h108zM280 1499h-125l-222 335h78l205 -223l203 223h78z" />
    <glyph glyph-name="icaron" unicode="&#x1d0;" horiz-adv-x="385" 
d="M242 920v-920h-99v920h99zM258 1023h-125l-222 335h78l205 -223l203 223h78z" />
    <glyph glyph-name="Ocaron" unicode="&#x1d1;" horiz-adv-x="1686" 
d="M842 1415q310 0 525.5 -208.5t215.5 -508.5q0 -299 -215.5 -507.5t-525.5 -208.5q-309 0 -523.5 208.5t-214.5 507.5q0 300 214.5 508.5t523.5 208.5zM846 82q261 0 440.5 178.5t179.5 437.5q0 260 -179.5 438.5t-440.5 178.5q-262 0 -443.5 -178.5t-181.5 -438.5
q0 -259 181.5 -437.5t443.5 -178.5zM908 1517h-125l-222 335h78l205 -223l203 223h78z" />
    <glyph glyph-name="ocaron" unicode="&#x1d2;" horiz-adv-x="1110" 
d="M555 938q200 0 333.5 -137t133.5 -342q0 -204 -133.5 -340.5t-333.5 -136.5t-334.5 136.5t-134.5 340.5q0 205 134.5 342t334.5 137zM555 78q155 0 259 108.5t104 272.5q0 163 -104.5 273t-258.5 110q-156 0 -260.5 -109t-104.5 -274q0 -164 104.5 -272.5t260.5 -108.5z
M619 1041h-125l-222 335h78l205 -223l203 223h78z" />
    <glyph glyph-name="Ucaron" unicode="&#x1d3;" horiz-adv-x="1430" 
d="M1192 1397h108v-762q0 -313 -163 -483t-422 -170q-258 0 -421 168t-163 460v787h109v-783q0 -250 132.5 -391t342.5 -141q212 0 344.5 142.5t132.5 404.5v768zM780 1499h-125l-222 335h78l205 -223l203 223h78z" />
    <glyph glyph-name="ucaron" unicode="&#x1d4;" 
d="M776 0v152h-4q-64 -92 -131.5 -131t-171.5 -39q-148 0 -245 96t-97 272v570h98v-568q0 -128 70 -201t182 -73q96 0 163.5 44t135.5 152v646h98v-920h-98zM565 1023h-125l-222 335h78l205 -223l203 223h78z" />
    <glyph glyph-name="Udieresismacron" unicode="&#x1d5;" horiz-adv-x="1430" 
d="M1192 1397h108v-762q0 -313 -163 -483t-422 -170q-258 0 -421 168t-163 460v787h109v-783q0 -250 132.5 -391t342.5 -141q212 0 344.5 142.5t132.5 404.5v768zM806 1589q0 37 27 64t63 27q37 0 63.5 -27t26.5 -64q0 -36 -26.5 -63t-63.5 -27q-36 0 -63 27t-27 63z
M444 1589q0 37 26.5 64t63.5 27q36 0 63 -27t27 -64q0 -36 -27 -63t-63 -27q-37 0 -63.5 27t-26.5 63zM192 1885h1047v-103h-1047v103z" />
    <glyph glyph-name="udieresismacron" unicode="&#x1d6;" 
d="M776 0v152h-4q-64 -92 -131.5 -131t-171.5 -39q-148 0 -245 96t-97 272v570h98v-568q0 -128 70 -201t182 -73q96 0 163.5 44t135.5 152v646h98v-920h-98zM591 1113q0 37 27 64t63 27q37 0 63.5 -27t26.5 -64q0 -36 -26.5 -63t-63.5 -27q-36 0 -63 27t-27 63zM229 1113
q0 37 26.5 64t63.5 27q36 0 63 -27t27 -64q0 -36 -27 -63t-63 -27q-37 0 -63.5 27t-26.5 63zM-22 1409h1047v-103h-1047v103z" />
    <glyph glyph-name="Udieresisacute" unicode="&#x1d7;" horiz-adv-x="1430" 
d="M1192 1397h108v-762q0 -313 -163 -483t-422 -170q-258 0 -421 168t-163 460v787h109v-783q0 -250 132.5 -391t342.5 -141q212 0 344.5 142.5t132.5 404.5v768zM806 1589q0 37 27 64t63 27q37 0 63.5 -27t26.5 -64q0 -36 -26.5 -63t-63.5 -27q-36 0 -63 27t-27 63z
M444 1589q0 37 26.5 64t63.5 27q36 0 63 -27t27 -64q0 -36 -27 -63t-63 -27q-37 0 -63.5 27t-26.5 63zM905 2101l-311 -319h-68l213 319h166z" />
    <glyph glyph-name="udieresisacute" unicode="&#x1d8;" 
d="M776 0v152h-4q-64 -92 -131.5 -131t-171.5 -39q-148 0 -245 96t-97 272v570h98v-568q0 -128 70 -201t182 -73q96 0 163.5 44t135.5 152v646h98v-920h-98zM591 1113q0 37 27 64t63 27q37 0 63.5 -27t26.5 -64q0 -36 -26.5 -63t-63.5 -27q-36 0 -63 27t-27 63zM229 1113
q0 37 26.5 64t63.5 27q36 0 63 -27t27 -64q0 -36 -27 -63t-63 -27q-37 0 -63.5 27t-26.5 63zM691 1624l-311 -319h-68l213 319h166z" />
    <glyph glyph-name="Udieresiscaron" unicode="&#x1d9;" horiz-adv-x="1430" 
d="M1192 1397h108v-762q0 -313 -163 -483t-422 -170q-258 0 -421 168t-163 460v787h109v-783q0 -250 132.5 -391t342.5 -141q212 0 344.5 142.5t132.5 404.5v768zM806 1589q0 37 27 64t63 27q37 0 63.5 -27t26.5 -64q0 -36 -26.5 -63t-63.5 -27q-36 0 -63 27t-27 63z
M444 1589q0 37 26.5 64t63.5 27q36 0 63 -27t27 -64q0 -36 -27 -63t-63 -27q-37 0 -63.5 27t-26.5 63zM780 1782h-125l-222 335h78l205 -223l203 223h78z" />
    <glyph glyph-name="udieresiscaron" unicode="&#x1da;" 
d="M776 0v152h-4q-64 -92 -131.5 -131t-171.5 -39q-148 0 -245 96t-97 272v570h98v-568q0 -128 70 -201t182 -73q96 0 163.5 44t135.5 152v646h98v-920h-98zM591 1113q0 37 27 64t63 27q37 0 63.5 -27t26.5 -64q0 -36 -26.5 -63t-63.5 -27q-36 0 -63 27t-27 63zM229 1113
q0 37 26.5 64t63.5 27q36 0 63 -27t27 -64q0 -36 -27 -63t-63 -27q-37 0 -63.5 27t-26.5 63zM565 1305h-125l-222 335h78l205 -223l203 223h78z" />
    <glyph glyph-name="Udieresisgrave" unicode="&#x1db;" horiz-adv-x="1430" 
d="M1192 1397h108v-762q0 -313 -163 -483t-422 -170q-258 0 -421 168t-163 460v787h109v-783q0 -250 132.5 -391t342.5 -141q212 0 344.5 142.5t132.5 404.5v768zM806 1589q0 37 27 64t63 27q37 0 63.5 -27t26.5 -64q0 -36 -26.5 -63t-63.5 -27q-36 0 -63 27t-27 63z
M444 1589q0 37 26.5 64t63.5 27q36 0 63 -27t27 -64q0 -36 -27 -63t-63 -27q-37 0 -63.5 27t-26.5 63zM526 2101h166l213 -319h-68z" />
    <glyph glyph-name="udieresisgrave" unicode="&#x1dc;" 
d="M776 0v152h-4q-64 -92 -131.5 -131t-171.5 -39q-148 0 -245 96t-97 272v570h98v-568q0 -128 70 -201t182 -73q96 0 163.5 44t135.5 152v646h98v-920h-98zM591 1113q0 37 27 64t63 27q37 0 63.5 -27t26.5 -64q0 -36 -26.5 -63t-63.5 -27q-36 0 -63 27t-27 63zM229 1113
q0 37 26.5 64t63.5 27q36 0 63 -27t27 -64q0 -36 -27 -63t-63 -27q-37 0 -63.5 27t-26.5 63zM311 1624h166l213 -319h-68z" />
    <glyph glyph-name="Adieresismacron" unicode="&#x1de;" horiz-adv-x="1366" 
d="M713 1407l645 -1407h-113l-221 483h-682l-221 -483h-113l645 1407h60zM983 573l-301 658l-299 -658h600zM774 1599q0 37 27 64t63 27q37 0 63.5 -27t26.5 -64q0 -36 -26.5 -63t-63.5 -27q-36 0 -63 27t-27 63zM412 1599q0 37 26.5 64t63.5 27q36 0 63 -27t27 -64
q0 -36 -27 -63t-63 -27q-37 0 -63.5 27t-26.5 63zM160 1895h1047v-103h-1047v103z" />
    <glyph glyph-name="adieresismacron" unicode="&#x1df;" horiz-adv-x="874" 
d="M862 160v-82q-127 -96 -186 -96q-34 0 -47 22.5t-19 91.5q-145 -114 -288 -114q-104 0 -176 68t-72 165q0 150 139 236.5t397 99.5v117q0 188 -204 188q-130 0 -281 -117v101q156 98 297 98q125 0 206 -61.5t81 -178.5v-573q0 -47 22 -47q28 0 131 82zM610 182v287
q-189 7 -313.5 -66.5t-124.5 -187.5q0 -64 52 -108t130 -44q126 0 256 119zM559 1131q0 37 27 64t63 27q37 0 63.5 -27t26.5 -64q0 -36 -26.5 -63t-63.5 -27q-36 0 -63 27t-27 63zM197 1131q0 37 26.5 64t63.5 27q36 0 63 -27t27 -64q0 -36 -27 -63t-63 -27q-37 0 -63.5 27
t-26.5 63zM-54 1427h1047v-103h-1047v103z" />
    <glyph glyph-name="Adotmacron" unicode="&#x1e0;" horiz-adv-x="1366" 
d="M713 1407l645 -1407h-113l-221 483h-682l-221 -483h-113l645 1407h60zM983 573l-301 658l-299 -658h600zM593 1599q0 37 26.5 64t63.5 27t63.5 -27t26.5 -64q0 -36 -26.5 -63t-63.5 -27t-63.5 27t-26.5 63zM160 1895h1047v-103h-1047v103z" />
    <glyph glyph-name="adotmacron" unicode="&#x1e1;" horiz-adv-x="874" 
d="M862 160v-82q-127 -96 -186 -96q-34 0 -47 22.5t-19 91.5q-145 -114 -288 -114q-104 0 -176 68t-72 165q0 150 139 236.5t397 99.5v117q0 188 -204 188q-130 0 -281 -117v101q156 98 297 98q125 0 206 -61.5t81 -178.5v-573q0 -47 22 -47q28 0 131 82zM610 182v287
q-189 7 -313.5 -66.5t-124.5 -187.5q0 -64 52 -108t130 -44q126 0 256 119zM378 1131q0 37 26.5 64t63.5 27t63.5 -27t26.5 -64q0 -36 -26.5 -63t-63.5 -27t-63.5 27t-26.5 63zM-54 1427h1047v-103h-1047v103z" />
    <glyph glyph-name="AEmacron" unicode="&#x1e2;" horiz-adv-x="1772" 
d="M1675 1397v-90h-657v-557h643v-91h-643v-569h676v-90h-785v659h-409l-410 -659h-119l873 1397h831zM559 750h350v571zM309 1603h1047v-103h-1047v103z" />
    <glyph glyph-name="aemacron" unicode="&#x1e3;" horiz-adv-x="1366" 
d="M1290 498h-592v-121q0 -143 74.5 -221t190.5 -78q162 0 327 121v-113q-168 -104 -338 -104q-172 0 -293 143q-196 -143 -346 -143q-105 0 -175 67.5t-70 169.5q0 129 113.5 206.5t418.5 152.5v67q0 203 -184 203q-145 0 -305 -115v103q149 102 319 102q169 0 250 -141
q106 141 256 141q160 0 257 -122.5t97 -317.5zM698 578h484q-6 122 -78 193t-170 71q-97 0 -164 -72t-72 -192zM600 182v316q-438 -106 -438 -283q0 -64 49 -108t123 -44q110 0 266 119zM156 1144h1047v-103h-1047v103z" />
    <glyph glyph-name="Gcaron" unicode="&#x1e6;" horiz-adv-x="1473" 
d="M1331 1296v-122q-248 141 -495 141q-265 0 -441 -176t-176 -441t174 -440.5t473 -175.5q216 0 383 86v377h-295v90h404v-535q-247 -118 -496 -118q-325 0 -542.5 206t-217.5 514q0 306 213.5 509.5t536.5 203.5q220 0 479 -119zM795 1517h-125l-222 335h78l205 -223
l203 223h78z" />
    <glyph glyph-name="gcaron" unicode="&#x1e7;" horiz-adv-x="874" 
d="M854 920v-80h-209q127 -116 127 -244q0 -115 -49.5 -182t-118 -97.5t-182.5 -60t-143 -55.5t-29 -60q0 -40 37.5 -64t233 -35t263.5 -75t68 -170q0 -125 -109 -196.5t-303 -71.5q-193 0 -298 67.5t-105 178.5q0 180 268 223v4q-149 35 -149 131q0 97 184 150v4
q-121 36 -183.5 119.5t-62.5 185.5q0 145 101 236.5t290 91.5h369zM432 348q101 0 173.5 72.5t72.5 173.5t-72.5 172.5t-175.5 71.5q-102 0 -172 -70t-70 -170q0 -104 71 -177t173 -73zM446 -389q143 0 227.5 49t84.5 129q0 162 -293 162q-334 0 -334 -170t315 -170z
M510 1023h-125l-222 335h78l205 -223l203 223h78z" />
    <glyph glyph-name="Kcaron" unicode="&#x1e8;" horiz-adv-x="1087" 
d="M1069 1397l-668 -697l732 -700h-138l-731 698v-698h-108v1397h108v-695l670 695h135zM709 1499h-125l-222 335h78l205 -223l203 223h78z" />
    <glyph glyph-name="kcaron" unicode="&#x1e9;" horiz-adv-x="874" 
d="M219 1397v-1397h-98v1397h98zM870 920l-503 -437l581 -483h-135l-580 483l508 437h129zM599 1499h-125l-222 335h78l205 -223l203 223h78z" />
    <glyph glyph-name="Oogonek" unicode="&#x1ea;" horiz-adv-x="1686" 
d="M842 1415q310 0 525.5 -208.5t215.5 -508.5q0 -299 -215.5 -507.5t-525.5 -208.5q-309 0 -523.5 208.5t-214.5 507.5q0 300 214.5 508.5t523.5 208.5zM846 82q261 0 440.5 178.5t179.5 437.5q0 260 -179.5 438.5t-440.5 178.5q-262 0 -443.5 -178.5t-181.5 -438.5
q0 -259 181.5 -437.5t443.5 -178.5zM981 -297v-78q-44 -11 -83 -11q-87 0 -140 48.5t-53 120.5q0 94 62.5 147t86.5 53h66q-70 -66 -89.5 -98t-19.5 -69q0 -115 136 -115q16 0 34 2z" />
    <glyph glyph-name="oogonek" unicode="&#x1eb;" horiz-adv-x="1110" 
d="M555 938q200 0 333.5 -137t133.5 -342q0 -204 -133.5 -340.5t-333.5 -136.5t-334.5 136.5t-134.5 340.5q0 205 134.5 342t334.5 137zM555 78q155 0 259 108.5t104 272.5q0 163 -104.5 273t-258.5 110q-156 0 -260.5 -109t-104.5 -274q0 -164 104.5 -272.5t260.5 -108.5z
M692 -297v-78q-44 -11 -83 -11q-87 0 -140 48.5t-53 120.5q0 94 62.5 147t86.5 53h66q-70 -66 -89.5 -98t-19.5 -69q0 -115 136 -115q16 0 34 2z" />
    <glyph glyph-name="Oogonekmacron" unicode="&#x1ec;" horiz-adv-x="1686" 
d="M842 1415q310 0 525.5 -208.5t215.5 -508.5q0 -299 -215.5 -507.5t-525.5 -208.5q-309 0 -523.5 208.5t-214.5 507.5q0 300 214.5 508.5t523.5 208.5zM846 82q261 0 440.5 178.5t179.5 437.5q0 260 -179.5 438.5t-440.5 178.5q-262 0 -443.5 -178.5t-181.5 -438.5
q0 -259 181.5 -437.5t443.5 -178.5zM981 -297v-78q-44 -11 -83 -11q-87 0 -140 48.5t-53 120.5q0 94 62.5 147t86.5 53h66q-70 -66 -89.5 -98t-19.5 -69q0 -115 136 -115q16 0 34 2zM320 1620h1047v-103h-1047v103z" />
    <glyph glyph-name="oogonekmacron" unicode="&#x1ed;" horiz-adv-x="1110" 
d="M555 938q200 0 333.5 -137t133.5 -342q0 -204 -133.5 -340.5t-333.5 -136.5t-334.5 136.5t-134.5 340.5q0 205 134.5 342t334.5 137zM555 78q155 0 259 108.5t104 272.5q0 163 -104.5 273t-258.5 110q-156 0 -260.5 -109t-104.5 -274q0 -164 104.5 -272.5t260.5 -108.5z
M692 -297v-78q-44 -11 -83 -11q-87 0 -140 48.5t-53 120.5q0 94 62.5 147t86.5 53h66q-70 -66 -89.5 -98t-19.5 -69q0 -115 136 -115q16 0 34 2zM31 1144h1047v-103h-1047v103z" />
    <glyph glyph-name="DZ" unicode="&#x1f1;" horiz-adv-x="2816" 
d="M162 1397h489q371 0 566.5 -195t195.5 -504q0 -303 -193.5 -500.5t-549.5 -197.5h-508v1397zM270 1307v-1217h394q271 0 451.5 166.5t180.5 441.5q0 269 -178 439t-461 170h-387zM2749 1397l10 -39l-1046 -1268h1054v-90h-1222l-11 31l1047 1276h-999v90h1167z" />
    <glyph glyph-name="Dz" unicode="&#x1f2;" horiz-adv-x="2327" 
d="M162 1397h489q371 0 566.5 -195t195.5 -504q0 -303 -193.5 -500.5t-549.5 -197.5h-508v1397zM270 1307v-1217h394q271 0 451.5 166.5t180.5 441.5q0 269 -178 439t-461 170h-387zM2296 920l8 -31l-604 -799h604v-90h-757l-11 31l609 798h-570v91h721z" />
    <glyph glyph-name="dz" unicode="&#x1f3;" horiz-adv-x="1855" 
d="M920 1397v-1397h-99v72q-126 -90 -272 -90q-196 0 -330.5 138.5t-134.5 340.5q0 205 132.5 341t332.5 136q127 0 272 -74v533h99zM821 162v594q-132 86 -268 86q-159 0 -262 -105.5t-103 -269.5q0 -167 110 -278t275 -111q128 0 248 84zM1824 920l8 -31l-604 -799h604
v-90h-757l-11 31l609 798h-570v91h721z" />
    <glyph glyph-name="Gacute" unicode="&#x1f4;" horiz-adv-x="1473" 
d="M1331 1296v-122q-248 141 -495 141q-265 0 -441 -176t-176 -441t174 -440.5t473 -175.5q216 0 383 86v377h-295v90h404v-535q-247 -118 -496 -118q-325 0 -542.5 206t-217.5 514q0 306 213.5 509.5t536.5 203.5q220 0 479 -119zM920 1836l-311 -319h-68l213 319h166z" />
    <glyph glyph-name="gacute" unicode="&#x1f5;" horiz-adv-x="874" 
d="M854 920v-80h-209q127 -116 127 -244q0 -115 -49.5 -182t-118 -97.5t-182.5 -60t-143 -55.5t-29 -60q0 -40 37.5 -64t233 -35t263.5 -75t68 -170q0 -125 -109 -196.5t-303 -71.5q-193 0 -298 67.5t-105 178.5q0 180 268 223v4q-149 35 -149 131q0 97 184 150v4
q-121 36 -183.5 119.5t-62.5 185.5q0 145 101 236.5t290 91.5h369zM432 348q101 0 173.5 72.5t72.5 173.5t-72.5 172.5t-175.5 71.5q-102 0 -172 -70t-70 -170q0 -104 71 -177t173 -73zM446 -389q143 0 227.5 49t84.5 129q0 162 -293 162q-334 0 -334 -170t315 -170z
M636 1342l-311 -319h-68l213 319h166z" />
    <glyph glyph-name="Ngrave" unicode="&#x1f8;" horiz-adv-x="1579" 
d="M1419 1397v-1397h-90l-1061 1221v-1221h-108v1397h92l1059 -1221v1221h108zM600 1818h166l213 -319h-68z" />
    <glyph glyph-name="ngrave" unicode="&#x1f9;" 
d="M225 920v-160h4q115 178 303 178q156 0 249 -100t93 -277v-561h-98v524q0 318 -250 318q-183 0 -301 -197v-645h-98v920h98zM311 1360h166l213 -319h-68z" />
    <glyph glyph-name="Aringacute" unicode="&#x1fa;" horiz-adv-x="1366" 
d="M713 1407l645 -1407h-113l-221 483h-682l-221 -483h-113l645 1407h60zM983 573l-301 658l-299 -658h600zM506 1687q0 74 52 125.5t126 51.5q73 0 124.5 -51.5t51.5 -125.5q0 -73 -51.5 -125.5t-124.5 -52.5t-125.5 52.5t-52.5 125.5zM805 1687q0 51 -35.5 86t-85.5 35
q-51 0 -87 -35t-36 -86q0 -50 36.5 -86t86.5 -36t85.5 36t35.5 86zM873 2285l-311 -319h-68l213 319h166z" />
    <glyph glyph-name="aringacute" unicode="&#x1fb;" horiz-adv-x="874" 
d="M862 160v-82q-127 -96 -186 -96q-34 0 -47 22.5t-19 91.5q-145 -114 -288 -114q-104 0 -176 68t-72 165q0 150 139 236.5t397 99.5v117q0 188 -204 188q-130 0 -281 -117v101q156 98 297 98q125 0 206 -61.5t81 -178.5v-573q0 -47 22 -47q28 0 131 82zM610 182v287
q-189 7 -313.5 -66.5t-124.5 -187.5q0 -64 52 -108t130 -44q126 0 256 119zM291 1218q0 74 52 125.5t126 51.5q73 0 124.5 -51.5t51.5 -125.5q0 -73 -51.5 -125.5t-124.5 -52.5t-125.5 52.5t-52.5 125.5zM590 1218q0 51 -35.5 86t-85.5 35q-51 0 -87 -35t-36 -86
q0 -50 36.5 -86t86.5 -36t85.5 36t35.5 86zM659 1816l-311 -319h-68l213 319h166z" />
    <glyph glyph-name="AEacute" unicode="&#x1fc;" horiz-adv-x="1772" 
d="M1675 1397v-90h-657v-557h643v-91h-643v-569h676v-90h-785v659h-409l-410 -659h-119l873 1397h831zM559 750h350v571zM1022 1818l-311 -319h-68l213 319h166z" />
    <glyph glyph-name="aeacute" unicode="&#x1fd;" horiz-adv-x="1366" 
d="M1290 498h-592v-121q0 -143 74.5 -221t190.5 -78q162 0 327 121v-113q-168 -104 -338 -104q-172 0 -293 143q-196 -143 -346 -143q-105 0 -175 67.5t-70 169.5q0 129 113.5 206.5t418.5 152.5v67q0 203 -184 203q-145 0 -305 -115v103q149 102 319 102q169 0 250 -141
q106 141 256 141q160 0 257 -122.5t97 -317.5zM698 578h484q-6 122 -78 193t-170 71q-97 0 -164 -72t-72 -192zM600 182v316q-438 -106 -438 -283q0 -64 49 -108t123 -44q110 0 266 119zM869 1360l-311 -319h-68l213 319h166z" />
    <glyph glyph-name="Oslashacute" unicode="&#x1fe;" horiz-adv-x="1686" 
d="M399 121l-129 -144l-77 60l131 145q-220 218 -220 516q0 300 214.5 508.5t523.5 208.5q255 0 461 -151l129 143l75 -51l-137 -152q213 -209 213 -506q0 -299 -215.5 -507.5t-525.5 -208.5q-237 0 -443 139zM399 264l832 922q-160 129 -385 129q-262 0 -443.5 -178.5
t-181.5 -438.5q0 -253 178 -434zM1300 1124l-829 -923q165 -119 375 -119q261 0 440.5 178.5t179.5 437.5q0 237 -166 426zM1033 1836l-311 -319h-68l213 319h166z" />
    <glyph glyph-name="oslashacute" unicode="&#x1ff;" horiz-adv-x="1110" 
d="M270 74l-116 -135l-68 61l119 135q-119 130 -119 324q0 205 134.5 342t334.5 137q160 0 281 -90l108 123l64 -51l-111 -127q125 -140 125 -334q0 -204 -133.5 -340.5t-333.5 -136.5q-159 0 -285 92zM272 211l496 561q-90 70 -213 70q-156 0 -260.5 -109t-104.5 -274
q0 -141 82 -248zM827 713l-489 -563q100 -72 217 -72q155 0 259 108.5t104 272.5q0 158 -91 254zM744 1392l-311 -319h-68l213 319h166z" />
    <glyph glyph-name="Adblgrave" unicode="&#x200;" horiz-adv-x="1366" 
d="M713 1407l645 -1407h-113l-221 483h-682l-221 -483h-113l645 1407h60zM983 573l-301 658l-299 -658h600zM399 1799h151l193 -290h-62zM623 1801h151l193 -290h-62z" />
    <glyph glyph-name="adblgrave" unicode="&#x201;" horiz-adv-x="874" 
d="M862 160v-82q-127 -96 -186 -96q-34 0 -47 22.5t-19 91.5q-145 -114 -288 -114q-104 0 -176 68t-72 165q0 150 139 236.5t397 99.5v117q0 188 -204 188q-130 0 -281 -117v101q156 98 297 98q125 0 206 -61.5t81 -178.5v-573q0 -47 22 -47q28 0 131 82zM610 182v287
q-189 7 -313.5 -66.5t-124.5 -187.5q0 -64 52 -108t130 -44q126 0 256 119zM184 1331h151l193 -290h-62zM408 1333h151l193 -290h-62z" />
    <glyph glyph-name="Ainvertedbreve" unicode="&#x202;" horiz-adv-x="1366" 
d="M713 1407l645 -1407h-113l-221 483h-682l-221 -483h-113l645 1407h60zM983 573l-301 658l-299 -658h600zM883 1742h80q-89 -233 -277 -233q-179 0 -283 233h84q66 -137 197 -137q127 0 199 137z" />
    <glyph glyph-name="ainvertedbreve" unicode="&#x203;" horiz-adv-x="874" 
d="M862 160v-82q-127 -96 -186 -96q-34 0 -47 22.5t-19 91.5q-145 -114 -288 -114q-104 0 -176 68t-72 165q0 150 139 236.5t397 99.5v117q0 188 -204 188q-130 0 -281 -117v101q156 98 297 98q125 0 206 -61.5t81 -178.5v-573q0 -47 22 -47q28 0 131 82zM610 182v287
q-189 7 -313.5 -66.5t-124.5 -187.5q0 -64 52 -108t130 -44q126 0 256 119zM668 1274h80q-89 -233 -277 -233q-179 0 -283 233h84q66 -137 197 -137q127 0 199 137z" />
    <glyph glyph-name="Edblgrave" unicode="&#x204;" 
d="M926 1397v-90h-654v-559h637v-91h-637v-567h670v-90h-778v1397h762zM269 1789h151l193 -290h-62zM493 1791h151l193 -290h-62z" />
    <glyph glyph-name="edblgrave" unicode="&#x205;" horiz-adv-x="981" 
d="M911 494h-725q-3 -24 -3 -48q0 -154 110 -261t260 -107q175 0 342 137v-111q-158 -122 -354 -122q-199 0 -329 138t-130 351q0 202 120 334.5t302 132.5q171 0 289 -119.5t118 -324.5zM199 573h596q-52 269 -291 269q-113 0 -195.5 -70.5t-109.5 -198.5zM212 1331h151
l193 -290h-62zM436 1333h151l193 -290h-62z" />
    <glyph glyph-name="Einvertedbreve" unicode="&#x206;" 
d="M926 1397v-90h-654v-559h637v-91h-637v-567h670v-90h-778v1397h762zM753 1732h80q-89 -233 -277 -233q-179 0 -283 233h84q66 -137 197 -137q127 0 199 137z" />
    <glyph glyph-name="einvertedbreve" unicode="&#x207;" horiz-adv-x="981" 
d="M911 494h-725q-3 -24 -3 -48q0 -154 110 -261t260 -107q175 0 342 137v-111q-158 -122 -354 -122q-199 0 -329 138t-130 351q0 202 120 334.5t302 132.5q171 0 289 -119.5t118 -324.5zM199 573h596q-52 269 -291 269q-113 0 -195.5 -70.5t-109.5 -198.5zM696 1274h80
q-89 -233 -277 -233q-179 0 -283 233h84q66 -137 197 -137q127 0 199 137z" />
    <glyph glyph-name="Idblgrave" unicode="&#x208;" horiz-adv-x="426" 
d="M268 1397v-1397h-108v1397h108zM-70 1789h151l193 -290h-62zM154 1791h151l193 -290h-62z" />
    <glyph glyph-name="idblgrave" unicode="&#x209;" horiz-adv-x="385" 
d="M242 920v-920h-99v920h99zM-92 1313h151l193 -290h-62zM132 1315h151l193 -290h-62z" />
    <glyph glyph-name="Iinvertedbreve" unicode="&#x20a;" horiz-adv-x="426" 
d="M268 1397v-1397h-108v1397h108zM414 1732h80q-89 -233 -277 -233q-179 0 -283 233h84q66 -137 197 -137q127 0 199 137z" />
    <glyph glyph-name="iinvertedbreve" unicode="&#x20b;" horiz-adv-x="385" 
d="M242 920v-920h-99v920h99zM392 1256h80q-89 -233 -277 -233q-179 0 -283 233h84q66 -137 197 -137q127 0 199 137z" />
    <glyph glyph-name="Odblgrave" unicode="&#x20c;" horiz-adv-x="1686" 
d="M842 1415q310 0 525.5 -208.5t215.5 -508.5q0 -299 -215.5 -507.5t-525.5 -208.5q-309 0 -523.5 208.5t-214.5 507.5q0 300 214.5 508.5t523.5 208.5zM846 82q261 0 440.5 178.5t179.5 437.5q0 260 -179.5 438.5t-440.5 178.5q-262 0 -443.5 -178.5t-181.5 -438.5
q0 -259 181.5 -437.5t443.5 -178.5zM559 1807h151l193 -290h-62zM783 1809h151l193 -290h-62z" />
    <glyph glyph-name="odblgrave" unicode="&#x20d;" horiz-adv-x="1110" 
d="M555 938q200 0 333.5 -137t133.5 -342q0 -204 -133.5 -340.5t-333.5 -136.5t-334.5 136.5t-134.5 340.5q0 205 134.5 342t334.5 137zM555 78q155 0 259 108.5t104 272.5q0 163 -104.5 273t-258.5 110q-156 0 -260.5 -109t-104.5 -274q0 -164 104.5 -272.5t260.5 -108.5z
M270 1331h151l193 -290h-62zM494 1333h151l193 -290h-62z" />
    <glyph glyph-name="Oinvertedbreve" unicode="&#x20e;" horiz-adv-x="1686" 
d="M842 1415q310 0 525.5 -208.5t215.5 -508.5q0 -299 -215.5 -507.5t-525.5 -208.5q-309 0 -523.5 208.5t-214.5 507.5q0 300 214.5 508.5t523.5 208.5zM846 82q261 0 440.5 178.5t179.5 437.5q0 260 -179.5 438.5t-440.5 178.5q-262 0 -443.5 -178.5t-181.5 -438.5
q0 -259 181.5 -437.5t443.5 -178.5zM1043 1750h80q-89 -233 -277 -233q-179 0 -283 233h84q66 -137 197 -137q127 0 199 137z" />
    <glyph glyph-name="oinvertedbreve" unicode="&#x20f;" horiz-adv-x="1110" 
d="M555 938q200 0 333.5 -137t133.5 -342q0 -204 -133.5 -340.5t-333.5 -136.5t-334.5 136.5t-134.5 340.5q0 205 134.5 342t334.5 137zM555 78q155 0 259 108.5t104 272.5q0 163 -104.5 273t-258.5 110q-156 0 -260.5 -109t-104.5 -274q0 -164 104.5 -272.5t260.5 -108.5z
M754 1274h80q-89 -233 -277 -233q-179 0 -283 233h84q66 -137 197 -137q127 0 199 137z" />
    <glyph glyph-name="Rdblgrave" unicode="&#x210;" horiz-adv-x="1174" 
d="M162 1397h358q225 0 344 -97.5t119 -263.5q0 -242 -266 -340q69 -33 186 -213l316 -483h-127l-244 383q-122 192 -190 239.5t-199 47.5h-189v-670h-108v1397zM270 1307v-547h232q177 0 270.5 71.5t93.5 202.5q0 129 -95 201t-273 72h-228zM406 1789h151l193 -290h-62z
M630 1791h151l193 -290h-62z" />
    <glyph glyph-name="rdblgrave" unicode="&#x211;" horiz-adv-x="682" 
d="M764 829l-57 -92q-115 105 -185 105q-138 0 -295 -264v-578h-98v920h98v-242h4q165 260 322 260q90 0 211 -109zM162 1331h151l193 -290h-62zM386 1333h151l193 -290h-62z" />
    <glyph glyph-name="Rinvertedbreve" unicode="&#x212;" horiz-adv-x="1174" 
d="M162 1397h358q225 0 344 -97.5t119 -263.5q0 -242 -266 -340q69 -33 186 -213l316 -483h-127l-244 383q-122 192 -190 239.5t-199 47.5h-189v-670h-108v1397zM270 1307v-547h232q177 0 270.5 71.5t93.5 202.5q0 129 -95 201t-273 72h-228zM890 1732h80
q-89 -233 -277 -233q-179 0 -283 233h84q66 -137 197 -137q127 0 199 137z" />
    <glyph glyph-name="rinvertedbreve" unicode="&#x213;" horiz-adv-x="682" 
d="M764 829l-57 -92q-115 105 -185 105q-138 0 -295 -264v-578h-98v920h98v-242h4q165 260 322 260q90 0 211 -109zM646 1274h80q-89 -233 -277 -233q-179 0 -283 233h84q66 -137 197 -137q127 0 199 137z" />
    <glyph glyph-name="Udblgrave" unicode="&#x214;" horiz-adv-x="1430" 
d="M1192 1397h108v-762q0 -313 -163 -483t-422 -170q-258 0 -421 168t-163 460v787h109v-783q0 -250 132.5 -391t342.5 -141q212 0 344.5 142.5t132.5 404.5v768zM431 1789h151l193 -290h-62zM655 1791h151l193 -290h-62z" />
    <glyph glyph-name="udblgrave" unicode="&#x215;" 
d="M776 0v152h-4q-64 -92 -131.5 -131t-171.5 -39q-148 0 -245 96t-97 272v570h98v-568q0 -128 70 -201t182 -73q96 0 163.5 44t135.5 152v646h98v-920h-98zM216 1313h151l193 -290h-62zM440 1315h151l193 -290h-62z" />
    <glyph glyph-name="Uinvertedbreve" unicode="&#x216;" horiz-adv-x="1430" 
d="M1192 1397h108v-762q0 -313 -163 -483t-422 -170q-258 0 -421 168t-163 460v787h109v-783q0 -250 132.5 -391t342.5 -141q212 0 344.5 142.5t132.5 404.5v768zM915 1732h80q-89 -233 -277 -233q-179 0 -283 233h84q66 -137 197 -137q127 0 199 137z" />
    <glyph glyph-name="uinvertedbreve" unicode="&#x217;" 
d="M776 0v152h-4q-64 -92 -131.5 -131t-171.5 -39q-148 0 -245 96t-97 272v570h98v-568q0 -128 70 -201t182 -73q96 0 163.5 44t135.5 152v646h98v-920h-98zM700 1256h80q-89 -233 -277 -233q-179 0 -283 233h84q66 -137 197 -137q127 0 199 137z" />
    <glyph glyph-name="Scommaaccent" unicode="&#x218;" horiz-adv-x="961" 
d="M819 1327v-119q-182 107 -313 107q-126 0 -210.5 -76.5t-84.5 -189.5q0 -81 50 -146t209 -125t232 -100t124 -116t51 -197q0 -161 -118 -272t-288 -111q-174 0 -358 122v127q203 -149 352 -149q124 0 209.5 80.5t85.5 197.5q0 89 -53 160.5t-215 133.5t-231.5 100
t-118 108.5t-48.5 181.5q0 154 118 262.5t284 108.5q163 0 323 -88zM551 -120v-156q0 -182 -133 -283v72q43 60 43 168h-43v199h133z" />
    <glyph glyph-name="scommaaccent" unicode="&#x219;" horiz-adv-x="725" 
d="M633 860v-106q-140 94 -252 94q-83 0 -140 -45t-57 -111q0 -47 34.5 -86.5t191 -99.5t204.5 -125t48 -145q0 -107 -87 -180.5t-215 -73.5q-139 0 -276 84v96q163 -84 289 -84q85 0 139.5 45t54.5 115q0 48 -35.5 88.5t-192 102.5t-203 122.5t-46.5 134.5
q0 105 86.5 178.5t210.5 73.5q113 0 246 -78zM439 -120v-156q0 -182 -133 -283v72q43 60 43 168h-43v199h133z" />
    <glyph glyph-name="Tcommaaccent" unicode="&#x21a;" horiz-adv-x="1174" 
d="M1165 1397v-90h-524v-1307h-109v1307h-524v90h1157zM652 -102v-156q0 -182 -133 -283v72q43 60 43 168h-43v199h133z" />
    <glyph glyph-name="tcommaaccent" unicode="&#x21b;" horiz-adv-x="618" 
d="M307 1225v-305h258v-80h-258v-547q0 -132 21.5 -173.5t115.5 -41.5q72 0 168 45v-94q-97 -47 -190 -47q-91 0 -152 52t-61 144v662h-248v80h248v219l67 86h31zM352 -120v-156q0 -182 -133 -283v72q43 60 43 168h-43v199h133z" />
    <glyph glyph-name="Hcaron" unicode="&#x21e;" horiz-adv-x="1473" 
d="M1311 1397v-1397h-109v662h-932v-662h-108v1397h108v-645h932v645h109zM801 1499h-125l-222 335h78l205 -223l203 223h78z" />
    <glyph glyph-name="hcaron" unicode="&#x21f;" 
d="M225 1397v-637h4q115 178 303 178q156 0 249 -100t93 -275v-563h-98v524q0 318 -250 318q-179 0 -301 -197v-645h-98v1397h98zM565 1499h-125l-222 335h78l205 -223l203 223h78z" />
    <glyph glyph-name="Adotaccent" unicode="&#x226;" horiz-adv-x="1366" 
d="M713 1407l645 -1407h-113l-221 483h-682l-221 -483h-113l645 1407h60zM983 573l-301 658l-299 -658h600zM593 1599q0 37 26.5 64t63.5 27t63.5 -27t26.5 -64q0 -36 -26.5 -63t-63.5 -27t-63.5 27t-26.5 63z" />
    <glyph glyph-name="adotaccent" unicode="&#x227;" horiz-adv-x="874" 
d="M862 160v-82q-127 -96 -186 -96q-34 0 -47 22.5t-19 91.5q-145 -114 -288 -114q-104 0 -176 68t-72 165q0 150 139 236.5t397 99.5v117q0 188 -204 188q-130 0 -281 -117v101q156 98 297 98q125 0 206 -61.5t81 -178.5v-573q0 -47 22 -47q28 0 131 82zM610 182v287
q-189 7 -313.5 -66.5t-124.5 -187.5q0 -64 52 -108t130 -44q126 0 256 119zM378 1131q0 37 26.5 64t63.5 27t63.5 -27t26.5 -64q0 -36 -26.5 -63t-63.5 -27t-63.5 27t-26.5 63z" />
    <glyph glyph-name="Ecedilla" unicode="&#x228;" 
d="M926 1397v-90h-654v-559h637v-91h-637v-567h670v-90h-778v1397h762zM597 1l-25 -88q127 -22 127 -129q0 -73 -55.5 -115.5t-146.5 -42.5q-43 0 -89 11l10 65q39 -3 68 -3q133 0 133 79q0 77 -127 80l43 143h62z" />
    <glyph glyph-name="ecedilla" unicode="&#x229;" horiz-adv-x="981" 
d="M911 494h-725q-3 -24 -3 -48q0 -154 110 -261t260 -107q175 0 342 137v-111q-158 -122 -354 -122q-199 0 -329 138t-130 351q0 202 120 334.5t302 132.5q171 0 289 -119.5t118 -324.5zM199 573h596q-52 269 -291 269q-113 0 -195.5 -70.5t-109.5 -198.5zM540 -17l-25 -88
q127 -22 127 -129q0 -73 -55.5 -115.5t-146.5 -42.5q-43 0 -89 11l10 65q39 -3 68 -3q133 0 133 79q0 77 -127 80l43 143h62z" />
    <glyph glyph-name="Odieresismacron" unicode="&#x22a;" horiz-adv-x="1686" 
d="M842 1415q310 0 525.5 -208.5t215.5 -508.5q0 -299 -215.5 -507.5t-525.5 -208.5q-309 0 -523.5 208.5t-214.5 507.5q0 300 214.5 508.5t523.5 208.5zM846 82q261 0 440.5 178.5t179.5 437.5q0 260 -179.5 438.5t-440.5 178.5q-262 0 -443.5 -178.5t-181.5 -438.5
q0 -259 181.5 -437.5t443.5 -178.5zM934 1607q0 37 27 64t63 27q37 0 63.5 -27t26.5 -64q0 -36 -26.5 -63t-63.5 -27q-36 0 -63 27t-27 63zM572 1607q0 37 26.5 64t63.5 27q36 0 63 -27t27 -64q0 -36 -27 -63t-63 -27q-37 0 -63.5 27t-26.5 63zM320 1903h1047v-103h-1047
v103z" />
    <glyph glyph-name="odieresismacron" unicode="&#x22b;" horiz-adv-x="1110" 
d="M555 938q200 0 333.5 -137t133.5 -342q0 -204 -133.5 -340.5t-333.5 -136.5t-334.5 136.5t-134.5 340.5q0 205 134.5 342t334.5 137zM555 78q155 0 259 108.5t104 272.5q0 163 -104.5 273t-258.5 110q-156 0 -260.5 -109t-104.5 -274q0 -164 104.5 -272.5t260.5 -108.5z
M645 1131q0 37 27 64t63 27q37 0 63.5 -27t26.5 -64q0 -36 -26.5 -63t-63.5 -27q-36 0 -63 27t-27 63zM283 1131q0 37 26.5 64t63.5 27q36 0 63 -27t27 -64q0 -36 -27 -63t-63 -27q-37 0 -63.5 27t-26.5 63zM31 1427h1047v-103h-1047v103z" />
    <glyph glyph-name="Otildemacron" unicode="&#x22c;" horiz-adv-x="1686" 
d="M842 1415q310 0 525.5 -208.5t215.5 -508.5q0 -299 -215.5 -507.5t-525.5 -208.5q-309 0 -523.5 208.5t-214.5 507.5q0 300 214.5 508.5t523.5 208.5zM846 82q261 0 440.5 178.5t179.5 437.5q0 260 -179.5 438.5t-440.5 178.5q-262 0 -443.5 -178.5t-181.5 -438.5
q0 -259 181.5 -437.5t443.5 -178.5zM1176 1714q5 -84 -44.5 -140.5t-123.5 -56.5q-50 0 -177.5 50.5t-172.5 50.5q-74 0 -86 -99h-66q0 87 44.5 141t123.5 54q66 0 185 -50t163 -50q79 0 92 100h62zM320 1919h1047v-103h-1047v103z" />
    <glyph glyph-name="otildemacron" unicode="&#x22d;" horiz-adv-x="1110" 
d="M555 938q200 0 333.5 -137t133.5 -342q0 -204 -133.5 -340.5t-333.5 -136.5t-334.5 136.5t-134.5 340.5q0 205 134.5 342t334.5 137zM555 78q155 0 259 108.5t104 272.5q0 163 -104.5 273t-258.5 110q-156 0 -260.5 -109t-104.5 -274q0 -164 104.5 -272.5t260.5 -108.5z
M887 1238q5 -84 -44.5 -140.5t-123.5 -56.5q-50 0 -177.5 50.5t-172.5 50.5q-74 0 -86 -99h-66q0 87 44.5 141t123.5 54q66 0 185 -50t163 -50q79 0 92 100h62zM31 1443h1047v-103h-1047v103z" />
    <glyph glyph-name="Odotaccent" unicode="&#x22e;" horiz-adv-x="1686" 
d="M842 1415q310 0 525.5 -208.5t215.5 -508.5q0 -299 -215.5 -507.5t-525.5 -208.5q-309 0 -523.5 208.5t-214.5 507.5q0 300 214.5 508.5t523.5 208.5zM846 82q261 0 440.5 178.5t179.5 437.5q0 260 -179.5 438.5t-440.5 178.5q-262 0 -443.5 -178.5t-181.5 -438.5
q0 -259 181.5 -437.5t443.5 -178.5zM753 1607q0 37 26.5 64t63.5 27t63.5 -27t26.5 -64q0 -36 -26.5 -63t-63.5 -27t-63.5 27t-26.5 63z" />
    <glyph glyph-name="odotaccent" unicode="&#x22f;" horiz-adv-x="1110" 
d="M555 938q200 0 333.5 -137t133.5 -342q0 -204 -133.5 -340.5t-333.5 -136.5t-334.5 136.5t-134.5 340.5q0 205 134.5 342t334.5 137zM555 78q155 0 259 108.5t104 272.5q0 163 -104.5 273t-258.5 110q-156 0 -260.5 -109t-104.5 -274q0 -164 104.5 -272.5t260.5 -108.5z
M464 1131q0 37 26.5 64t63.5 27t63.5 -27t26.5 -64q0 -36 -26.5 -63t-63.5 -27t-63.5 27t-26.5 63z" />
    <glyph glyph-name="Odotaccentmacron" unicode="&#x230;" horiz-adv-x="1686" 
d="M842 1415q310 0 525.5 -208.5t215.5 -508.5q0 -299 -215.5 -507.5t-525.5 -208.5q-309 0 -523.5 208.5t-214.5 507.5q0 300 214.5 508.5t523.5 208.5zM846 82q261 0 440.5 178.5t179.5 437.5q0 260 -179.5 438.5t-440.5 178.5q-262 0 -443.5 -178.5t-181.5 -438.5
q0 -259 181.5 -437.5t443.5 -178.5zM753 1607q0 37 26.5 64t63.5 27t63.5 -27t26.5 -64q0 -36 -26.5 -63t-63.5 -27t-63.5 27t-26.5 63zM320 1903h1047v-103h-1047v103z" />
    <glyph glyph-name="odotaccentmacron" unicode="&#x231;" horiz-adv-x="1110" 
d="M555 938q200 0 333.5 -137t133.5 -342q0 -204 -133.5 -340.5t-333.5 -136.5t-334.5 136.5t-134.5 340.5q0 205 134.5 342t334.5 137zM555 78q155 0 259 108.5t104 272.5q0 163 -104.5 273t-258.5 110q-156 0 -260.5 -109t-104.5 -274q0 -164 104.5 -272.5t260.5 -108.5z
M464 1131q0 37 26.5 64t63.5 27t63.5 -27t26.5 -64q0 -36 -26.5 -63t-63.5 -27t-63.5 27t-26.5 63zM31 1427h1047v-103h-1047v103z" />
    <glyph glyph-name="Ymacron" unicode="&#x232;" horiz-adv-x="1194" 
d="M1194 1397l-543 -647v-750h-108v750l-543 647h131l467 -553l465 553h131zM74 1603h1047v-103h-1047v103z" />
    <glyph glyph-name="ymacron" unicode="&#x233;" horiz-adv-x="854" 
d="M866 920l-688 -1391h-100l321 649l-387 742h103l334 -644l317 644h100zM-83 1126h1047v-103h-1047v103z" />
    <glyph glyph-name="commaturnedmod" unicode="&#x2bb;" horiz-adv-x="362" 
d="M115 963v155q0 182 133 283v-72q-43 -60 -43 -168h43v-198h-133z" />
    <glyph glyph-name="afii57929" unicode="&#x2bc;" horiz-adv-x="362" 
d="M248 1401v-156q0 -182 -133 -282v71q43 61 43 168h-43v199h133z" />
    <glyph glyph-name="circumflex" unicode="&#x2c6;" horiz-adv-x="682" 
d="M406 1384l217 -335h-78l-203 223l-205 -223h-78l222 335h125z" />
    <glyph glyph-name="caron" unicode="&#x2c7;" horiz-adv-x="682" 
d="M406 1049h-125l-222 335h78l205 -223l203 223h78z" />
    <glyph glyph-name="firsttonechinese" unicode="&#x2c9;" horiz-adv-x="682" 
d="M614 1276v-105h-546v105h546z" />
    <glyph glyph-name="breve" unicode="&#x2d8;" horiz-adv-x="682" 
d="M541 1325h80q-89 -233 -277 -233q-179 0 -283 233h84q66 -137 197 -137q127 0 199 137z" />
    <glyph glyph-name="dotaccent" unicode="&#x2d9;" horiz-adv-x="682" 
d="M250 1212q0 37 26.5 64t63.5 27t63.5 -27t26.5 -64q0 -36 -26.5 -63t-63.5 -27t-63.5 27t-26.5 63z" />
    <glyph glyph-name="ring" unicode="&#x2da;" horiz-adv-x="682" 
d="M164 1214q0 74 52 125.5t126 51.5q73 0 124.5 -51.5t51.5 -125.5q0 -73 -51.5 -125.5t-124.5 -52.5t-125.5 52.5t-52.5 125.5zM463 1214q0 51 -35.5 86t-85.5 35q-51 0 -87 -35t-36 -86q0 -50 36.5 -86t86.5 -36t85.5 36t35.5 86z" />
    <glyph glyph-name="ogonek" unicode="&#x2db;" horiz-adv-x="682" 
d="M475 -260v-78q-44 -11 -83 -11q-87 0 -140 48.5t-53 120.5q0 94 62.5 147t86.5 53h66q-70 -66 -89.5 -98t-19.5 -69q0 -115 136 -115q16 0 34 2z" />
    <glyph glyph-name="tilde" unicode="&#x2dc;" horiz-adv-x="682" 
d="M676 1317q5 -84 -44.5 -140.5t-123.5 -56.5q-50 0 -177.5 50.5t-172.5 50.5q-74 0 -86 -99h-66q0 87 44.5 141t123.5 54q66 0 185 -50t163 -50q79 0 92 100h62z" />
    <glyph glyph-name="hungarumlaut" unicode="&#x2dd;" horiz-adv-x="682" 
d="M788 1386l-311 -319h-67l213 319h165zM516 1386l-311 -319h-68l213 319h166z" />
    <glyph glyph-name="uni02EE" unicode="&#x2ee;" horiz-adv-x="811" 
d="M696 1401v-156q0 -182 -133 -282v71q43 61 43 168h-43v199h133zM248 1401v-156q0 -182 -133 -282v71q43 61 43 168h-43v199h133z" />
    <glyph glyph-name="gravecmb" unicode="&#x300;" horiz-adv-x="0" 
d="M-743 1386h166l213 -319h-68z" />
    <glyph glyph-name="acutecmb" unicode="&#x301;" horiz-adv-x="0" 
d="M-364 1386l-311 -319h-68l213 319h166z" />
    <glyph glyph-name="circumflexcmb" unicode="&#x302;" horiz-adv-x="0" 
d="M-397 1384l193 -297h-69l-181 198l-182 -198h-69l197 297h111z" />
    <glyph glyph-name="tildecmb" unicode="&#x303;" horiz-adv-x="0" 
d="M-194 1337q5 -65 -41 -108.5t-114 -43.5q-46 0 -164 39t-159 39q-68 0 -80 -76h-60q0 67 41 108.5t114 41.5q61 0 170.5 -38.5t150.5 -38.5q73 0 85 77h57z" />
    <glyph glyph-name="macroncmb" unicode="&#x304;" horiz-adv-x="0" 
d="M-1087 1315h1029v-87h-1029v87z" />
    <glyph glyph-name="brevecmb" unicode="&#x306;" horiz-adv-x="0" 
d="M-335 1345h79q-88 -184 -273 -184q-176 0 -278 184h83q65 -108 194 -108q124 0 195 108z" />
    <glyph glyph-name="dotaccentcmb" unicode="&#x307;" horiz-adv-x="0" 
d="M-567 1275q0 37 26.5 64t63.5 27t63.5 -27t26.5 -64q0 -36 -26.5 -63t-63.5 -27t-63.5 27t-26.5 63z" />
    <glyph glyph-name="dieresiscmb" unicode="&#x308;" horiz-adv-x="0" 
d="M-463 1212q0 37 27 64t63 27q37 0 63.5 -27t26.5 -64q0 -36 -26.5 -63t-63.5 -27q-36 0 -63 27t-27 63zM-825 1212q0 37 26.5 64t63.5 27q36 0 63 -27t27 -64q0 -36 -27 -63t-63 -27q-37 0 -63.5 27t-26.5 63z" />
    <glyph glyph-name="hookabovecmb" unicode="&#x309;" horiz-adv-x="0" 
d="M-532 1351l33 48q53 11 101 11q81 0 132 -24.5t51 -63.5q0 -22 -19 -47t-81 -62.5t-76 -52.5t-14 -28q0 -21 28 -40l-27 -9q-56 27 -56 57q0 14 13 31t69.5 55t71.5 59.5t15 39.5q0 23 -32 41t-76 18q-72 0 -117 -33h-16z" />
    <glyph glyph-name="ringcmb" unicode="&#x30a;" horiz-adv-x="0" 
d="M-653 1247q0 61 44 102.5t107 41.5q62 0 105.5 -41.5t43.5 -102.5q0 -59 -43.5 -102t-105.5 -43t-106.5 43t-44.5 102zM-400 1247q0 42 -30 70.5t-72 28.5q-43 0 -73.5 -28.5t-30.5 -70.5q0 -40 30.5 -69.5t73.5 -29.5q42 0 72 29.5t30 69.5z" />
    <glyph glyph-name="hungarumlautcmb" unicode="&#x30b;" horiz-adv-x="0" 
d="M-160 1386l-277 -274h-60l190 274h147zM-402 1386l-278 -274h-61l190 274h149z" />
    <glyph glyph-name="caroncmb" unicode="&#x30c;" horiz-adv-x="0" 
d="M-418 1102h-118l-209 282h73l194 -188l191 188h74z" />
    <glyph glyph-name="doublegravecmb" unicode="&#x30f;" horiz-adv-x="0" 
d="M-682 1386h151l193 -290h-62zM-458 1388h151l193 -290h-62z" />
    <glyph glyph-name="invertedbrevecmb" unicode="&#x311;" horiz-adv-x="0" 
d="M-80 1325h80q-89 -233 -277 -233q-179 0 -283 233h84q66 -137 197 -137q127 0 199 137z" />
    <glyph glyph-name="horncmb" unicode="&#x31b;" horiz-adv-x="0" 
d="M-257 1370l23 -135q26 -158 -95 -269l-11 63q36 59 20 153l-44 -8l-29 173z" />
    <glyph glyph-name="dotbelowcmb" unicode="&#x323;" horiz-adv-x="0" 
d="M-229 -140v-199h-133v199h133z" />
    <glyph glyph-name="dieresisbelowcmb" unicode="&#x324;" horiz-adv-x="0" 
d="M-320 -231q0 37 27 64t63 27q37 0 63.5 -27t26.5 -64q0 -36 -26.5 -63t-63.5 -27q-36 0 -63 27t-27 63zM-682 -231q0 37 26.5 64t63.5 27q36 0 63 -27t27 -64q0 -36 -27 -63t-63 -27q-37 0 -63.5 27t-26.5 63z" />
    <glyph glyph-name="ringbelowcmb" unicode="&#x325;" horiz-adv-x="0" 
d="M-682 -317q0 74 52 125.5t126 51.5q73 0 124.5 -51.5t51.5 -125.5q0 -73 -51.5 -125.5t-124.5 -52.5t-125.5 52.5t-52.5 125.5zM-383 -317q0 51 -35.5 86t-85.5 35q-51 0 -87 -35t-36 -86q0 -50 36.5 -86t86.5 -36t85.5 36t35.5 86z" />
    <glyph glyph-name="commabelowcmb" unicode="&#x326;" horiz-adv-x="0" 
d="M-229 -140v-156q0 -182 -133 -283v72q43 60 43 168h-43v199h133z" />
    <glyph glyph-name="cedillacmb" unicode="&#x327;" horiz-adv-x="0" 
d="M-445 -3l-25 -88q127 -22 127 -129q0 -73 -55.5 -115.5t-146.5 -42.5q-43 0 -89 11l10 65q39 -3 68 -3q133 0 133 79q0 77 -127 80l43 143h62z" />
    <glyph glyph-name="ogonekcmb" unicode="&#x328;" horiz-adv-x="0" 
d="M-308 -270v-78q-44 -11 -83 -11q-87 0 -140 48.5t-53 120.5q0 94 62.5 147t86.5 53h66q-70 -66 -89.5 -98t-19.5 -69q0 -115 136 -115q16 0 34 2z" />
    <glyph glyph-name="circumflexbelowcmb" unicode="&#x32d;" horiz-adv-x="0" 
d="M-335 -140l217 -335h-78l-203 223l-205 -223h-78l222 335h125z" />
    <glyph glyph-name="brevebelowcmb" unicode="&#x32e;" horiz-adv-x="0" 
d="M-202 -140h80q-89 -233 -277 -233q-179 0 -283 233h84q66 -137 197 -137q127 0 199 137z" />
    <glyph glyph-name="tildebelowcmb" unicode="&#x330;" horiz-adv-x="0" 
d="M-12 -140q5 -84 -44.5 -140.5t-123.5 -56.5q-50 0 -177.5 50.5t-172.5 50.5q-74 0 -86 -99h-66q0 87 44.5 141t123.5 54q66 0 185 -50t163 -50q79 0 92 100h62z" />
    <glyph glyph-name="macronbelowcmb" unicode="&#x331;" horiz-adv-x="0" 
d="M0 -140h1029v-87h-1029v87z" />
    <glyph glyph-name="soliduslongoverlaycmb" unicode="&#x338;" horiz-adv-x="0" 
d="M-375 1415h94l-449 -1433h-96z" />
    <glyph glyph-name="gravetonecmb" unicode="&#x340;" horiz-adv-x="0" 
d="M-743 1386h166l213 -319h-68z" />
    <glyph glyph-name="acutetonecmb" unicode="&#x341;" horiz-adv-x="0" 
d="M-364 1386l-311 -319h-68l213 319h166z" />
    <glyph glyph-name="dialytikatonoscmb" unicode="&#x344;" horiz-adv-x="0" 
d="M-463 1212q0 37 27 64t63 27q37 0 63.5 -27t26.5 -64q0 -36 -26.5 -63t-63.5 -27q-36 0 -63 27t-27 63zM-825 1212q0 37 26.5 64t63.5 27q36 0 63 -27t27 -64q0 -36 -27 -63t-63 -27q-37 0 -63.5 27t-26.5 63zM-364 1724l-311 -319h-68l213 319h166z" />
    <glyph glyph-name="combininggraphemejoiner" unicode="&#x34f;" horiz-adv-x="0" 
 />
    <glyph glyph-name="questiongreek" unicode="&#x37e;" horiz-adv-x="362" 
d="M248 920v-199h-133v199h133zM248 199v-156q0 -182 -133 -283v72q43 60 43 168h-43v199h133z" />
    <glyph glyph-name="dialytikatonos" unicode="&#x385;" horiz-adv-x="682" 
d="M432 1212q0 37 27 64t63 27q37 0 63.5 -27t26.5 -64q0 -36 -26.5 -63t-63.5 -27q-36 0 -63 27t-27 63zM70 1212q0 37 26.5 64t63.5 27q36 0 63 -27t27 -64q0 -36 -27 -63t-63 -27q-37 0 -63.5 27t-26.5 63zM530 1724l-311 -319h-68l213 319h166z" />
    <glyph glyph-name="anoteleia" unicode="&#x387;" horiz-adv-x="683" 
d="M726 700q0 -36 -26.5 -62.5t-62.5 -26.5q-37 0 -63 26.5t-26 62.5q0 37 26 63t63 26q36 0 62.5 -26t26.5 -63z" />
    <glyph glyph-name="uni0400" unicode="&#x400;" 
d="M926 1397v-90h-654v-559h637v-91h-637v-567h670v-90h-778v1397h762zM363 1818h166l213 -319h-68z" />
    <glyph glyph-name="afii10023" unicode="&#x401;" 
d="M926 1397v-90h-654v-559h637v-91h-637v-567h670v-90h-778v1397h762zM727 1749q37 0 63.5 -26.5t26.5 -63.5t-26.5 -63.5t-63.5 -26.5t-63.5 26.5t-26.5 63.5t26.5 63.5t63.5 26.5zM365 1749q37 0 63.5 -26.5t26.5 -63.5t-26.5 -63.5t-63.5 -26.5q-19 0 -35.5 7t-29 19.5
t-19.5 29t-7 34.5t7 34.5t19.5 29t29 19.5t35.5 7z" />
    <glyph glyph-name="afii10051" unicode="&#x402;" horiz-adv-x="1372" 
d="M473 1307h-463v90h1096v-90h-524v-492q18 25 50 47t70.5 39t80 27t79.5 10q99 0 177.5 -35t132.5 -95.5t83 -143.5t29 -179q0 -95 -28.5 -185.5t-83 -161t-134 -113.5t-182.5 -43q-12 0 -28.5 1t-34 3t-33.5 4.5t-27 5.5v106q9 -5 24 -8.5t31.5 -6t32.5 -4t27 -1.5
q73 0 132 30t100.5 84t64 130t22.5 168q0 77 -22.5 140.5t-64 108.5t-100.5 70t-132 25q-34 0 -70 -8.5t-71.5 -26.5t-67.5 -45.5t-57 -65.5v-692h-109v1307z" />
    <glyph glyph-name="afii10052" unicode="&#x403;" horiz-adv-x="936" 
d="M920 1397v-90h-652v-1307h-108v1397h760zM815 1855l-311 -319h-68l213 319h166z" />
    <glyph glyph-name="afii10053" unicode="&#x404;" horiz-adv-x="1386" 
d="M1178 733v-90h-959q9 -124 59 -227.5t132 -177.5t192 -115t240 -41q59 0 117 8t119 25.5t125.5 44.5t135.5 65v-112q-121 -66 -246.5 -98.5t-248.5 -32.5q-160 0 -296 54t-235.5 149.5t-156 226.5t-56.5 284q0 107 28 202t77.5 175t118 143t150 107.5t173 68t187.5 23.5
q118 0 240 -28.5t251 -88.5v-118q-132 69 -252 102t-246 33t-234 -43.5t-188.5 -121.5t-129.5 -184.5t-56 -232.5h959z" />
    <glyph glyph-name="afii10054" unicode="&#x405;" horiz-adv-x="961" 
d="M113 231q58 -42 105 -70.5t88 -46t79.5 -25t79.5 -7.5q62 0 116 21.5t93.5 59t62.5 88.5t23 109q0 75 -28.5 125t-75.5 85t-107 60l-122 49t-122 51.5t-107 68.5t-75.5 100t-28.5 145q0 78 31.5 145.5t86 117.5t128 79t156.5 29q163 0 323 -88v-119q-54 31 -96 51.5
t-78 33t-69.5 17.5t-69.5 5q-63 0 -117 -20.5t-93.5 -56t-62 -84t-22.5 -105.5q0 -70 28.5 -116.5t75.5 -79t107 -56l122 -47t122 -52.5t107 -72.5t75.5 -106t28.5 -154.5q0 -81 -31.5 -150.5t-86.5 -121.5t-129 -81.5t-159 -29.5q-173 0 -358 122v127z" />
    <glyph glyph-name="afii10055" unicode="&#x406;" horiz-adv-x="426" 
d="M268 1397v-1397h-108v1397h108z" />
    <glyph glyph-name="afii10056" unicode="&#x407;" horiz-adv-x="426" 
d="M268 1397v-1397h-108v1397h108zM395 1749q37 0 63.5 -26.5t26.5 -63.5t-26.5 -63.5t-63.5 -26.5t-63.5 26.5t-26.5 63.5t26.5 63.5t63.5 26.5zM33 1749q37 0 63.5 -26.5t26.5 -63.5t-26.5 -63.5t-63.5 -26.5t-63.5 26.5t-26.5 63.5t26.5 63.5t63.5 26.5z" />
    <glyph glyph-name="afii10057" unicode="&#x408;" horiz-adv-x="426" 
d="M276 1397v-1397q0 -109 -17.5 -187t-65.5 -126q-31 -32 -59.5 -51.5t-60 -30t-69 -12t-86.5 3.5l-10 102q123 -28 191.5 41t68.5 231v1426h108z" />
    <glyph glyph-name="afii10058" unicode="&#x409;" horiz-adv-x="1774" 
d="M641 1405l256 -614h334q121 0 209.5 -29t146 -80.5t85.5 -123t28 -157.5q0 -87 -32.5 -160.5t-93.5 -127t-149.5 -83.5t-199.5 -30h-113l-504 1225l-489 -1225h-113l576 1405h59zM1210 90q76 -4 133 8t98.5 34.5t68.5 54.5t43.5 67.5t23 73.5t6.5 73q0 53 -15.5 106.5
t-57 96t-114 69.5t-186.5 27h-276l244 -608z" />
    <glyph glyph-name="afii10059" unicode="&#x40a;" horiz-adv-x="2152" 
d="M1202 0v662h-932v-662h-108v1397h108v-645h932v645h109v-645h309q109 0 194.5 -23.5t144 -69.5t89.5 -112t31 -152q0 -87 -31 -159.5t-90.5 -125t-146.5 -81.5t-199 -29h-410zM1311 662v-572h288q114 0 185 27.5t110.5 71t53.5 97t14 105.5q0 53 -19 102t-62 86.5
t-112 60t-170 22.5h-288z" />
    <glyph glyph-name="afii10060" unicode="&#x40b;" horiz-adv-x="1503" 
d="M582 905q21 5 54.5 10.5t73.5 10.5t82 8.5t80 3.5q156 0 260.5 -42t168 -114.5t90 -170.5t26.5 -210v-401h-108v412q0 211 -104.5 318.5t-327.5 107.5q-97 0 -172 -10t-123 -19v-809h-109v1307h-463v90h1096v-90h-524v-402z" />
    <glyph glyph-name="afii10061" unicode="&#x40c;" horiz-adv-x="1120" 
d="M270 1397v-637h56q53 0 94.5 10.5t75.5 34t62 62t54 94.5l129 276q23 49 47 80t51.5 49t60.5 24.5t75 6.5h49v-90h-51q-35 0 -57.5 -6.5t-38.5 -21t-28.5 -37.5t-27.5 -56l-108 -238q-18 -39 -41 -77.5t-47.5 -70.5t-49 -55.5t-45.5 -31.5q41 -8 75.5 -31.5t66.5 -59
t63.5 -82l65.5 -100.5l274 -440h-137l-240 410q-41 71 -80.5 120t-79.5 80.5t-82.5 45.5t-90.5 14h-95v-670h-108v1397h108zM829 1810l-311 -319h-67l213 319h165z" />
    <glyph glyph-name="uni040D" unicode="&#x40d;" horiz-adv-x="1473" 
d="M1311 1397v-1397h-109v1204l-962 -1204h-78v1397h108v-1217l971 1217h70zM546 1818h166l213 -319h-68z" />
    <glyph glyph-name="afii10062" unicode="&#x40e;" horiz-adv-x="1217" 
d="M1102 1397h108l-493 -1299q-32 -82 -63.5 -142.5t-67 -99.5t-75.5 -58t-89 -19q-28 0 -56.5 3.5t-52.5 10.5t-43 17t-30 22v117q13 -23 32.5 -37.5t43 -22.5t50 -11t54.5 -3q25 0 50.5 10t47 29.5t37 48t20.5 66.5l-569 1368h109l516 -1260zM436 1776q65 -138 197 -138
q66 0 113 32.5t85 105.5h80q-43 -117 -112.5 -175.5t-163.5 -58.5q-48 0 -92.5 18t-81.5 52q-16 15 -29.5 30.5t-26 34.5t-25.5 42.5t-28 56.5h84z" />
    <glyph glyph-name="afii10145" unicode="&#x40f;" horiz-adv-x="1475" 
d="M791 -242h-109v242h-520v1397h108v-1307h932v1307h109v-1397h-520v-242z" />
    <glyph glyph-name="afii10017" unicode="&#x410;" horiz-adv-x="1366" 
d="M713 1405l645 -1405h-113l-221 483h-682l-221 -483h-113l645 1405h60zM983 573l-301 656l-299 -656h600z" />
    <glyph glyph-name="afii10018" unicode="&#x411;" horiz-adv-x="1135" 
d="M272 1395h715v-90h-715v-514h310q121 0 211 -29t149.5 -80.5t89 -123t29.5 -157.5q0 -87 -34 -160.5t-97.5 -127t-153.5 -83.5t-203 -30h-409v1397h108v-2zM272 700v-610h289q114 0 188 29t117.5 74.5t60.5 100.5t17 107q0 53 -17 106.5t-60.5 96t-117.5 69.5t-188 27
h-289z" />
    <glyph glyph-name="afii10019" unicode="&#x412;" horiz-adv-x="1116" 
d="M164 1397h291q141 0 231.5 -33.5t142 -86t71.5 -116.5t20 -125q0 -105 -49 -179.5t-152 -131.5q162 -34 242.5 -123.5t80.5 -230.5q0 -86 -33 -155t-94.5 -117t-148 -73.5t-193.5 -25.5h-409v1397zM272 1307v-557h150q107 0 179.5 20t117.5 56.5t64.5 88t19.5 113.5
q0 80 -29.5 133.5t-81.5 86t-122.5 46t-151.5 13.5h-146zM272 659v-569h289q108 0 179 26.5t112 67.5t57.5 91t16.5 98q0 51 -17 102.5t-62.5 92t-125.5 66t-207 25.5h-242z" />
    <glyph glyph-name="afii10020" unicode="&#x413;" horiz-adv-x="930" 
d="M920 1397v-90h-652v-1307h-108v1397h760z" />
    <glyph glyph-name="afii10021" unicode="&#x414;" horiz-adv-x="1391" 
d="M725 1405l565 -1315h80v-401h-108v311h-1133v-311h-109v401h80l566 1315h59zM692 1225l-479 -1135h965z" />
    <glyph glyph-name="afii10022" unicode="&#x415;" 
d="M926 1397v-90h-654v-559h637v-91h-637v-567h670v-90h-778v1397h762z" />
    <glyph glyph-name="afii10024" unicode="&#x416;" horiz-adv-x="1755" 
d="M823 760v637h109v-637h29q53 0 94.5 10.5t75.5 34t62 62t54 94.5l129 276q23 49 47 80t51.5 49t60.5 24.5t75 6.5h49v-90h-51q-36 0 -58.5 -6.5t-38 -21t-28 -37.5t-27.5 -56l-108 -238q-17 -38 -40 -76t-49 -70.5t-53 -56t-51 -32.5q48 -13 85.5 -37.5t70 -59t62.5 -79
l63 -97.5l274 -440h-137l-240 410q-41 71 -83.5 120t-85.5 80.5t-87.5 45.5t-89.5 14h-55v-670h-109v670h-55q-45 0 -89.5 -14t-87.5 -45.5t-85.5 -80.5t-83.5 -120l-240 -410h-137l274 440l63.5 97.5t63 79t70 59t84.5 37.5q-24 9 -50.5 33t-52.5 56t-49 70.5t-40 75.5
l-109 238q-15 33 -27.5 56t-28.5 37.5t-38.5 21t-57.5 6.5h-51v90h49q42 0 75 -6.5t61 -24.5t51.5 -49t46.5 -80l129 -276q26 -56 54 -94.5t62 -62t76 -34t95 -10.5h28z" />
    <glyph glyph-name="afii10025" unicode="&#x417;" horiz-adv-x="1024" 
d="M223 686v98h269q79 0 139.5 25t102 64t62.5 87.5t21 94.5q0 66 -24.5 115t-70.5 82t-112 49t-149 16q-45 0 -94.5 -5.5t-99.5 -16.5t-97.5 -28.5t-89.5 -41.5v100q37 23 86 40t103.5 28t111 16.5t108.5 5.5q88 0 168.5 -21t142 -63t98 -105.5t36.5 -148.5
q0 -47 -17.5 -98t-49 -97.5t-76 -83.5t-97.5 -55q42 -14 88 -42.5t83.5 -72.5t62 -105t24.5 -140t-22 -139t-60 -105t-87.5 -75t-105 -48t-112.5 -26t-110 -8q-51 0 -103.5 5.5t-103.5 15t-99 22.5t-90 28v109q38 -20 84 -35t95.5 -25.5t101.5 -16t102 -5.5q72 0 143 17.5
t126.5 54.5t90 94.5t34.5 136.5q0 70 -26 126t-75 95.5t-118 60.5t-156 21h-238z" />
    <glyph glyph-name="afii10026" unicode="&#x418;" horiz-adv-x="1473" 
d="M1311 1397v-1397h-109v1204l-962 -1204h-78v1397h108v-1217l971 1217h70z" />
    <glyph glyph-name="afii10027" unicode="&#x419;" horiz-adv-x="1473" 
d="M1311 1397v-1397h-109v1204l-962 -1204h-78v1397h108v-1217l971 1217h70zM539 1776q65 -138 196 -138q66 0 113.5 32.5t85.5 105.5h80q-89 -234 -277 -234q-46 0 -91.5 18t-82.5 52q-16 15 -29.5 30.5t-26 34t-25 42.5t-27.5 57h84z" />
    <glyph glyph-name="afii10028" unicode="&#x41a;" horiz-adv-x="1120" 
d="M270 1397v-637h56q53 0 94.5 10.5t75.5 34t62 62t54 94.5l129 276q23 49 47 80t51.5 49t60.5 24.5t75 6.5h49v-90h-51q-35 0 -57.5 -6.5t-38.5 -21t-28.5 -37.5t-27.5 -56l-108 -238q-18 -39 -41 -77.5t-47.5 -70.5t-49 -55.5t-45.5 -31.5q41 -8 75.5 -31.5t66.5 -59
t63.5 -82l65.5 -100.5l274 -440h-137l-240 410q-41 71 -80.5 120t-79.5 80.5t-82.5 45.5t-90.5 14h-95v-670h-108v1397h108z" />
    <glyph glyph-name="afii10029" unicode="&#x41b;" horiz-adv-x="1366" 
d="M713 1405l645 -1405h-113l-565 1225l-559 -1225h-113l645 1405h60z" />
    <glyph glyph-name="afii10030" unicode="&#x41c;" horiz-adv-x="1599" 
d="M799 748l532 649h109v-1397h-109v1239h-4l-528 -653l-529 653h-4v-1239h-108v1397h108z" />
    <glyph glyph-name="afii10031" unicode="&#x41d;" horiz-adv-x="1473" 
d="M1311 1397v-1397h-109v662h-932v-662h-108v1397h108v-645h932v645h109z" />
    <glyph glyph-name="afii10032" unicode="&#x41e;" horiz-adv-x="1686" 
d="M1583 698q0 -150 -57.5 -280.5t-157.5 -227.5t-235 -152.5t-291 -55.5q-103 0 -198 25.5t-177 71.5t-149 111t-114.5 144.5t-73.5 171.5t-26 192t26 192.5t73.5 172t114.5 144.5t149 111.5t177 71.5t198 25q104 0 199 -25t177.5 -71.5t149.5 -111.5t115 -144.5t74 -171.5
t26 -193zM1466 698q0 131 -47.5 243.5t-131 195.5t-197 130.5t-244.5 47.5t-245 -47.5t-198.5 -130.5t-133 -195.5t-48.5 -243.5q0 -130 48.5 -243t133 -195.5t198.5 -130t245 -47.5t244.5 47.5t197 130t131 195.5t47.5 243z" />
    <glyph glyph-name="afii10033" unicode="&#x41f;" horiz-adv-x="1473" 
d="M1311 1397v-1397h-109v1307h-932v-1307h-108v1397h1149z" />
    <glyph glyph-name="afii10034" unicode="&#x420;" horiz-adv-x="1044" 
d="M160 1397h385q123 0 209.5 -29.5t141 -79.5t80 -117.5t25.5 -142.5q0 -67 -22 -134.5t-75.5 -120.5t-143 -86.5t-225.5 -33.5h-267v-653h-108v1397zM268 1307v-564h260q98 0 165.5 22t110.5 60.5t62 90t19 110.5q0 57 -19.5 108t-61 89.5t-106.5 61t-157 22.5h-273z" />
    <glyph glyph-name="afii10035" unicode="&#x421;" horiz-adv-x="1386" 
d="M1339 113q-121 -66 -246.5 -98.5t-248.5 -32.5q-160 0 -296 54t-235.5 149.5t-156 226.5t-56.5 284q0 107 28 202t77.5 175t118 143t150 107.5t173 68t187.5 23.5q118 0 240 -28.5t251 -88.5v-118q-132 69 -252 102t-246 33q-130 0 -242 -47t-193.5 -129.5t-128 -196
t-46.5 -246.5q0 -135 46.5 -248t129.5 -194t198 -126.5t251 -45.5q59 0 117 8t119 25.5t125.5 44.5t135.5 65v-112z" />
    <glyph glyph-name="afii10036" unicode="&#x422;" horiz-adv-x="1174" 
d="M1165 1397v-90h-524v-1307h-109v1307h-524v90h1157z" />
    <glyph glyph-name="afii10037" unicode="&#x423;" horiz-adv-x="1217" 
d="M1102 1397h108l-493 -1299q-32 -82 -63.5 -142.5t-67 -99.5t-75.5 -58t-89 -19q-28 0 -56.5 3.5t-52.5 10.5t-43 17t-30 22v117q13 -23 32.5 -37.5t43 -22.5t50 -11t54.5 -3q25 0 50.5 10t47 29.5t37 48t20.5 66.5l-569 1368h109l516 -1260z" />
    <glyph glyph-name="afii10038" unicode="&#x424;" horiz-adv-x="1569" 
d="M838 1415v-135q145 0 270.5 -37t217.5 -110.5t145 -182t53 -252.5t-52.5 -251.5t-144.5 -179t-217.5 -107t-271.5 -35.5v-143h-101v143q-146 0 -272.5 35.5t-219.5 106.5t-146.5 179t-53.5 252t53.5 253t146.5 182t219.5 110t272.5 37v135h101zM838 221q121 0 225 28.5
t180.5 87t120 148.5t43.5 213q0 124 -43.5 215.5t-120 151.5t-180.5 89.5t-225 29.5v-963zM737 1184q-122 0 -227 -29.5t-182.5 -89.5t-121.5 -151.5t-44 -215.5q0 -123 44 -213t121.5 -148.5t182.5 -87t227 -28.5v963z" />
    <glyph glyph-name="afii10039" unicode="&#x425;" horiz-adv-x="1409" 
d="M705 795l530 602h139l-600 -682l635 -715h-139l-565 639l-566 -639h-139l633 715l-600 682h139z" />
    <glyph glyph-name="afii10040" unicode="&#x426;" horiz-adv-x="1489" 
d="M1311 1397v-1307h157v-332h-108v242h-1198v1397h108v-1307h932v1307h109z" />
    <glyph glyph-name="afii10041" unicode="&#x427;" horiz-adv-x="1192" 
d="M1030 1397v-1397h-108v580q-21 -5 -55 -10.5t-74 -10.5t-82 -8.5t-80 -3.5q-156 0 -260.5 42t-168 115t-90 171t-26.5 210v312h109v-322q0 -212 104.5 -320t327.5 -108q97 0 172 10t123 19v721h108z" />
    <glyph glyph-name="afii10042" unicode="&#x428;" horiz-adv-x="1960" 
d="M926 90v1307h108v-1307h656v1307h108v-1397h-1636v1397h108v-1307h656z" />
    <glyph glyph-name="afii10043" unicode="&#x429;" horiz-adv-x="1976" 
d="M926 90v1307h108v-1307h656v1307h108v-1307h158v-332h-109v242h-1685v1397h108v-1307h656z" />
    <glyph glyph-name="afii10044" unicode="&#x42a;" horiz-adv-x="1278" 
d="M307 0v1307h-297v90h406v-606h309q122 0 212 -29t149 -80.5t88.5 -123t29.5 -157.5q0 -87 -34 -160.5t-97.5 -127t-153.5 -83.5t-202 -30h-410zM416 700v-610h289q114 0 187.5 29t117 74.5t60.5 100.5t17 107q0 53 -17 106.5t-60.5 96t-117 69.5t-187.5 27h-289z" />
    <glyph glyph-name="afii10045" unicode="&#x42b;" horiz-adv-x="1581" 
d="M164 0v1397h108v-606h310q121 0 211 -29t149.5 -80.5t89 -123t29.5 -157.5q0 -87 -34 -160.5t-97.5 -127t-153.5 -83.5t-203 -30h-409zM272 700v-610h289q114 0 188 29t117.5 74.5t60.5 100.5t17 107q0 53 -17 106.5t-60.5 96t-117.5 69.5t-188 27h-289zM1417 1397v-1397
h-108v1397h108z" />
    <glyph glyph-name="afii10046" unicode="&#x42c;" horiz-adv-x="1135" 
d="M164 0v1397h108v-606h310q121 0 211 -29t149.5 -80.5t89 -123t29.5 -157.5q0 -87 -34 -160.5t-97.5 -127t-153.5 -83.5t-203 -30h-409zM272 700v-610h289q114 0 188 29t117.5 74.5t60.5 100.5t17 107q0 53 -17 106.5t-60.5 96t-117.5 69.5t-188 27h-289z" />
    <glyph glyph-name="afii10047" unicode="&#x42d;" horiz-adv-x="1386" 
d="M260 643v90h895q-7 126 -55.5 232.5t-129.5 184.5t-189 121.5t-234 43.5t-246 -33t-252 -102v118q129 60 251.5 88.5t240.5 28.5q96 0 187.5 -23.5t173 -68t150 -107.5t118 -143t77 -175t27.5 -202q0 -153 -56.5 -284t-156 -226.5t-235.5 -149.5t-296 -54
q-121 0 -246.5 32.5t-248.5 98.5v112q71 -38 135.5 -65t125.5 -44.5t119.5 -25.5t116.5 -8q130 0 240 41t192 115t132 177.5t59 227.5h-895z" />
    <glyph glyph-name="afii10048" unicode="&#x42e;" horiz-adv-x="2050" 
d="M270 0h-108v1397h108v-656h199q9 143 68.5 266t158 214t228.5 142.5t280 51.5q104 0 199.5 -25t178 -71.5t149.5 -111.5t115 -144.5t74 -171.5t26 -193q0 -150 -57.5 -280.5t-157.5 -227.5t-235.5 -152.5t-291.5 -55.5q-99 0 -190.5 23t-171 66t-145.5 103t-115 134.5
t-78 161t-35 181.5h-199v-651zM1829 698q0 87 -21.5 167t-61.5 148.5t-96 124t-125 95t-149 61t-168 21.5q-131 0 -245 -47.5t-198 -130.5t-132.5 -195.5t-48.5 -243.5q0 -87 22 -166.5t62 -148t96.5 -124t126 -95t150 -61t167.5 -21.5q88 0 168 21.5t149 61t125 95t96 124
t61.5 148t21.5 166.5z" />
    <glyph glyph-name="afii10049" unicode="&#x42f;" horiz-adv-x="1219" 
d="M1057 0h-109v616h-170q-65 0 -116.5 -5t-98 -28t-92.5 -69.5t-100 -130.5l-244 -383h-127l299 451q51 75 104 123.5t107 64.5q-70 13 -126 49.5t-95.5 86.5t-60.5 110t-21 121q0 70 28.5 139.5t88.5 125.5t153 91t221 35h359v-1397zM948 707v600h-227q-96 0 -170 -25
t-124.5 -66.5t-76.5 -96t-26 -113.5q0 -63 20.5 -117.5t62.5 -95t105.5 -63.5t149.5 -23h286z" />
    <glyph glyph-name="afii10065" unicode="&#x430;" horiz-adv-x="874" 
d="M610 668q0 188 -204 188q-37 0 -70.5 -6.5t-67 -21t-68.5 -36.5t-75 -53v101q42 26 80 44.5t73.5 30.5t71 17.5t72.5 5.5q44 0 94 -10.5t93 -37.5t71.5 -73.5t28.5 -118.5v-573q0 -28 5 -37.5t17 -9.5q8 0 23 7.5t33 19t37.5 26t37.5 29.5v-82l-16 -12q-35 -26 -60 -42.5
t-44.5 -25.5t-35 -12.5t-30.5 -3.5q-16 0 -27.5 5t-19 17.5t-12 35t-7.5 56.5q-78 -60 -145.5 -87t-142.5 -27q-52 0 -97.5 18.5t-79 50t-52.5 74t-19 90.5q0 60 21 107.5t58.5 84t88 62t110 43t125.5 27t133 12.5v117zM610 469q-90 4 -169.5 -12.5t-139 -50.5t-94.5 -82.5
t-35 -108.5q0 -32 14 -60t38 -48.5t57.5 -32t72.5 -11.5q33 0 63.5 6.5t61 21t63 37t68.5 54.5v287z" />
    <glyph glyph-name="afii10066" unicode="&#x431;" horiz-adv-x="1067" 
d="M86 500q0 225 42 384.5t126.5 265t211.5 163t296 78.5l194 24l-16 -94l-207 -25q-137 -17 -234 -63.5t-160.5 -118t-97.5 -165t-46 -204.5q66 97 154.5 145t185.5 48q101 0 183 -36.5t140.5 -100.5t90.5 -151.5t32 -190.5q0 -102 -32 -189.5t-90.5 -151.5t-140.5 -100
t-183 -36q-100 0 -183 35.5t-142 102t-91.5 163t-32.5 217.5zM877 459q0 82 -24.5 152t-69.5 121.5t-108 80.5t-140 29q-78 0 -142 -29t-109 -80t-69.5 -121t-24.5 -153q0 -82 24.5 -152t69.5 -121t109 -79.5t142 -28.5q77 0 140 28.5t108 79.5t69.5 121t24.5 152z" />
    <glyph glyph-name="afii10067" unicode="&#x432;" horiz-adv-x="868" 
d="M127 0v920h309q83 0 142.5 -20.5t98 -52.5t57 -72.5t18.5 -80.5q0 -34 -11.5 -68.5t-33 -64.5t-51.5 -53t-68 -35q103 -12 158 -74t55 -155q0 -58 -24 -103t-67 -76.5t-102 -48t-129 -16.5h-352zM225 840v-334h191q60 0 103.5 15t72 39t42 54.5t13.5 61.5q0 41 -18 71.5
t-51 51t-78 31t-99 10.5h-176zM225 426v-346h250q65 0 107.5 16.5t67.5 43t35.5 59.5t10.5 67q0 43 -19.5 73.5t-52.5 49.5t-77.5 28t-95.5 9h-226z" />
    <glyph glyph-name="afii10068" unicode="&#x433;" horiz-adv-x="731" 
d="M717 920v-91h-475v-829h-99v920h574z" />
    <glyph glyph-name="afii10069" unicode="&#x434;" horiz-adv-x="991" 
d="M971 80v-322h-90v242h-770v-242h-91v322h72l383 858h62l362 -858h72zM502 774l-309 -694h608z" />
    <glyph glyph-name="afii10070" unicode="&#x435;" horiz-adv-x="981" 
d="M895 104q-82 -63 -168 -92.5t-186 -29.5t-184.5 36.5t-145.5 101.5t-95 155t-34 196q0 101 31.5 186.5t88 148t134 97.5t168.5 35q74 0 146.5 -26t130.5 -80.5t94 -138t36 -199.5h-725q-2 -13 -2 -24v-24q0 -79 30 -146t81 -116.5t118 -77.5t140 -28q92 0 172.5 32.5
t169.5 104.5v-111zM795 573q-53 269 -291 269q-57 0 -107 -18.5t-89.5 -53t-67.5 -84.5t-41 -113h596z" />
    <glyph glyph-name="afii10072" unicode="&#x436;" horiz-adv-x="1270" 
d="M590 520v400h90v-400h29q27 0 54.5 7.5t52.5 25t47 45t38 66.5l45 114q32 79 83 110.5t120 31.5h39v-91h-39q-25 0 -43 -5t-31.5 -15.5t-24 -27t-20.5 -40.5l-43 -102q-10 -25 -26 -51.5t-35 -49.5t-39.5 -39t-40.5 -20q29 -10 54 -25t50 -39.5t52 -61.5t59 -91l158 -262
h-109l-160 266q-27 46 -54.5 79t-59.5 54t-70 31t-86 10v-440h-90v440q-48 0 -86 -10t-69.5 -31t-59.5 -54t-56 -79l-159 -266h-109l158 262q32 54 58.5 91t52 62t50.5 39.5t54 24.5q-19 4 -40 20t-40 39t-35 49.5t-26 51.5l-43 102q-19 47 -45 67.5t-74 20.5h-39v91h39
q69 0 120 -31.5t83 -110.5l45 -114q16 -39 37.5 -66.5t46.5 -45t52.5 -25t55.5 -7.5h29z" />
    <glyph glyph-name="afii10073" unicode="&#x437;" horiz-adv-x="811" 
d="M217 442v80h156q64 0 112 15.5t80 40.5t48 56t16 62q0 45 -18 75.5t-51 50t-80 28t-105 8.5q-75 0 -151 -22t-142 -56v84q31 15 68 28.5t78 23.5t84 16t85 6q64 0 124.5 -13.5t107.5 -40.5t75.5 -68.5t28.5 -98.5q0 -38 -14.5 -73.5t-38.5 -65t-55.5 -52t-65.5 -34.5
q21 -6 53 -23t62 -46.5t52 -72.5t22 -102q0 -75 -36.5 -126t-92 -82t-120 -44.5t-120.5 -13.5q-82 0 -161.5 12.5t-151.5 40.5v88q72 -34 146 -48t155 -14q50 0 99.5 11.5t88.5 35.5t63.5 62t24.5 90q0 50 -22.5 84.5t-62.5 56.5t-96 31.5t-124 9.5h-121z" />
    <glyph glyph-name="afii10074" unicode="&#x438;" horiz-adv-x="1020" 
d="M795 750l-613 -758h-55v928h98v-752l613 752h55v-920h-98v750z" />
    <glyph glyph-name="afii10075" unicode="&#x439;" horiz-adv-x="1020" 
d="M311 1325q65 -137 197 -137q66 0 113 32.5t86 104.5h79q-43 -117 -112.5 -175t-163.5 -58q-52 0 -95 19t-77.5 51.5t-62 74.5t-48.5 88h84zM795 750l-613 -758h-55v928h98v-752l613 752h55v-920h-98v750z" />
    <glyph glyph-name="afii10076" unicode="&#x43a;" horiz-adv-x="821" 
d="M219 440v-440h-90v920h90v-400h41q28 0 55.5 7.5t52.5 25t47 45t38 66.5l45 114q32 79 82.5 110.5t119.5 31.5h39v-91h-39q-24 0 -42 -5t-31.5 -15.5t-24 -27t-20.5 -40.5l-43 -102q-10 -25 -26.5 -51.5t-35.5 -49.5t-40 -39t-40 -20q29 -10 54 -25t50 -39.5t52 -61.5
t59 -91l158 -262h-108l-160 266q-28 46 -56 79t-59.5 54t-69.5 31t-86 10h-12z" />
    <glyph glyph-name="afii10077" unicode="&#x43b;" horiz-adv-x="874" 
d="M479 938l395 -938h-96l-332 774l-346 -774h-100l418 938h61z" />
    <glyph glyph-name="afii10078" unicode="&#x43c;" horiz-adv-x="1237" 
d="M616 174l388 746h57l61 -920h-94l-47 688l-365 -688l-372 688l-39 -688h-94l61 920h57z" />
    <glyph glyph-name="afii10079" unicode="&#x43d;" horiz-adv-x="1020" 
d="M893 920v-920h-98v438h-570v-438h-98v920h98v-402h570v402h98z" />
    <glyph glyph-name="afii10080" unicode="&#x43e;" horiz-adv-x="1110" 
d="M1022 459q0 -102 -35.5 -189.5t-97.5 -151.5t-147.5 -100t-186.5 -36q-100 0 -186 36t-149 100t-98.5 151.5t-35.5 189.5q0 103 35.5 190.5t98.5 151.5t149 100.5t186 36.5q101 0 186.5 -36.5t147.5 -100.5t97.5 -151.5t35.5 -190.5zM918 459q0 82 -27.5 152t-76.5 121.5
t-115 80.5t-144 29t-145 -29t-116 -80t-76.5 -121t-27.5 -153q0 -82 27.5 -152t76.5 -121t116 -79.5t145 -28.5t144 28.5t115 79.5t76.5 121t27.5 152z" />
    <glyph glyph-name="afii10081" unicode="&#x43f;" horiz-adv-x="1020" 
d="M893 920v-920h-98v840h-570v-840h-98v920h766z" />
    <glyph glyph-name="afii10082" unicode="&#x440;" horiz-adv-x="1044" 
d="M227 868q39 19 74 32.5t68 21.5t66 12t69 4q98 0 181.5 -35.5t144 -99t94.5 -150.5t34 -190q0 -101 -35.5 -189t-97 -153t-145 -102t-180.5 -37q-34 0 -66.5 3.5t-65 12t-67.5 21.5t-74 32v-522h-98v1391h98v-52zM227 147q36 -19 67 -32t61 -21.5t60.5 -12t65.5 -3.5
q83 0 151 27t116.5 76.5t75 119t26.5 154.5q0 84 -28.5 155t-79 122.5t-120.5 80.5t-153 29q-31 0 -59 -3.5t-56.5 -11.5t-59.5 -21t-67 -32v-627z" />
    <glyph glyph-name="afii10083" unicode="&#x441;" horiz-adv-x="854" 
d="M793 29q-39 -13 -72 -22t-63 -14.5t-59.5 -8t-61.5 -2.5q-102 0 -185 33.5t-142 94.5t-91.5 146.5t-32.5 189.5q0 108 33 198.5t92 156t141 101.5t180 36q30 0 57.5 -2.5t56 -8t60 -14t70.5 -20.5v-109q-40 17 -71.5 28t-59 18t-53.5 9.5t-55 2.5q-77 0 -141 -28
t-109.5 -78.5t-71 -121.5t-25.5 -157q0 -87 25 -157t71 -119.5t112 -76t147 -26.5q32 0 60 2.5t57 9t60.5 16.5t70.5 25v-102z" />
    <glyph glyph-name="afii10084" unicode="&#x442;" horiz-adv-x="952" 
d="M934 920v-91h-410v-829h-98v829h-410v91h918z" />
    <glyph glyph-name="afii10085" unicode="&#x443;" horiz-adv-x="854" 
d="M866 920l-688 -1391h-100l321 649l-387 742h103l334 -644l317 644h100z" />
    <glyph glyph-name="afii10086" unicode="&#x444;" horiz-adv-x="1327" 
d="M618 829q-93 0 -171.5 -26.5t-135.5 -75.5t-89 -117t-32 -151q0 -82 32 -150t89 -116.5t135.5 -75.5t171.5 -27v739zM709 90q93 0 171.5 27t135.5 75.5t89 117t32 151.5t-32 150.5t-89 116t-135.5 75t-171.5 26.5v-739zM709 -471h-91v471q-116 0 -213.5 33.5t-168.5 94
t-110.5 145t-39.5 186.5q0 103 39.5 188t110.5 145.5t168.5 94t213.5 33.5v477h91v-477q116 0 213.5 -33.5t168.5 -94t110.5 -145t39.5 -186.5q0 -103 -39.5 -188t-110.5 -145.5t-168.5 -94t-213.5 -33.5v-471z" />
    <glyph glyph-name="afii10087" unicode="&#x445;" horiz-adv-x="981" 
d="M500 403l-361 -403h-127l420 471l-420 449h127l361 -381l360 381h127l-422 -449l422 -471h-127z" />
    <glyph glyph-name="afii10088" unicode="&#x446;" horiz-adv-x="1018" 
d="M874 920v-840h123v-270h-90v190h-780v920h98v-840h551v840h98z" />
    <glyph glyph-name="afii10089" unicode="&#x447;" horiz-adv-x="911" 
d="M784 920v-920h-98v463q-51 -66 -123 -97.5t-166 -31.5q-61 0 -121.5 17t-108 60t-77 115t-29.5 183v211h99v-218q0 -67 13.5 -120.5t44 -91t79.5 -57t121 -19.5q44 0 87 10t80 32t63.5 56.5t37.5 83.5v324h98z" />
    <glyph glyph-name="afii10090" unicode="&#x448;" horiz-adv-x="1352" 
d="M127 920h98v-840h402v840h98v-840h401v840h99v-920h-1098v920z" />
    <glyph glyph-name="afii10091" unicode="&#x449;" horiz-adv-x="1368" 
d="M127 0v920h98v-840h402v840h98v-840h401v840h99v-840h123v-270h-91v190h-1130z" />
    <glyph glyph-name="afii10092" unicode="&#x44a;" horiz-adv-x="969" 
d="M336 920v-347h250q105 0 172 -26t105 -66.5t52.5 -89.5t14.5 -96q0 -76 -27 -131.5t-73 -92t-106.5 -54t-127.5 -17.5h-358v829h-228v91h326zM336 494v-414h270q60 0 101.5 17.5t68 47.5t38 69t11.5 81q0 94 -59 146.5t-174 52.5h-256z" />
    <glyph glyph-name="afii10093" unicode="&#x44b;" horiz-adv-x="1194" 
d="M127 0v920h98v-347h250q105 0 172 -26t105.5 -66.5t52.5 -89.5t14 -96q0 -76 -27 -131.5t-73 -92t-106.5 -54t-127.5 -17.5h-358zM225 494v-414h271q60 0 101.5 17.5t67.5 47.5t38 69t12 81q0 94 -59.5 146.5t-174.5 52.5h-256zM1067 920v-920h-98v920h98z" />
    <glyph glyph-name="afii10094" unicode="&#x44c;" horiz-adv-x="858" 
d="M127 0v920h98v-347h250q105 0 172 -26t105.5 -66.5t52.5 -89.5t14 -96q0 -76 -27 -131.5t-73 -92t-106.5 -54t-127.5 -17.5h-358zM225 494v-414h271q60 0 101.5 17.5t67.5 47.5t38 69t12 81q0 94 -59.5 146.5t-174.5 52.5h-256z" />
    <glyph glyph-name="afii10095" unicode="&#x44d;" horiz-adv-x="854" 
d="M662 506q-7 76 -35 138t-73 106t-105 68t-132 24q-29 0 -55 -2.5t-53.5 -9.5t-59 -18t-71.5 -28v109q39 12 70.5 20.5t60 14t56 8t57.5 2.5q98 0 180 -36t141 -101.5t92 -156t33 -198.5q0 -104 -32.5 -189.5t-91.5 -146.5t-142 -94.5t-185 -33.5q-32 0 -61.5 2.5t-59.5 8
t-63 14.5t-72 22v102q39 -15 70.5 -25t60 -16.5t57 -9t60.5 -2.5q77 0 139.5 23.5t108 67t72.5 106.5t33 141h-467v90h467z" />
    <glyph glyph-name="afii10096" unicode="&#x44e;" horiz-adv-x="1407" 
d="M242 496h145q6 96 43.5 177t100 140t145 92t178.5 33q101 0 186.5 -36.5t147.5 -100.5t97.5 -151.5t35.5 -190.5q0 -102 -35.5 -189.5t-97.5 -151.5t-147.5 -100t-186.5 -36q-95 0 -177 32.5t-144 90t-100 137.5t-46 174h-145v-416h-99v920h99v-424zM1217 459
q0 82 -27.5 152t-76.5 121.5t-115 80.5t-144 29t-145 -29t-116 -80t-76.5 -121t-27.5 -153q0 -82 27.5 -152t76.5 -121t116 -79.5t145 -28.5t144 28.5t115 79.5t76.5 121t27.5 152z" />
    <glyph glyph-name="afii10097" unicode="&#x44f;" horiz-adv-x="930" 
d="M803 0h-98v381h-154q-51 0 -90 -10t-71.5 -31t-61 -53.5t-58.5 -77.5l-139 -209h-119l160 240q16 24 36.5 49t42.5 46.5t44.5 38t42.5 23.5q-109 34 -160 102t-51 171q0 64 28 111t78.5 78t120 46t152.5 15h297v-920zM705 461v379h-179q-63 0 -117 -6.5t-93.5 -27
t-62 -57t-22.5 -96.5q0 -41 13.5 -76.5t41 -61t69.5 -40t100 -14.5h250z" />
    <glyph glyph-name="uni0450" unicode="&#x450;" horiz-adv-x="981" 
d="M895 104q-82 -63 -168 -92.5t-186 -29.5t-184.5 36.5t-145.5 101.5t-95 155t-34 196q0 101 31.5 186.5t88 148t134 97.5t168.5 35q74 0 146.5 -26t130.5 -80.5t94 -138t36 -199.5h-725q-2 -13 -2 -24v-24q0 -79 30 -146t81 -116.5t118 -77.5t140 -28q92 0 172.5 32.5
t169.5 104.5v-111zM795 573q-53 269 -291 269q-57 0 -107 -18.5t-89.5 -53t-67.5 -84.5t-41 -113h596zM306 1360h166l213 -319h-68z" />
    <glyph glyph-name="afii10071" unicode="&#x451;" horiz-adv-x="981" 
d="M895 104q-82 -63 -168 -92.5t-186 -29.5t-184.5 36.5t-145.5 101.5t-95 155t-34 196q0 101 31.5 186.5t88 148t134 97.5t168.5 35q74 0 146.5 -26t130.5 -80.5t94 -138t36 -199.5h-725q-2 -13 -2 -24v-24q0 -79 30 -146t81 -116.5t118 -77.5t140 -28q92 0 172.5 32.5
t169.5 104.5v-111zM795 573q-53 269 -291 269q-57 0 -107 -18.5t-89.5 -53t-67.5 -84.5t-41 -113h596zM672 1303q18 0 34.5 -7t29 -19.5t19.5 -29t7 -35.5q0 -37 -26.5 -63.5t-63.5 -26.5t-63.5 26.5t-26.5 63.5q0 19 7 35.5t19.5 29t29 19.5t34.5 7zM309 1303q18 0 34.5 -7
t29 -19.5t19.5 -29t7 -35.5q0 -37 -26.5 -63.5t-63.5 -26.5t-63.5 26.5t-26.5 63.5q0 19 7 35.5t19.5 29t29 19.5t34.5 7z" />
    <glyph glyph-name="afii10099" unicode="&#x452;" horiz-adv-x="985" 
d="M629 1266v-90h-404v-416h4q32 48 65 82t69 55.5t77.5 31t91.5 9.5q68 0 127 -24.5t103 -71.5t69 -117t25 -162v-616q0 -131 -26.5 -213t-70 -127.5t-98 -61.5t-110.5 -16h-119v90h137q47 0 82.5 21.5t59 59t35.5 88t12 108.5v628q0 71 -14.5 129.5t-43.5 100.5t-72.5 65
t-101.5 23q-51 0 -92.5 -12.5t-77.5 -37t-68 -61.5t-63 -86v-645h-98v1176h-127v90h127v131h98v-131h404z" />
    <glyph glyph-name="afii10100" unicode="&#x453;" horiz-adv-x="733" 
d="M717 920v-91h-475v-829h-99v920h574zM643 1356l-311 -320h-68l213 320h166z" />
    <glyph glyph-name="afii10101" unicode="&#x454;" horiz-adv-x="854" 
d="M657 502v-90h-464q6 -76 33 -138t72.5 -105.5t108 -67t138.5 -23.5q32 0 60 2.5t57 9t60.5 16.5t70.5 25v-102q-39 -13 -72 -22t-63 -14.5t-59.5 -8t-61.5 -2.5q-102 0 -185 33.5t-142 94.5t-91.5 146.5t-32.5 189.5q0 108 33 198.5t92 156t141 101.5t180 36
q30 0 57.5 -2.5t56 -8t60 -14t70.5 -20.5v-109q-40 17 -71.5 28t-59 18t-53.5 9.5t-55 2.5q-72 0 -132.5 -24.5t-105.5 -69t-72.5 -107t-33.5 -139.5h464z" />
    <glyph glyph-name="afii10102" unicode="&#x455;" horiz-adv-x="725" 
d="M84 162q45 -23 83.5 -39t73 -26t67 -14.5t65.5 -4.5q42 0 77.5 11.5t61.5 32.5t40.5 50.5t14.5 65.5q0 41 -20.5 70t-54 51t-76.5 39.5l-87.5 35t-87.5 38.5t-76.5 50t-54 69t-20.5 95q0 53 23 99t63 80t94.5 53.5t116.5 19.5q60 0 118.5 -19t127.5 -59v-106
q-39 25 -71.5 43t-62.5 29t-58.5 16.5t-59.5 5.5q-42 0 -78 -12t-62.5 -33t-41.5 -49.5t-15 -61.5q0 -41 20.5 -69.5t54 -50t76.5 -38l88 -34t88 -38.5t76.5 -51.5t54 -72.5t20.5 -102q0 -54 -23.5 -100.5t-64 -80.5t-95.5 -53.5t-119 -19.5q-72 0 -138 19.5t-138 64.5v96z
" />
    <glyph glyph-name="afii10103" unicode="&#x456;" horiz-adv-x="385" 
d="M242 920v-920h-99v920h99zM242 1397v-168h-99v168h99z" />
    <glyph glyph-name="afii10104" unicode="&#x457;" horiz-adv-x="385" 
d="M242 920v-920h-99v920h99zM375 1303q18 0 34.5 -7t29 -19.5t19.5 -29t7 -35.5q0 -37 -26.5 -63.5t-63.5 -26.5t-63.5 26.5t-26.5 63.5q0 19 7 35.5t19.5 29t29 19.5t34.5 7zM12 1303q18 0 34.5 -7t29 -19.5t19.5 -29t7 -35.5q0 -37 -26.5 -63.5t-63.5 -26.5t-63.5 26.5
t-26.5 63.5q0 19 7 35.5t19.5 29t29 19.5t34.5 7z" />
    <glyph glyph-name="afii10105" unicode="&#x458;" horiz-adv-x="385" 
d="M238 920v-1022q0 -98 -22 -168t-59.5 -115t-87 -66t-104.5 -20l-22 84q48 1 84.5 15.5t61 47.5t37.5 87.5t13 136.5v1020h99zM238 1397v-168h-99v168h99z" />
    <glyph glyph-name="afii10106" unicode="&#x459;" horiz-adv-x="1241" 
d="M479 938l170 -401h213q105 0 175 -24t111 -61.5t58 -84.5t17 -93q0 -73 -29.5 -125t-78.5 -85t-113.5 -48.5t-133.5 -15.5h-90l-332 774l-346 -774h-100l418 938h61zM879 80q61 0 106 15.5t74.5 42.5t44 62t14.5 74q0 94 -70.5 138.5t-199.5 44.5h-166l160 -377h37z" />
    <glyph glyph-name="afii10107" unicode="&#x45a;" horiz-adv-x="1491" 
d="M795 0v438h-570v-438h-98v920h98v-402h570v402h98v-402h221q105 0 175 -22.5t111 -58.5t58 -81.5t17 -91.5q0 -73 -29.5 -123t-78.5 -81.5t-113.5 -45.5t-133.5 -14h-325zM893 438v-358h237q62 0 107 14t74.5 38t44 57.5t14.5 72.5q0 93 -71 134.5t-199 41.5h-207z" />
    <glyph glyph-name="afii10108" unicode="&#x45b;" 
d="M709 1276v-90h-484v-426h4q32 48 65 82t69 55.5t77.5 31t91.5 9.5q74 0 136.5 -24t108.5 -71.5t71.5 -117.5t25.5 -162v-563h-98v524q0 75 -14.5 134t-44.5 100t-77.5 62.5t-113.5 21.5q-51 0 -92.5 -12.5t-77.5 -37t-68 -61.5t-63 -86v-645h-98v1186h-127v90h127v121h98
v-121h484z" />
    <glyph glyph-name="afii10109" unicode="&#x45c;" horiz-adv-x="821" 
d="M219 440v-440h-90v920h90v-400h41q28 0 55.5 7.5t52.5 25t47 45t38 66.5l45 114q32 79 82.5 110.5t119.5 31.5h39v-91h-39q-24 0 -42 -5t-31.5 -15.5t-24 -27t-20.5 -40.5l-43 -102q-10 -25 -26.5 -51.5t-35.5 -49.5t-40 -39t-40 -20q29 -10 54 -25t50 -39.5t52 -61.5
t59 -91l158 -262h-108l-160 266q-28 46 -56 79t-59.5 54t-69.5 31t-86 10h-12zM688 1362l-311 -320h-68l213 320h166z" />
    <glyph glyph-name="uni045D" unicode="&#x45d;" horiz-adv-x="1020" 
d="M795 750l-613 -758h-55v928h98v-752l613 752h55v-920h-98v750zM320 1342h166l213 -319h-68z" />
    <glyph glyph-name="afii10110" unicode="&#x45e;" horiz-adv-x="854" 
d="M866 920l-688 -1391h-100l321 649l-387 742h103l334 -644l317 644h100zM250 1325q65 -137 196 -137q67 0 114 32.5t85 104.5h80q-43 -117 -113 -175t-163 -58q-53 0 -96 19t-77.5 51.5t-61.5 74.5t-48 88h84z" />
    <glyph glyph-name="afii10193" unicode="&#x45f;" horiz-adv-x="1020" 
d="M559 -190h-98v190h-334v920h98v-840h570v840h98v-920h-334v-190z" />
    <glyph glyph-name="afii10146" unicode="&#x462;" horiz-adv-x="1239" 
d="M299 1397h107v-189h299v-90h-299v-327h309q121 0 211 -29t149.5 -80.5t89 -123t29.5 -157.5q0 -87 -34 -160.5t-97.5 -127t-153.5 -83.5t-202 -30h-408v1120h-297v90h297v187zM406 700v-610h288q114 0 188 29t117.5 74.5t60.5 100.5t17 107q0 53 -17 106.5t-60.5 96
t-117.5 69.5t-188 27h-288z" />
    <glyph glyph-name="afii10194" unicode="&#x463;" horiz-adv-x="969" 
d="M336 1399v-369h231v-88h-231v-369h250q105 0 172 -26t105 -66.5t52.5 -89.5t14.5 -96q0 -76 -27 -131.5t-73 -92t-106.5 -54t-127.5 -17.5h-358v942h-228v88h230v369h96zM336 494v-414h270q60 0 101.5 17.5t68 47.5t38 69t11.5 81q0 94 -59 146.5t-174 52.5h-256z" />
    <glyph glyph-name="afii10147" unicode="&#x472;" horiz-adv-x="1686" 
d="M1583 698q0 -150 -57.5 -280.5t-157.5 -227.5t-235 -152.5t-291 -55.5q-103 0 -198 25.5t-177 71.5t-149 111t-114.5 144.5t-73.5 171.5t-26 192t26 192.5t73.5 172t114.5 144.5t149 111.5t177 71.5t198 25q104 0 199 -25t177.5 -71.5t149.5 -111.5t115 -144.5t74 -171.5
t26 -193zM225 643q10 -120 61.5 -223t134.5 -178t192 -117.5t233 -42.5q125 0 233 42.5t190.5 117.5t133.5 178t61 223h-1239zM1466 733q-7 124 -57 230.5t-133 184.5t-193 122.5t-237 44.5q-84 0 -162 -20t-146 -57t-124 -89.5t-97 -117t-66 -140t-30 -158.5h1245z" />
    <glyph glyph-name="afii10195" unicode="&#x473;" horiz-adv-x="1110" 
d="M1022 459q0 -102 -35.5 -189.5t-97.5 -151.5t-147.5 -100t-186.5 -36q-100 0 -186 36t-149 100t-98.5 151.5t-35.5 189.5q0 103 35.5 190.5t98.5 151.5t149 100.5t186 36.5q101 0 186.5 -36.5t147.5 -100.5t97.5 -151.5t35.5 -190.5zM915 502q-7 74 -37 136.5
t-77.5 107.5t-110.5 70.5t-135 25.5q-73 0 -136 -25.5t-110.5 -70.5t-77 -107.5t-36.5 -136.5h720zM193 412q7 -73 37 -134.5t78 -105.5t111 -69t136 -25q72 0 134.5 25t110 69t77.5 105.5t38 134.5h-722z" />
    <glyph glyph-name="afii10148" unicode="&#x474;" horiz-adv-x="1217" 
d="M565 -14h-30l-531 1411h117l430 -1166l360 1024q18 49 43 80t53.5 49t57.5 24.5t55 6.5q19 0 47 -4t50 -12v-101q-23 8 -45 13.5t-44 5.5q-14 0 -30.5 -4t-34 -19t-36 -43.5t-36.5 -76.5z" />
    <glyph glyph-name="afii10196" unicode="&#x475;" horiz-adv-x="874" 
d="M936 844q-14 11 -38.5 17.5t-47.5 8.5q-41 0 -68 -36t-55 -109l-283 -743h-55l-377 938h90l314 -775l239 623q19 48 38 83t41.5 58.5t49.5 35t62 11.5q34 0 53.5 -9l36.5 -17v-86z" />
    <glyph glyph-name="Izhitsadblgravecyrillic" unicode="&#x476;" horiz-adv-x="1217" 
d="M565 -14h-30l-531 1411h117l430 -1166l360 1024q18 49 43 80t53.5 49t57.5 24.5t55 6.5q19 0 47 -4t50 -12v-101q-23 8 -45 13.5t-44 5.5q-14 0 -30.5 -4t-34 -19t-36 -43.5t-36.5 -76.5zM326 1807h151l193 -290h-62zM550 1809h151l193 -290h-62z" />
    <glyph glyph-name="izhitsadblgravecyrillic" unicode="&#x477;" horiz-adv-x="874" 
d="M936 844q-14 11 -38.5 17.5t-47.5 8.5q-41 0 -68 -36t-55 -109l-283 -743h-55l-377 938h90l314 -775l239 623q19 48 38 83t41.5 58.5t49.5 35t62 11.5q34 0 53.5 -9l36.5 -17v-86zM190 1349h151l193 -290h-62zM414 1351h151l193 -290h-62z" />
    <glyph glyph-name="afii10050" unicode="&#x490;" horiz-adv-x="930" 
d="M920 1509v-202h-652v-1307h-108v1397h661v112h99z" />
    <glyph glyph-name="afii10098" unicode="&#x491;" horiz-adv-x="731" 
d="M717 1001v-172h-475v-829h-99v920h475v81h99z" />
    <glyph glyph-name="uni0492" unicode="&#x492;" horiz-adv-x="930" 
d="M20 752h140v645h760v-90h-652v-555h389v-90h-389v-662h-108v662h-140v90z" />
    <glyph glyph-name="uni0493" unicode="&#x493;" horiz-adv-x="731" 
d="M717 920v-91h-475v-307h313v-90h-313v-432h-99v432h-123v90h123v398h574z" />
    <glyph glyph-name="uni0496" unicode="&#x496;" horiz-adv-x="1755" 
d="M1573 0l-240 410q-41 71 -83.5 120t-85.5 80.5t-87.5 45.5t-89.5 14h-55v-670h-109v670h-55q-45 0 -89.5 -14t-87.5 -45.5t-85.5 -80.5t-83.5 -120l-240 -410h-137l274 440l63.5 97.5t63 79t70 59t84.5 37.5q-24 9 -50.5 33t-52.5 56t-49 70.5t-40 75.5l-109 238
q-15 33 -27.5 56t-28.5 37.5t-38.5 21t-57.5 6.5h-51v90h49q42 0 75 -6.5t61 -24.5t51.5 -49t46.5 -80l129 -276q26 -56 54 -94.5t62 -62t76 -34t95 -10.5h28v637h109v-637h29q53 0 94.5 10.5t75.5 34t62 62t54 94.5l129 276q23 49 47 80t51.5 49t60.5 24.5t75 6.5h49v-90
h-51q-36 0 -58.5 -6.5t-38 -21t-28 -37.5t-27.5 -56l-108 -238q-17 -38 -40 -76t-49 -70.5t-53 -56t-51 -32.5q48 -13 85.5 -37.5t70 -59t62.5 -79l63 -97.5l217 -350h84v-332h-109v242h-55z" />
    <glyph glyph-name="uni0497" unicode="&#x497;" horiz-adv-x="1270" 
d="M1243 80v-270h-90v190h-43l-160 266q-27 46 -54.5 79t-59.5 54t-70 31t-86 10v-440h-90v440q-48 0 -86 -10t-69.5 -31t-59.5 -54t-56 -79l-159 -266h-109l158 262q32 54 58.5 91t52 62t50.5 39.5t54 24.5q-19 4 -40 20t-40 39t-35 49.5t-26 51.5l-43 102q-19 47 -45 67.5
t-74 20.5h-39v91h39q69 0 120 -31.5t83 -110.5l45 -114q16 -39 37.5 -66.5t46.5 -45t52.5 -25t55.5 -7.5h29v400h90v-400h29q27 0 54.5 7.5t52.5 25t47 45t38 66.5l45 114q32 79 83 110.5t120 31.5h39v-91h-39q-25 0 -43 -5t-31.5 -15.5t-24 -27t-20.5 -40.5l-43 -102
q-10 -25 -26 -51.5t-35 -49.5t-39.5 -39t-40.5 -20q29 -10 54 -25t50 -39.5t52 -61.5t59 -91l108 -182h74z" />
    <glyph glyph-name="uni049A" unicode="&#x49a;" horiz-adv-x="1120" 
d="M1102 90v-332h-109v242h-55l-240 410q-41 71 -80.5 120t-79.5 80.5t-82.5 45.5t-90.5 14h-95v-670h-108v1397h108v-637h56q53 0 94.5 10.5t75.5 34t62 62t54 94.5l129 276q23 49 47 80t51.5 49t60.5 24.5t75 6.5h49v-90h-51q-35 0 -57.5 -6.5t-38.5 -21t-28.5 -37.5
t-27.5 -56l-108 -238q-18 -39 -41 -77.5t-47.5 -70.5t-49 -55.5t-45.5 -31.5q41 -8 75.5 -31.5t66.5 -59t63.5 -82l65.5 -100.5l217 -350h84z" />
    <glyph glyph-name="uni049B" unicode="&#x49b;" horiz-adv-x="821" 
d="M502 266q-28 46 -56 79t-59.5 54t-69.5 31t-86 10h-12v-440h-90v920h90v-400h41q28 0 55.5 7.5t52.5 25t47 45t38 66.5l45 114q32 79 82.5 110.5t119.5 31.5h39v-91h-39q-24 0 -42 -5t-31.5 -15.5t-24 -27t-20.5 -40.5l-43 -102q-10 -25 -26.5 -51.5t-35.5 -49.5t-40 -39
t-40 -20q29 -10 54 -25t50 -39.5t52 -61.5t59 -91l109 -182h74v-270h-90v190h-43z" />
    <glyph glyph-name="uni04A2" unicode="&#x4a2;" horiz-adv-x="1489" 
d="M1202 0v662h-932v-662h-108v1397h108v-645h932v645h109v-1307h157v-332h-108v242h-158z" />
    <glyph glyph-name="uni04A3" unicode="&#x4a3;" horiz-adv-x="1036" 
d="M795 438h-570v-438h-98v920h98v-402h570v402h98v-840h123v-270h-90v190h-131v438z" />
    <glyph glyph-name="uni04AE" unicode="&#x4ae;" horiz-adv-x="1194" 
d="M651 750v-750h-108v750l-543 647h131l467 -553l465 553h131z" />
    <glyph glyph-name="uni04AF" unicode="&#x4af;" horiz-adv-x="874" 
d="M498 84v-555h-99v553l-399 838h100l346 -734l332 734h96z" />
    <glyph glyph-name="uni04B0" unicode="&#x4b0;" horiz-adv-x="1194" 
d="M651 750v-97h447v-96h-447v-557h-108v557h-447v96h447v97l-543 647h131l467 -553l465 553h131z" />
    <glyph glyph-name="uni04B1" unicode="&#x4b1;" horiz-adv-x="874" 
d="M498 145v-55h315v-90h-315v-471h-99v471h-338v90h338v53l-399 777h100l346 -693l332 693h96z" />
    <glyph glyph-name="uni04B2" unicode="&#x4b2;" horiz-adv-x="1409" 
d="M705 639l-566 -639h-139l633 715l-600 682h139l533 -602l530 602h139l-600 -682l565 -635h70v-322h-109v242h-30z" />
    <glyph glyph-name="uni04B3" unicode="&#x4b3;" horiz-adv-x="981" 
d="M500 403l-361 -403h-127l420 471l-420 449h127l361 -381l360 381h127l-422 -449l350 -391h66v-270h-90v190h-31z" />
    <glyph glyph-name="uni04B6" unicode="&#x4b6;" horiz-adv-x="1208" 
d="M922 580q-21 -5 -55 -10.5t-74 -10.5t-82 -8.5t-80 -3.5q-156 0 -260.5 42t-168 115t-90 171t-26.5 210v312h109v-322q0 -212 104.5 -320t327.5 -108q97 0 172 10t123 19v721h108v-1317h158v-322h-109v242h-157v580z" />
    <glyph glyph-name="uni04B7" unicode="&#x4b7;" horiz-adv-x="928" 
d="M686 463q-51 -66 -123 -97.5t-166 -31.5q-61 0 -121.5 17t-108 60t-77 115t-29.5 183v211h99v-218q0 -67 13.5 -120.5t44 -91t79.5 -57t121 -19.5q44 0 87 10t80 32t63.5 56.5t37.5 83.5v324h98v-840h123v-270h-90v190h-131v463z" />
    <glyph glyph-name="uni04BA" unicode="&#x4ba;" horiz-adv-x="1192" 
d="M162 0v1397h108v-492q21 5 55 10.5t74 10.5t82 8.5t80 3.5q156 0 260.5 -42t168 -114.5t90 -170.5t26.5 -210v-401h-109v412q0 211 -104.5 318.5t-327.5 107.5q-97 0 -172 -10t-123 -19v-809h-108z" />
    <glyph glyph-name="uni04BB" unicode="&#x4bb;" horiz-adv-x="979" 
d="M127 0v1397h98v-580q103 121 289 121q62 0 122 -17t107.5 -60t77 -115t29.5 -183v-563h-98v580q0 64 -15 115.5t-46.5 87.5t-80 55.5t-116.5 19.5q-44 0 -87.5 -10t-80 -32t-63.5 -56.5t-38 -83.5v-676h-98z" />
    <glyph glyph-name="uni04C0" unicode="&#x4c0;" horiz-adv-x="426" 
d="M268 0h-108v1397h108v-1397z" />
    <glyph glyph-name="Zhebrevecyrillic" unicode="&#x4c1;" horiz-adv-x="1755" 
d="M823 760v637h109v-637h29q53 0 94.5 10.5t75.5 34t62 62t54 94.5l129 276q23 49 47 80t51.5 49t60.5 24.5t75 6.5h49v-90h-51q-36 0 -58.5 -6.5t-38 -21t-28 -37.5t-27.5 -56l-108 -238q-17 -38 -40 -76t-49 -70.5t-53 -56t-51 -32.5q48 -13 85.5 -37.5t70 -59t62.5 -79
l63 -97.5l274 -440h-137l-240 410q-41 71 -83.5 120t-85.5 80.5t-87.5 45.5t-89.5 14h-55v-670h-109v670h-55q-45 0 -89.5 -14t-87.5 -45.5t-85.5 -80.5t-83.5 -120l-240 -410h-137l274 440l63.5 97.5t63 79t70 59t84.5 37.5q-24 9 -50.5 33t-52.5 56t-49 70.5t-40 75.5
l-109 238q-15 33 -27.5 56t-28.5 37.5t-38.5 21t-57.5 6.5h-51v90h49q42 0 75 -6.5t61 -24.5t51.5 -49t46.5 -80l129 -276q26 -56 54 -94.5t62 -62t76 -34t95 -10.5h28zM1073 1683h79q-88 -184 -273 -184q-176 0 -278 184h83q65 -108 194 -108q124 0 195 108z" />
    <glyph glyph-name="zhebrevecyrillic" unicode="&#x4c2;" horiz-adv-x="1270" 
d="M590 520v400h90v-400h29q27 0 54.5 7.5t52.5 25t47 45t38 66.5l45 114q32 79 83 110.5t120 31.5h39v-91h-39q-25 0 -43 -5t-31.5 -15.5t-24 -27t-20.5 -40.5l-43 -102q-10 -25 -26 -51.5t-35 -49.5t-39.5 -39t-40.5 -20q29 -10 54 -25t50 -39.5t52 -61.5t59 -91l158 -262
h-109l-160 266q-27 46 -54.5 79t-59.5 54t-70 31t-86 10v-440h-90v440q-48 0 -86 -10t-69.5 -31t-59.5 -54t-56 -79l-159 -266h-109l158 262q32 54 58.5 91t52 62t50.5 39.5t54 24.5q-19 4 -40 20t-40 39t-35 49.5t-26 51.5l-43 102q-19 47 -45 67.5t-74 20.5h-39v91h39
q69 0 120 -31.5t83 -110.5l45 -114q16 -39 37.5 -66.5t46.5 -45t52.5 -25t55.5 -7.5h29zM831 1207h79q-88 -184 -273 -184q-176 0 -278 184h83q65 -108 194 -108q124 0 195 108z" />
    <glyph glyph-name="uni04CF" unicode="&#x4cf;" horiz-adv-x="385" 
d="M242 920v-920h-99v920h99z" />
    <glyph glyph-name="Abrevecyrillic" unicode="&#x4d0;" horiz-adv-x="1366" 
d="M713 1405l645 -1405h-113l-221 483h-682l-221 -483h-113l645 1405h60zM983 573l-301 656l-299 -656h600zM879 1691h79q-88 -184 -273 -184q-176 0 -278 184h83q65 -108 194 -108q124 0 195 108z" />
    <glyph glyph-name="abrevecyrillic" unicode="&#x4d1;" horiz-adv-x="874" 
d="M610 668q0 188 -204 188q-37 0 -70.5 -6.5t-67 -21t-68.5 -36.5t-75 -53v101q42 26 80 44.5t73.5 30.5t71 17.5t72.5 5.5q44 0 94 -10.5t93 -37.5t71.5 -73.5t28.5 -118.5v-573q0 -28 5 -37.5t17 -9.5q8 0 23 7.5t33 19t37.5 26t37.5 29.5v-82l-16 -12q-35 -26 -60 -42.5
t-44.5 -25.5t-35 -12.5t-30.5 -3.5q-16 0 -27.5 5t-19 17.5t-12 35t-7.5 56.5q-78 -60 -145.5 -87t-142.5 -27q-52 0 -97.5 18.5t-79 50t-52.5 74t-19 90.5q0 60 21 107.5t58.5 84t88 62t110 43t125.5 27t133 12.5v117zM610 469q-90 4 -169.5 -12.5t-139 -50.5t-94.5 -82.5
t-35 -108.5q0 -32 14 -60t38 -48.5t57.5 -32t72.5 -11.5q33 0 63.5 6.5t61 21t63 37t68.5 54.5v287zM664 1225h79q-88 -184 -273 -184q-176 0 -278 184h83q65 -108 194 -108q124 0 195 108z" />
    <glyph glyph-name="Adieresiscyrillic" unicode="&#x4d2;" horiz-adv-x="1366" 
d="M713 1405l645 -1405h-113l-221 483h-682l-221 -483h-113l645 1405h60zM983 573l-301 656l-299 -656h600zM774 1597q0 37 27 64t63 27q37 0 63.5 -27t26.5 -64q0 -36 -26.5 -63t-63.5 -27q-36 0 -63 27t-27 63zM412 1597q0 37 26.5 64t63.5 27q36 0 63 -27t27 -64
q0 -36 -27 -63t-63 -27q-37 0 -63.5 27t-26.5 63z" />
    <glyph glyph-name="adieresiscyrillic" unicode="&#x4d3;" horiz-adv-x="874" 
d="M610 668q0 188 -204 188q-37 0 -70.5 -6.5t-67 -21t-68.5 -36.5t-75 -53v101q42 26 80 44.5t73.5 30.5t71 17.5t72.5 5.5q44 0 94 -10.5t93 -37.5t71.5 -73.5t28.5 -118.5v-573q0 -28 5 -37.5t17 -9.5q8 0 23 7.5t33 19t37.5 26t37.5 29.5v-82l-16 -12q-35 -26 -60 -42.5
t-44.5 -25.5t-35 -12.5t-30.5 -3.5q-16 0 -27.5 5t-19 17.5t-12 35t-7.5 56.5q-78 -60 -145.5 -87t-142.5 -27q-52 0 -97.5 18.5t-79 50t-52.5 74t-19 90.5q0 60 21 107.5t58.5 84t88 62t110 43t125.5 27t133 12.5v117zM610 469q-90 4 -169.5 -12.5t-139 -50.5t-94.5 -82.5
t-35 -108.5q0 -32 14 -60t38 -48.5t57.5 -32t72.5 -11.5q33 0 63.5 6.5t61 21t63 37t68.5 54.5v287zM559 1131q0 37 27 64t63 27q37 0 63.5 -27t26.5 -64q0 -36 -26.5 -63t-63.5 -27q-36 0 -63 27t-27 63zM197 1131q0 37 26.5 64t63.5 27q36 0 63 -27t27 -64q0 -36 -27 -63
t-63 -27q-37 0 -63.5 27t-26.5 63z" />
    <glyph glyph-name="Aiecyrillic" unicode="&#x4d4;" horiz-adv-x="1772" 
d="M1675 1397v-90h-657v-557h643v-91h-643v-569h676v-90h-785v659h-409l-410 -659h-119l873 1397h831zM559 750h350v571z" />
    <glyph glyph-name="aiecyrillic" unicode="&#x4d5;" horiz-adv-x="1366" 
d="M1290 498h-592v-121q0 -143 74.5 -221t190.5 -78q162 0 327 121v-113q-168 -104 -338 -104q-172 0 -293 143q-196 -143 -346 -143q-105 0 -175 67.5t-70 169.5q0 129 113.5 206.5t418.5 152.5v67q0 203 -184 203q-145 0 -305 -115v103q149 102 319 102q169 0 250 -141
q106 141 256 141q160 0 257 -122.5t97 -317.5zM698 578h484q-6 122 -78 193t-170 71q-97 0 -164 -72t-72 -192zM600 182v316q-438 -106 -438 -283q0 -64 49 -108t123 -44q110 0 266 119z" />
    <glyph glyph-name="Iebrevecyrillic" unicode="&#x4d6;" 
d="M926 1397v-90h-654v-559h637v-91h-637v-567h670v-90h-778v1397h762zM749 1683h79q-88 -184 -273 -184q-176 0 -278 184h83q65 -108 194 -108q124 0 195 108z" />
    <glyph glyph-name="iebrevecyrillic" unicode="&#x4d7;" horiz-adv-x="981" 
d="M895 104q-82 -63 -168 -92.5t-186 -29.5t-184.5 36.5t-145.5 101.5t-95 155t-34 196q0 101 31.5 186.5t88 148t134 97.5t168.5 35q74 0 146.5 -26t130.5 -80.5t94 -138t36 -199.5h-725q-2 -13 -2 -24v-24q0 -79 30 -146t81 -116.5t118 -77.5t140 -28q92 0 172.5 32.5
t169.5 104.5v-111zM795 573q-53 269 -291 269q-57 0 -107 -18.5t-89.5 -53t-67.5 -84.5t-41 -113h596zM692 1225h79q-88 -184 -273 -184q-176 0 -278 184h83q65 -108 194 -108q124 0 195 108z" />
    <glyph glyph-name="uni04D8" unicode="&#x4d8;" horiz-adv-x="1483" 
d="M739 -18q-146 0 -259.5 53.5t-192.5 144t-123 211.5t-51 256h1149q0 13 1 26t1 27q0 135 -38.5 248t-112 194.5t-180 127t-243.5 45.5q-60 0 -121.5 -9.5t-127 -31t-135 -57t-144.5 -87.5v113q59 45 125.5 77.5t135.5 53.5t136.5 31t128.5 10q160 0 288 -54t218 -149.5
t138 -226.5t48 -285q0 -160 -53 -292.5t-141.5 -227t-204.5 -146.5t-242 -52zM745 82q96 0 180 34.5t150 97.5t111 150.5t63 192.5h-1009q21 -118 66 -207t110 -148.5t148 -89.5t181 -30z" />
    <glyph glyph-name="uni04D9" unicode="&#x4d9;" horiz-adv-x="981" 
d="M98 815q82 63 167.5 93t187.5 30q100 0 184 -36.5t145 -101.5t95 -154.5t34 -196.5q0 -102 -31.5 -187.5t-88 -147.5t-133.5 -97t-169 -35q-73 0 -146 26t-131 80.5t-94 138.5t-36 199h725q2 12 2 23v24q0 79 -30 146.5t-81 117t-117.5 77.5t-140.5 28
q-92 0 -172.5 -32.5t-169.5 -104.5v110zM199 346q26 -137 99 -202.5t191 -65.5q57 0 107 18t90 52.5t68 84.5t41 113h-596z" />
    <glyph glyph-name="Schwadieresiscyrillic" unicode="&#x4da;" horiz-adv-x="1483" 
d="M739 -18q-146 0 -259.5 53.5t-192.5 144t-123 211.5t-51 256h1149q0 13 1 26t1 27q0 135 -38.5 248t-112 194.5t-180 127t-243.5 45.5q-60 0 -121.5 -9.5t-127 -31t-135 -57t-144.5 -87.5v113q59 45 125.5 77.5t135.5 53.5t136.5 31t128.5 10q160 0 288 -54t218 -149.5
t138 -226.5t48 -285q0 -160 -53 -292.5t-141.5 -227t-204.5 -146.5t-242 -52zM745 82q96 0 180 34.5t150 97.5t111 150.5t63 192.5h-1009q21 -118 66 -207t110 -148.5t148 -89.5t181 -30zM837 1607q0 37 27 64t63 27q37 0 63.5 -27t26.5 -64q0 -36 -26.5 -63t-63.5 -27
q-36 0 -63 27t-27 63zM475 1607q0 37 26.5 64t63.5 27q36 0 63 -27t27 -64q0 -36 -27 -63t-63 -27q-37 0 -63.5 27t-26.5 63z" />
    <glyph glyph-name="schwadieresiscyrillic" unicode="&#x4db;" horiz-adv-x="981" 
d="M98 815q82 63 167.5 93t187.5 30q100 0 184 -36.5t145 -101.5t95 -154.5t34 -196.5q0 -102 -31.5 -187.5t-88 -147.5t-133.5 -97t-169 -35q-73 0 -146 26t-131 80.5t-94 138.5t-36 199h725q2 12 2 23v24q0 79 -30 146.5t-81 117t-117.5 77.5t-140.5 28
q-92 0 -172.5 -32.5t-169.5 -104.5v110zM199 346q26 -137 99 -202.5t191 -65.5q57 0 107 18t90 52.5t68 84.5t41 113h-596zM587 1131q0 37 27 64t63 27q37 0 63.5 -27t26.5 -64q0 -36 -26.5 -63t-63.5 -27q-36 0 -63 27t-27 63zM225 1131q0 37 26.5 64t63.5 27q36 0 63 -27
t27 -64q0 -36 -27 -63t-63 -27q-37 0 -63.5 27t-26.5 63z" />
    <glyph glyph-name="Zhedieresiscyrillic" unicode="&#x4dc;" horiz-adv-x="1755" 
d="M823 760v637h109v-637h29q53 0 94.5 10.5t75.5 34t62 62t54 94.5l129 276q23 49 47 80t51.5 49t60.5 24.5t75 6.5h49v-90h-51q-36 0 -58.5 -6.5t-38 -21t-28 -37.5t-27.5 -56l-108 -238q-17 -38 -40 -76t-49 -70.5t-53 -56t-51 -32.5q48 -13 85.5 -37.5t70 -59t62.5 -79
l63 -97.5l274 -440h-137l-240 410q-41 71 -83.5 120t-85.5 80.5t-87.5 45.5t-89.5 14h-55v-670h-109v670h-55q-45 0 -89.5 -14t-87.5 -45.5t-85.5 -80.5t-83.5 -120l-240 -410h-137l274 440l63.5 97.5t63 79t70 59t84.5 37.5q-24 9 -50.5 33t-52.5 56t-49 70.5t-40 75.5
l-109 238q-15 33 -27.5 56t-28.5 37.5t-38.5 21t-57.5 6.5h-51v90h49q42 0 75 -6.5t61 -24.5t51.5 -49t46.5 -80l129 -276q26 -56 54 -94.5t62 -62t76 -34t95 -10.5h28zM968 1589q0 37 27 64t63 27q37 0 63.5 -27t26.5 -64q0 -36 -26.5 -63t-63.5 -27q-36 0 -63 27t-27 63z
M606 1589q0 37 26.5 64t63.5 27q36 0 63 -27t27 -64q0 -36 -27 -63t-63 -27q-37 0 -63.5 27t-26.5 63z" />
    <glyph glyph-name="zhedieresiscyrillic" unicode="&#x4dd;" horiz-adv-x="1270" 
d="M590 520v400h90v-400h29q27 0 54.5 7.5t52.5 25t47 45t38 66.5l45 114q32 79 83 110.5t120 31.5h39v-91h-39q-25 0 -43 -5t-31.5 -15.5t-24 -27t-20.5 -40.5l-43 -102q-10 -25 -26 -51.5t-35 -49.5t-39.5 -39t-40.5 -20q29 -10 54 -25t50 -39.5t52 -61.5t59 -91l158 -262
h-109l-160 266q-27 46 -54.5 79t-59.5 54t-70 31t-86 10v-440h-90v440q-48 0 -86 -10t-69.5 -31t-59.5 -54t-56 -79l-159 -266h-109l158 262q32 54 58.5 91t52 62t50.5 39.5t54 24.5q-19 4 -40 20t-40 39t-35 49.5t-26 51.5l-43 102q-19 47 -45 67.5t-74 20.5h-39v91h39
q69 0 120 -31.5t83 -110.5l45 -114q16 -39 37.5 -66.5t46.5 -45t52.5 -25t55.5 -7.5h29zM726 1113q0 37 27 64t63 27q37 0 63.5 -27t26.5 -64q0 -36 -26.5 -63t-63.5 -27q-36 0 -63 27t-27 63zM364 1113q0 37 26.5 64t63.5 27q36 0 63 -27t27 -64q0 -36 -27 -63t-63 -27
q-37 0 -63.5 27t-26.5 63z" />
    <glyph glyph-name="Zedieresiscyrillic" unicode="&#x4de;" horiz-adv-x="1024" 
d="M223 686v98h269q79 0 139.5 25t102 64t62.5 87.5t21 94.5q0 66 -24.5 115t-70.5 82t-112 49t-149 16q-45 0 -94.5 -5.5t-99.5 -16.5t-97.5 -28.5t-89.5 -41.5v100q37 23 86 40t103.5 28t111 16.5t108.5 5.5q88 0 168.5 -21t142 -63t98 -105.5t36.5 -148.5
q0 -47 -17.5 -98t-49 -97.5t-76 -83.5t-97.5 -55q42 -14 88 -42.5t83.5 -72.5t62 -105t24.5 -140t-22 -139t-60 -105t-87.5 -75t-105 -48t-112.5 -26t-110 -8q-51 0 -103.5 5.5t-103.5 15t-99 22.5t-90 28v109q38 -20 84 -35t95.5 -25.5t101.5 -16t102 -5.5q72 0 143 17.5
t126.5 54.5t90 94.5t34.5 136.5q0 70 -26 126t-75 95.5t-118 60.5t-156 21h-238zM596 1607q0 37 27 64t63 27q37 0 63.5 -27t26.5 -64q0 -36 -26.5 -63t-63.5 -27q-36 0 -63 27t-27 63zM234 1607q0 37 26.5 64t63.5 27q36 0 63 -27t27 -64q0 -36 -27 -63t-63 -27
q-37 0 -63.5 27t-26.5 63z" />
    <glyph glyph-name="zedieresiscyrillic" unicode="&#x4df;" horiz-adv-x="811" 
d="M217 442v80h156q64 0 112 15.5t80 40.5t48 56t16 62q0 45 -18 75.5t-51 50t-80 28t-105 8.5q-75 0 -151 -22t-142 -56v84q31 15 68 28.5t78 23.5t84 16t85 6q64 0 124.5 -13.5t107.5 -40.5t75.5 -68.5t28.5 -98.5q0 -38 -14.5 -73.5t-38.5 -65t-55.5 -52t-65.5 -34.5
q21 -6 53 -23t62 -46.5t52 -72.5t22 -102q0 -75 -36.5 -126t-92 -82t-120 -44.5t-120.5 -13.5q-82 0 -161.5 12.5t-151.5 40.5v88q72 -34 146 -48t155 -14q50 0 99.5 11.5t88.5 35.5t63.5 62t24.5 90q0 50 -22.5 84.5t-62.5 56.5t-96 31.5t-124 9.5h-121zM498 1131
q0 37 27 64t63 27q37 0 63.5 -27t26.5 -64q0 -36 -26.5 -63t-63.5 -27q-36 0 -63 27t-27 63zM136 1131q0 37 26.5 64t63.5 27q36 0 63 -27t27 -64q0 -36 -27 -63t-63 -27q-37 0 -63.5 27t-26.5 63z" />
    <glyph glyph-name="uni04E2" unicode="&#x4e2;" horiz-adv-x="1473" 
d="M1311 1397v-1397h-109v1204l-962 -1204h-78v1397h108v-1217l971 1217h70zM1008 1575h-547v104h547v-104z" />
    <glyph glyph-name="uni04E3" unicode="&#x4e3;" horiz-adv-x="1020" 
d="M795 750l-613 -758h-55v928h98v-752l613 752h55v-920h-98v750zM782 1089h-546v105h546v-105z" />
    <glyph glyph-name="Idieresiscyrillic" unicode="&#x4e4;" horiz-adv-x="1473" 
d="M1311 1397v-1397h-109v1204l-962 -1204h-78v1397h108v-1217l971 1217h70zM827 1589q0 37 27 64t63 27q37 0 63.5 -27t26.5 -64q0 -36 -26.5 -63t-63.5 -27q-36 0 -63 27t-27 63zM465 1589q0 37 26.5 64t63.5 27q36 0 63 -27t27 -64q0 -36 -27 -63t-63 -27q-37 0 -63.5 27
t-26.5 63z" />
    <glyph glyph-name="idieresiscyrillic" unicode="&#x4e5;" horiz-adv-x="1020" 
d="M795 750l-613 -758h-55v928h98v-752l613 752h55v-920h-98v750zM601 1113q0 37 27 64t63 27q37 0 63.5 -27t26.5 -64q0 -36 -26.5 -63t-63.5 -27q-36 0 -63 27t-27 63zM239 1113q0 37 26.5 64t63.5 27q36 0 63 -27t27 -64q0 -36 -27 -63t-63 -27q-37 0 -63.5 27t-26.5 63z
" />
    <glyph glyph-name="Odieresiscyrillic" unicode="&#x4e6;" horiz-adv-x="1686" 
d="M1583 698q0 -150 -57.5 -280.5t-157.5 -227.5t-235 -152.5t-291 -55.5q-103 0 -198 25.5t-177 71.5t-149 111t-114.5 144.5t-73.5 171.5t-26 192t26 192.5t73.5 172t114.5 144.5t149 111.5t177 71.5t198 25q104 0 199 -25t177.5 -71.5t149.5 -111.5t115 -144.5t74 -171.5
t26 -193zM1466 698q0 131 -47.5 243.5t-131 195.5t-197 130.5t-244.5 47.5t-245 -47.5t-198.5 -130.5t-133 -195.5t-48.5 -243.5q0 -130 48.5 -243t133 -195.5t198.5 -130t245 -47.5t244.5 47.5t197 130t131 195.5t47.5 243zM934 1607q0 37 27 64t63 27q37 0 63.5 -27
t26.5 -64q0 -36 -26.5 -63t-63.5 -27q-36 0 -63 27t-27 63zM572 1607q0 37 26.5 64t63.5 27q36 0 63 -27t27 -64q0 -36 -27 -63t-63 -27q-37 0 -63.5 27t-26.5 63z" />
    <glyph glyph-name="odieresiscyrillic" unicode="&#x4e7;" horiz-adv-x="1110" 
d="M1022 459q0 -102 -35.5 -189.5t-97.5 -151.5t-147.5 -100t-186.5 -36q-100 0 -186 36t-149 100t-98.5 151.5t-35.5 189.5q0 103 35.5 190.5t98.5 151.5t149 100.5t186 36.5q101 0 186.5 -36.5t147.5 -100.5t97.5 -151.5t35.5 -190.5zM918 459q0 82 -27.5 152t-76.5 121.5
t-115 80.5t-144 29t-145 -29t-116 -80t-76.5 -121t-27.5 -153q0 -82 27.5 -152t76.5 -121t116 -79.5t145 -28.5t144 28.5t115 79.5t76.5 121t27.5 152zM645 1131q0 37 27 64t63 27q37 0 63.5 -27t26.5 -64q0 -36 -26.5 -63t-63.5 -27q-36 0 -63 27t-27 63zM283 1131
q0 37 26.5 64t63.5 27q36 0 63 -27t27 -64q0 -36 -27 -63t-63 -27q-37 0 -63.5 27t-26.5 63z" />
    <glyph glyph-name="uni04E8" unicode="&#x4e8;" horiz-adv-x="1686" 
d="M1583 698q0 -150 -57.5 -280.5t-157.5 -227.5t-235 -152.5t-291 -55.5q-103 0 -198 25.5t-177 71.5t-149 111t-114.5 144.5t-73.5 171.5t-26 192t26 192.5t73.5 172t114.5 144.5t149 111.5t177 71.5t198 25q104 0 199 -25t177.5 -71.5t149.5 -111.5t115 -144.5t74 -171.5
t26 -193zM225 643q10 -120 61.5 -223t134.5 -178t192 -117.5t233 -42.5q125 0 233 42.5t190.5 117.5t133.5 178t61 223h-1239zM1466 733q-7 124 -57 230.5t-133 184.5t-193 122.5t-237 44.5q-84 0 -162 -20t-146 -57t-124 -89.5t-97 -117t-66 -140t-30 -158.5h1245z" />
    <glyph glyph-name="uni04E9" unicode="&#x4e9;" horiz-adv-x="1110" 
d="M1022 459q0 -102 -35.5 -189.5t-97.5 -151.5t-147.5 -100t-186.5 -36q-100 0 -186 36t-149 100t-98.5 151.5t-35.5 189.5q0 103 35.5 190.5t98.5 151.5t149 100.5t186 36.5q101 0 186.5 -36.5t147.5 -100.5t97.5 -151.5t35.5 -190.5zM915 502q-7 74 -37 136.5
t-77.5 107.5t-110.5 70.5t-135 25.5q-73 0 -136 -25.5t-110.5 -70.5t-77 -107.5t-36.5 -136.5h720zM193 412q7 -73 37 -134.5t78 -105.5t111 -69t136 -25q72 0 134.5 25t110 69t77.5 105.5t38 134.5h-722z" />
    <glyph glyph-name="Obarreddieresiscyrillic" unicode="&#x4ea;" horiz-adv-x="1686" 
d="M1583 698q0 -150 -57.5 -280.5t-157.5 -227.5t-235 -152.5t-291 -55.5q-103 0 -198 25.5t-177 71.5t-149 111t-114.5 144.5t-73.5 171.5t-26 192t26 192.5t73.5 172t114.5 144.5t149 111.5t177 71.5t198 25q104 0 199 -25t177.5 -71.5t149.5 -111.5t115 -144.5t74 -171.5
t26 -193zM225 643q10 -120 61.5 -223t134.5 -178t192 -117.5t233 -42.5q125 0 233 42.5t190.5 117.5t133.5 178t61 223h-1239zM1466 733q-7 124 -57 230.5t-133 184.5t-193 122.5t-237 44.5q-84 0 -162 -20t-146 -57t-124 -89.5t-97 -117t-66 -140t-30 -158.5h1245z
M934 1607q0 37 27 64t63 27q37 0 63.5 -27t26.5 -64q0 -36 -26.5 -63t-63.5 -27q-36 0 -63 27t-27 63zM572 1607q0 37 26.5 64t63.5 27q36 0 63 -27t27 -64q0 -36 -27 -63t-63 -27q-37 0 -63.5 27t-26.5 63z" />
    <glyph glyph-name="obarreddieresiscyrillic" unicode="&#x4eb;" horiz-adv-x="1110" 
d="M1022 459q0 -102 -35.5 -189.5t-97.5 -151.5t-147.5 -100t-186.5 -36q-100 0 -186 36t-149 100t-98.5 151.5t-35.5 189.5q0 103 35.5 190.5t98.5 151.5t149 100.5t186 36.5q101 0 186.5 -36.5t147.5 -100.5t97.5 -151.5t35.5 -190.5zM915 502q-7 74 -37 136.5
t-77.5 107.5t-110.5 70.5t-135 25.5q-73 0 -136 -25.5t-110.5 -70.5t-77 -107.5t-36.5 -136.5h720zM193 412q7 -73 37 -134.5t78 -105.5t111 -69t136 -25q72 0 134.5 25t110 69t77.5 105.5t38 134.5h-722zM645 1131q0 37 27 64t63 27q37 0 63.5 -27t26.5 -64
q0 -36 -26.5 -63t-63.5 -27q-36 0 -63 27t-27 63zM283 1131q0 37 26.5 64t63.5 27q36 0 63 -27t27 -64q0 -36 -27 -63t-63 -27q-37 0 -63.5 27t-26.5 63z" />
    <glyph glyph-name="uni04EC" unicode="&#x4ec;" horiz-adv-x="1386" 
d="M260 643v90h895q-7 126 -55.5 232.5t-129.5 184.5t-189 121.5t-234 43.5t-246 -33t-252 -102v118q129 60 251.5 88.5t240.5 28.5q96 0 187.5 -23.5t173 -68t150 -107.5t118 -143t77 -175t27.5 -202q0 -153 -56.5 -284t-156 -226.5t-235.5 -149.5t-296 -54
q-121 0 -246.5 32.5t-248.5 98.5v112q71 -38 135.5 -65t125.5 -44.5t119.5 -25.5t116.5 -8q130 0 240 41t192 115t132 177.5t59 227.5h-895zM745 1607q0 37 27 64t63 27q37 0 63.5 -27t26.5 -64q0 -36 -26.5 -63t-63.5 -27q-36 0 -63 27t-27 63zM383 1607q0 37 26.5 64
t63.5 27q36 0 63 -27t27 -64q0 -36 -27 -63t-63 -27q-37 0 -63.5 27t-26.5 63z" />
    <glyph glyph-name="uni04ED" unicode="&#x4ed;" horiz-adv-x="854" 
d="M662 506q-7 76 -35 138t-73 106t-105 68t-132 24q-29 0 -55 -2.5t-53.5 -9.5t-59 -18t-71.5 -28v109q39 12 70.5 20.5t60 14t56 8t57.5 2.5q98 0 180 -36t141 -101.5t92 -156t33 -198.5q0 -104 -32.5 -189.5t-91.5 -146.5t-142 -94.5t-185 -33.5q-32 0 -61.5 2.5t-59.5 8
t-63 14.5t-72 22v102q39 -15 70.5 -25t60 -16.5t57 -9t60.5 -2.5q77 0 139.5 23.5t108 67t72.5 106.5t33 141h-467v90h467zM505 1131q0 37 27 64t63 27q37 0 63.5 -27t26.5 -64q0 -36 -26.5 -63t-63.5 -27q-36 0 -63 27t-27 63zM143 1131q0 37 26.5 64t63.5 27q36 0 63 -27
t27 -64q0 -36 -27 -63t-63 -27q-37 0 -63.5 27t-26.5 63z" />
    <glyph glyph-name="uni04EE" unicode="&#x4ee;" horiz-adv-x="1217" 
d="M881 1575h-547v104h547v-104zM1102 1397h108l-493 -1299q-32 -82 -63.5 -142.5t-67 -99.5t-75.5 -58t-89 -19q-28 0 -56.5 3.5t-52.5 10.5t-43 17t-30 22v117q13 -23 32.5 -37.5t43 -22.5t50 -11t54.5 -3q25 0 50.5 10t47 29.5t37 48t20.5 66.5l-569 1368h109l516 -1260z
" />
    <glyph glyph-name="uni04EF" unicode="&#x4ef;" horiz-adv-x="854" 
d="M866 920l-688 -1391h-100l321 649l-387 742h103l334 -644l317 644h100zM720 1089h-546v105h546v-105z" />
    <glyph glyph-name="Udieresiscyrillic" unicode="&#x4f0;" horiz-adv-x="1217" 
d="M1102 1397h108l-493 -1299q-32 -82 -63.5 -142.5t-67 -99.5t-75.5 -58t-89 -19q-28 0 -56.5 3.5t-52.5 10.5t-43 17t-30 22v117q13 -23 32.5 -37.5t43 -22.5t50 -11t54.5 -3q25 0 50.5 10t47 29.5t37 48t20.5 66.5l-569 1368h109l516 -1260zM699 1589q0 37 27 64t63 27
q37 0 63.5 -27t26.5 -64q0 -36 -26.5 -63t-63.5 -27q-36 0 -63 27t-27 63zM337 1589q0 37 26.5 64t63.5 27q36 0 63 -27t27 -64q0 -36 -27 -63t-63 -27q-37 0 -63.5 27t-26.5 63z" />
    <glyph glyph-name="udieresiscyrillic" unicode="&#x4f1;" horiz-adv-x="854" 
d="M866 920l-688 -1391h-100l321 649l-387 742h103l334 -644l317 644h100zM530 1113q0 37 27 64t63 27q37 0 63.5 -27t26.5 -64q0 -36 -26.5 -63t-63.5 -27q-36 0 -63 27t-27 63zM168 1113q0 37 26.5 64t63.5 27q36 0 63 -27t27 -64q0 -36 -27 -63t-63 -27q-37 0 -63.5 27
t-26.5 63z" />
    <glyph glyph-name="Uhungarumlautcyrillic" unicode="&#x4f2;" horiz-adv-x="1217" 
d="M1102 1397h108l-493 -1299q-32 -82 -63.5 -142.5t-67 -99.5t-75.5 -58t-89 -19q-28 0 -56.5 3.5t-52.5 10.5t-43 17t-30 22v117q13 -23 32.5 -37.5t43 -22.5t50 -11t54.5 -3q25 0 50.5 10t47 29.5t37 48t20.5 66.5l-569 1368h109l516 -1260zM898 1773l-277 -274h-60
l190 274h147zM656 1773l-278 -274h-61l190 274h149z" />
    <glyph glyph-name="uhungarumlautcyrillic" unicode="&#x4f3;" horiz-adv-x="854" 
d="M866 920l-688 -1391h-100l321 649l-387 742h103l334 -644l317 644h100zM729 1297l-277 -274h-60l190 274h147zM487 1297l-278 -274h-61l190 274h149z" />
    <glyph glyph-name="Chedieresiscyrillic" unicode="&#x4f4;" horiz-adv-x="1192" 
d="M1030 1397v-1397h-108v580q-21 -5 -55 -10.5t-74 -10.5t-82 -8.5t-80 -3.5q-156 0 -260.5 42t-168 115t-90 171t-26.5 210v312h109v-322q0 -212 104.5 -320t327.5 -108q97 0 172 10t123 19v721h108zM649 1589q0 37 27 64t63 27q37 0 63.5 -27t26.5 -64q0 -36 -26.5 -63
t-63.5 -27q-36 0 -63 27t-27 63zM287 1589q0 37 26.5 64t63.5 27q36 0 63 -27t27 -64q0 -36 -27 -63t-63 -27q-37 0 -63.5 27t-26.5 63z" />
    <glyph glyph-name="chedieresiscyrillic" unicode="&#x4f5;" horiz-adv-x="911" 
d="M784 920v-920h-98v463q-51 -66 -123 -97.5t-166 -31.5q-61 0 -121.5 17t-108 60t-77 115t-29.5 183v211h99v-218q0 -67 13.5 -120.5t44 -91t79.5 -57t121 -19.5q44 0 87 10t80 32t63.5 56.5t37.5 83.5v324h98zM513 1113q0 37 27 64t63 27q37 0 63.5 -27t26.5 -64
q0 -36 -26.5 -63t-63.5 -27q-36 0 -63 27t-27 63zM151 1113q0 37 26.5 64t63.5 27q36 0 63 -27t27 -64q0 -36 -27 -63t-63 -27q-37 0 -63.5 27t-26.5 63z" />
    <glyph glyph-name="Yerudieresiscyrillic" unicode="&#x4f8;" horiz-adv-x="1581" 
d="M164 0v1397h108v-606h310q121 0 211 -29t149.5 -80.5t89 -123t29.5 -157.5q0 -87 -34 -160.5t-97.5 -127t-153.5 -83.5t-203 -30h-409zM272 700v-610h289q114 0 188 29t117.5 74.5t60.5 100.5t17 107q0 53 -17 106.5t-60.5 96t-117.5 69.5t-188 27h-289zM1417 1397v-1397
h-108v1397h108zM881 1589q0 37 27 64t63 27q37 0 63.5 -27t26.5 -64q0 -36 -26.5 -63t-63.5 -27q-36 0 -63 27t-27 63zM519 1589q0 37 26.5 64t63.5 27q36 0 63 -27t27 -64q0 -36 -27 -63t-63 -27q-37 0 -63.5 27t-26.5 63z" />
    <glyph glyph-name="yerudieresiscyrillic" unicode="&#x4f9;" horiz-adv-x="1194" 
d="M127 0v920h98v-347h250q105 0 172 -26t105.5 -66.5t52.5 -89.5t14 -96q0 -76 -27 -131.5t-73 -92t-106.5 -54t-127.5 -17.5h-358zM225 494v-414h271q60 0 101.5 17.5t67.5 47.5t38 69t12 81q0 94 -59.5 146.5t-174.5 52.5h-256zM1067 920v-920h-98v920h98zM688 1113
q0 37 27 64t63 27q37 0 63.5 -27t26.5 -64q0 -36 -26.5 -63t-63.5 -27q-36 0 -63 27t-27 63zM326 1113q0 37 26.5 64t63.5 27q36 0 63 -27t27 -64q0 -36 -27 -63t-63 -27q-37 0 -63.5 27t-26.5 63z" />
    <glyph glyph-name="Aringbelow" unicode="&#x1e00;" horiz-adv-x="1366" 
d="M713 1407l645 -1407h-113l-221 483h-682l-221 -483h-113l645 1407h60zM983 573l-301 658l-299 -658h600zM506 -278q0 74 52 125.5t126 51.5q73 0 124.5 -51.5t51.5 -125.5q0 -73 -51.5 -125.5t-124.5 -52.5t-125.5 52.5t-52.5 125.5zM805 -278q0 51 -35.5 86t-85.5 35
q-51 0 -87 -35t-36 -86q0 -50 36.5 -86t86.5 -36t85.5 36t35.5 86z" />
    <glyph glyph-name="aringbelow" unicode="&#x1e01;" horiz-adv-x="874" 
d="M862 160v-82q-127 -96 -186 -96q-34 0 -47 22.5t-19 91.5q-145 -114 -288 -114q-104 0 -176 68t-72 165q0 150 139 236.5t397 99.5v117q0 188 -204 188q-130 0 -281 -117v101q156 98 297 98q125 0 206 -61.5t81 -178.5v-573q0 -47 22 -47q28 0 131 82zM610 182v287
q-189 7 -313.5 -66.5t-124.5 -187.5q0 -64 52 -108t130 -44q126 0 256 119zM291 -296q0 74 52 125.5t126 51.5q73 0 124.5 -51.5t51.5 -125.5q0 -73 -51.5 -125.5t-124.5 -52.5t-125.5 52.5t-52.5 125.5zM590 -296q0 51 -35.5 86t-85.5 35q-51 0 -87 -35t-36 -86
q0 -50 36.5 -86t86.5 -36t85.5 36t35.5 86z" />
    <glyph glyph-name="Bdotaccent" unicode="&#x1e02;" horiz-adv-x="1087" 
d="M164 1397h291q229 0 347 -96t118 -265q0 -202 -201 -311q323 -70 323 -354q0 -170 -126.5 -270.5t-342.5 -100.5h-409v1397zM272 1307v-557h150q381 0 381 278q0 279 -385 279h-146zM272 659v-569h289q179 0 272 77t93 206q0 286 -412 286h-242zM513 1589q0 37 26.5 64
t63.5 27t63.5 -27t26.5 -64q0 -36 -26.5 -63t-63.5 -27t-63.5 27t-26.5 63z" />
    <glyph glyph-name="bdotaccent" unicode="&#x1e03;" horiz-adv-x="1044" 
d="M127 51v1346h98v-609q147 150 332 150q180 0 295 -125.5t115 -323.5q0 -230 -140.5 -368.5t-373.5 -138.5q-153 0 -326 69zM225 678v-557q114 -43 226 -43q178 0 294.5 114.5t116.5 290.5q0 163 -90 268t-227 105q-164 0 -320 -178zM457 1589q0 37 26.5 64t63.5 27
t63.5 -27t26.5 -64q0 -36 -26.5 -63t-63.5 -27t-63.5 27t-26.5 63z" />
    <glyph glyph-name="Bdotbelow" unicode="&#x1e04;" horiz-adv-x="1087" 
d="M164 1397h291q229 0 347 -96t118 -265q0 -202 -201 -311q323 -70 323 -354q0 -170 -126.5 -270.5t-342.5 -100.5h-409v1397zM272 1307v-557h150q381 0 381 278q0 279 -385 279h-146zM272 659v-569h289q179 0 272 77t93 206q0 286 -412 286h-242zM513 -192q0 37 26.5 64
t63.5 27t63.5 -27t26.5 -64q0 -36 -26.5 -63t-63.5 -27t-63.5 27t-26.5 63z" />
    <glyph glyph-name="bdotbelow" unicode="&#x1e05;" horiz-adv-x="1044" 
d="M127 51v1346h98v-609q147 150 332 150q180 0 295 -125.5t115 -323.5q0 -230 -140.5 -368.5t-373.5 -138.5q-153 0 -326 69zM225 678v-557q114 -43 226 -43q178 0 294.5 114.5t116.5 290.5q0 163 -90 268t-227 105q-164 0 -320 -178zM457 -210q0 37 26.5 64t63.5 27
t63.5 -27t26.5 -64q0 -36 -26.5 -63t-63.5 -27t-63.5 27t-26.5 63z" />
    <glyph glyph-name="Blinebelow" unicode="&#x1e06;" horiz-adv-x="1087" 
d="M164 1397h291q229 0 347 -96t118 -265q0 -202 -201 -311q323 -70 323 -354q0 -170 -126.5 -270.5t-342.5 -100.5h-409v1397zM272 1307v-557h150q381 0 381 278q0 279 -385 279h-146zM272 659v-569h289q179 0 272 77t93 206q0 286 -412 286h-242zM80 -101h1047v-103h-1047
v103z" />
    <glyph glyph-name="blinebelow" unicode="&#x1e07;" horiz-adv-x="1044" 
d="M127 51v1346h98v-609q147 150 332 150q180 0 295 -125.5t115 -323.5q0 -230 -140.5 -368.5t-373.5 -138.5q-153 0 -326 69zM225 678v-557q114 -43 226 -43q178 0 294.5 114.5t116.5 290.5q0 163 -90 268t-227 105q-164 0 -320 -178zM24 -119h1047v-103h-1047v103z" />
    <glyph glyph-name="Ccedillaacute" unicode="&#x1e08;" horiz-adv-x="1386" 
d="M1339 225v-112q-248 -131 -495 -131q-34 0 -47 4l-17 -58q127 -22 127 -129q0 -73 -55.5 -115.5t-145.5 -42.5q-44 0 -90 11l11 65q38 -3 67 -3q133 0 133 79q0 77 -127 80l35 117q-290 40 -462.5 238t-172.5 468q0 307 217 513t517 206q236 0 491 -117v-118
q-254 135 -498 135q-260 0 -435 -177t-175 -442q0 -268 176 -441t449 -173q228 0 497 143zM909 1836l-311 -319h-68l213 319h166z" />
    <glyph glyph-name="ccedillaacute" unicode="&#x1e09;" horiz-adv-x="854" 
d="M793 131v-102q-138 -47 -256 -47q-26 0 -37 4l-17 -58q127 -22 127 -129q0 -73 -55.5 -115.5t-145.5 -42.5q-44 0 -90 11l11 65q38 -3 67 -3q133 0 133 79q0 77 -127 80l35 117q-166 31 -259 154.5t-93 301.5q0 217 125.5 354.5t320.5 137.5q107 0 244 -45v-109
q-132 58 -239 58q-154 0 -250.5 -107t-96.5 -278q0 -174 96.5 -276.5t258.5 -102.5q118 0 248 53zM630 1360l-311 -319h-68l213 319h166z" />
    <glyph glyph-name="Ddotaccent" unicode="&#x1e0a;" horiz-adv-x="1516" 
d="M162 1397h489q371 0 566.5 -195t195.5 -504q0 -303 -193.5 -500.5t-549.5 -197.5h-508v1397zM270 1307v-1217h394q271 0 451.5 166.5t180.5 441.5q0 269 -178 439t-461 170h-387zM697 1589q0 37 26.5 64t63.5 27t63.5 -27t26.5 -64q0 -36 -26.5 -63t-63.5 -27t-63.5 27
t-26.5 63z" />
    <glyph glyph-name="ddotaccent" unicode="&#x1e0b;" horiz-adv-x="1044" 
d="M920 1397v-1397h-99v72q-126 -90 -272 -90q-196 0 -330.5 138.5t-134.5 340.5q0 205 132.5 341t332.5 136q127 0 272 -74v533h99zM821 162v594q-132 86 -268 86q-159 0 -262 -105.5t-103 -269.5q0 -167 110 -278t275 -111q128 0 248 84zM412 1589q0 37 26.5 64t63.5 27
t63.5 -27t26.5 -64q0 -36 -26.5 -63t-63.5 -27t-63.5 27t-26.5 63z" />
    <glyph glyph-name="Ddotbelow" unicode="&#x1e0c;" horiz-adv-x="1516" 
d="M162 1397h489q371 0 566.5 -195t195.5 -504q0 -303 -193.5 -500.5t-549.5 -197.5h-508v1397zM270 1307v-1217h394q271 0 451.5 166.5t180.5 441.5q0 269 -178 439t-461 170h-387zM697 -192q0 37 26.5 64t63.5 27t63.5 -27t26.5 -64q0 -36 -26.5 -63t-63.5 -27t-63.5 27
t-26.5 63z" />
    <glyph glyph-name="ddotbelow" unicode="&#x1e0d;" horiz-adv-x="1044" 
d="M920 1397v-1397h-99v72q-126 -90 -272 -90q-196 0 -330.5 138.5t-134.5 340.5q0 205 132.5 341t332.5 136q127 0 272 -74v533h99zM821 162v594q-132 86 -268 86q-159 0 -262 -105.5t-103 -269.5q0 -167 110 -278t275 -111q128 0 248 84zM412 -210q0 37 26.5 64t63.5 27
t63.5 -27t26.5 -64q0 -36 -26.5 -63t-63.5 -27t-63.5 27t-26.5 63z" />
    <glyph glyph-name="Dlinebelow" unicode="&#x1e0e;" horiz-adv-x="1516" 
d="M162 1397h489q371 0 566.5 -195t195.5 -504q0 -303 -193.5 -500.5t-549.5 -197.5h-508v1397zM270 1307v-1217h394q271 0 451.5 166.5t180.5 441.5q0 269 -178 439t-461 170h-387zM264 -101h1047v-103h-1047v103z" />
    <glyph glyph-name="dlinebelow" unicode="&#x1e0f;" horiz-adv-x="1044" 
d="M920 1397v-1397h-99v72q-126 -90 -272 -90q-196 0 -330.5 138.5t-134.5 340.5q0 205 132.5 341t332.5 136q127 0 272 -74v533h99zM821 162v594q-132 86 -268 86q-159 0 -262 -105.5t-103 -269.5q0 -167 110 -278t275 -111q128 0 248 84zM-20 -119h1047v-103h-1047v103z
" />
    <glyph glyph-name="Dcommaaccent" unicode="&#x1e10;" horiz-adv-x="1516" 
d="M162 1397h489q371 0 566.5 -195t195.5 -504q0 -303 -193.5 -500.5t-549.5 -197.5h-508v1397zM270 1307v-1217h394q271 0 451.5 166.5t180.5 441.5q0 269 -178 439t-461 170h-387zM853 -102v-156q0 -182 -133 -283v72q43 60 43 168h-43v199h133z" />
    <glyph glyph-name="dcommaaccent" unicode="&#x1e11;" horiz-adv-x="1044" 
d="M920 1397v-1397h-99v72q-126 -90 -272 -90q-196 0 -330.5 138.5t-134.5 340.5q0 205 132.5 341t332.5 136q127 0 272 -74v533h99zM821 162v594q-132 86 -268 86q-159 0 -262 -105.5t-103 -269.5q0 -167 110 -278t275 -111q128 0 248 84zM568 -120v-156q0 -182 -133 -283
v72q43 60 43 168h-43v199h133z" />
    <glyph glyph-name="Dcircumflexbelow" unicode="&#x1e12;" horiz-adv-x="1516" 
d="M162 1397h489q371 0 566.5 -195t195.5 -504q0 -303 -193.5 -500.5t-549.5 -197.5h-508v1397zM270 1307v-1217h394q271 0 451.5 166.5t180.5 441.5q0 269 -178 439t-461 170h-387zM852 -101l217 -335h-78l-203 223l-205 -223h-78l222 335h125z" />
    <glyph glyph-name="dcircumflexbelow" unicode="&#x1e13;" horiz-adv-x="1044" 
d="M920 1397v-1397h-99v72q-126 -90 -272 -90q-196 0 -330.5 138.5t-134.5 340.5q0 205 132.5 341t332.5 136q127 0 272 -74v533h99zM821 162v594q-132 86 -268 86q-159 0 -262 -105.5t-103 -269.5q0 -167 110 -278t275 -111q128 0 248 84zM567 -119l217 -335h-78l-203 223
l-205 -223h-78l222 335h125z" />
    <glyph glyph-name="Emacrongrave" unicode="&#x1e14;" 
d="M926 1397v-90h-654v-559h637v-91h-637v-567h670v-90h-778v1397h762zM30 1603h1047v-103h-1047v103zM364 2023h166l213 -319h-68z" />
    <glyph glyph-name="emacrongrave" unicode="&#x1e15;" horiz-adv-x="981" 
d="M911 494h-725q-3 -24 -3 -48q0 -154 110 -261t260 -107q175 0 342 137v-111q-158 -122 -354 -122q-199 0 -329 138t-130 351q0 202 120 334.5t302 132.5q171 0 289 -119.5t118 -324.5zM199 573h596q-52 269 -291 269q-113 0 -195.5 -70.5t-109.5 -198.5zM-26 1144h1047
v-103h-1047v103zM307 1564h166l213 -319h-68z" />
    <glyph glyph-name="Emacronacute" unicode="&#x1e16;" 
d="M926 1397v-90h-654v-559h637v-91h-637v-567h670v-90h-778v1397h762zM30 1603h1047v-103h-1047v103zM743 2023l-311 -319h-68l213 319h166z" />
    <glyph glyph-name="emacronacute" unicode="&#x1e17;" horiz-adv-x="981" 
d="M911 494h-725q-3 -24 -3 -48q0 -154 110 -261t260 -107q175 0 342 137v-111q-158 -122 -354 -122q-199 0 -329 138t-130 351q0 202 120 334.5t302 132.5q171 0 289 -119.5t118 -324.5zM199 573h596q-52 269 -291 269q-113 0 -195.5 -70.5t-109.5 -198.5zM-26 1144h1047
v-103h-1047v103zM687 1564l-311 -319h-68l213 319h166z" />
    <glyph glyph-name="Ecircumflexbelow" unicode="&#x1e18;" 
d="M926 1397v-90h-654v-559h637v-91h-637v-567h670v-90h-778v1397h762zM618 -101l217 -335h-78l-203 223l-205 -223h-78l222 335h125z" />
    <glyph glyph-name="ecircumflexbelow" unicode="&#x1e19;" horiz-adv-x="981" 
d="M911 494h-725q-3 -24 -3 -48q0 -154 110 -261t260 -107q175 0 342 137v-111q-158 -122 -354 -122q-199 0 -329 138t-130 351q0 202 120 334.5t302 132.5q171 0 289 -119.5t118 -324.5zM199 573h596q-52 269 -291 269q-113 0 -195.5 -70.5t-109.5 -198.5zM561 -119
l217 -335h-78l-203 223l-205 -223h-78l222 335h125z" />
    <glyph glyph-name="Etildebelow" unicode="&#x1e1a;" 
d="M926 1397v-90h-654v-559h637v-91h-637v-567h670v-90h-778v1397h762zM886 -101q5 -84 -44.5 -140.5t-123.5 -56.5q-50 0 -177.5 50.5t-172.5 50.5q-74 0 -86 -99h-66q0 87 44.5 141t123.5 54q66 0 185 -50t163 -50q79 0 92 100h62z" />
    <glyph glyph-name="etildebelow" unicode="&#x1e1b;" horiz-adv-x="981" 
d="M911 494h-725q-3 -24 -3 -48q0 -154 110 -261t260 -107q175 0 342 137v-111q-158 -122 -354 -122q-199 0 -329 138t-130 351q0 202 120 334.5t302 132.5q171 0 289 -119.5t118 -324.5zM199 573h596q-52 269 -291 269q-113 0 -195.5 -70.5t-109.5 -198.5zM829 -119
q5 -84 -44.5 -140.5t-123.5 -56.5q-50 0 -177.5 50.5t-172.5 50.5q-74 0 -86 -99h-66q0 87 44.5 141t123.5 54q66 0 185 -50t163 -50q79 0 92 100h62z" />
    <glyph glyph-name="Ecedillabreve" unicode="&#x1e1c;" 
d="M926 1397v-90h-654v-559h637v-91h-637v-567h670v-90h-778v1397h762zM753 1732h80q-89 -233 -277 -233q-179 0 -283 233h84q66 -137 197 -137q127 0 199 137zM597 1l-25 -88q127 -22 127 -129q0 -73 -55.5 -115.5t-146.5 -42.5q-43 0 -89 11l10 65q39 -3 68 -3
q133 0 133 79q0 77 -127 80l43 143h62z" />
    </font>
</defs>
</svg>
